<svg width="56" height="56" viewBox="0 0 56 56" fill="none" xmlns="http://www.w3.org/2000/svg">
<rect width="46.1176" height="46.1176" rx="23.0588" transform="matrix(1 0 0 -1 4.94092 51.0588)" fill="white"/>
<rect width="46.1176" height="46.1176" rx="23.0588" transform="matrix(1 0 0 -1 4.94092 51.0588)" fill="#B5DBFF" fill-opacity="0.2"/>
<path d="M22.5227 24.5995C22.4485 23.9411 22.1425 23.4311 21.6047 23.0695C21.0669 22.7033 20.39 22.5201 19.574 22.5201C18.9899 22.5201 18.4845 22.6129 18.058 22.7983C17.6315 22.9791 17.3 23.2295 17.0635 23.5494C16.8317 23.8646 16.7158 24.2239 16.7158 24.6273C16.7158 24.9657 16.7946 25.2578 16.9523 25.5035C17.1145 25.7492 17.3255 25.9556 17.5851 26.1225C17.8494 26.2847 18.1322 26.4215 18.4335 26.5328C18.7349 26.6394 19.0247 26.7275 19.3028 26.797L20.6937 27.1587C21.148 27.2699 21.614 27.4206 22.0915 27.6107C22.569 27.8008 23.0118 28.0511 23.4198 28.3618C23.8278 28.6724 24.1569 29.0572 24.4073 29.5162C24.6623 29.9752 24.7898 30.5245 24.7898 31.1643C24.7898 31.971 24.5811 32.6873 24.1639 33.3132C23.7513 33.9391 23.1509 34.4329 22.3627 34.7945C21.5792 35.1561 20.6311 35.3369 19.5184 35.3369C18.4521 35.3369 17.5295 35.1677 16.7506 34.8293C15.9717 34.4908 15.362 34.011 14.9216 33.3897C14.4812 32.7638 14.2378 32.022 14.1914 31.1643H16.3472C16.389 31.679 16.5559 32.1078 16.848 32.4509C17.1447 32.7893 17.5225 33.042 17.9815 33.2089C18.4451 33.3712 18.9528 33.4523 19.5045 33.4523C20.1118 33.4523 20.652 33.3573 21.1249 33.1672C21.6024 32.9725 21.9779 32.7036 22.2514 32.3605C22.525 32.0128 22.6618 31.6071 22.6618 31.1435C22.6618 30.7216 22.5412 30.3762 22.3001 30.1073C22.0637 29.8384 21.7415 29.6158 21.3335 29.4397C20.9301 29.2635 20.4735 29.1082 19.9635 28.9737L18.2805 28.5147C17.14 28.2041 16.236 27.7475 15.5684 27.1447C14.9054 26.542 14.5739 25.7446 14.5739 24.7525C14.5739 23.9319 14.7964 23.2156 15.2415 22.6036C15.6866 21.9916 16.2893 21.5164 17.0496 21.1779C17.81 20.8349 18.6677 20.6633 19.6227 20.6633C20.5871 20.6633 21.4378 20.8326 22.175 21.171C22.9167 21.5094 23.5009 21.9754 23.9274 22.5688C24.354 23.1576 24.5765 23.8345 24.5951 24.5995H22.5227Z" fill="#005DFF"/>
<path d="M27.3576 20.8581H29.9655L34.4997 31.9293H34.6666L39.2008 20.8581H41.8087V35.1005H39.7641V24.7942H39.632L35.4316 35.0796H33.7348L29.5344 24.7872H29.4022V35.1005H27.3576V20.8581Z" fill="#005DFF"/>
<circle cx="27.9995" cy="28" r="26.5" stroke="white" stroke-width="3"/>
</svg>
