<svg width="56" height="56" viewBox="0 0 56 56" fill="none" xmlns="http://www.w3.org/2000/svg">
<rect width="46.1176" height="46.1176" rx="23.0588" transform="matrix(1 0 0 -1 4.94092 51.0588)" fill="white"/>
<rect width="46.1176" height="46.1176" rx="23.0588" transform="matrix(1 0 0 -1 4.94092 51.0588)" fill="#B5DBFF" fill-opacity="0.2"/>
<path d="M33.8424 24.0703C33.6409 23.4379 33.3699 22.8715 33.0294 22.3712C32.6958 21.8639 32.2962 21.433 31.8306 21.0786C31.365 20.7173 30.8334 20.4428 30.2358 20.2551C29.6451 20.0675 28.9954 19.9737 28.2865 19.9737C27.0843 19.9737 26.0002 20.2829 25.0343 20.9014C24.0684 21.5199 23.3039 22.4268 22.7411 23.622C22.1851 24.8104 21.9071 26.2662 21.9071 27.9896C21.9071 29.72 22.1886 31.1828 22.7515 32.3781C23.3144 33.5733 24.0857 34.4802 25.0656 35.0987C26.0454 35.7172 27.1608 36.0264 28.4116 36.0264C29.5721 36.0264 30.5833 35.7901 31.445 35.3176C32.3136 34.845 32.9842 34.1779 33.4568 33.3162C33.9362 32.4476 34.176 31.426 34.176 30.2516L35.0099 30.408H28.9015V27.7499H37.2927V30.1786C37.2927 31.9715 36.9105 33.5282 36.1461 34.8485C35.3886 36.1619 34.3393 37.1765 32.9981 37.8923C31.6639 38.608 30.135 38.9659 28.4116 38.9659C26.4797 38.9659 24.7841 38.5212 23.3248 37.6317C21.8724 36.7422 20.7397 35.4809 19.9266 33.8478C19.1136 32.2078 18.707 30.262 18.707 28.0105C18.707 26.3079 18.9433 24.7791 19.4159 23.424C19.8884 22.0689 20.552 20.9188 21.4068 19.9737C22.2685 19.0217 23.2796 18.2955 24.4401 17.7951C25.6076 17.2878 26.8828 17.0342 28.2657 17.0342C29.4193 17.0342 30.4929 17.2044 31.4866 17.5449C32.4873 17.8855 33.3768 18.3684 34.1552 18.9939C34.9404 19.6193 35.5902 20.3629 36.1044 21.2246C36.6187 22.0793 36.9661 23.0279 37.1468 24.0703H33.8424Z" fill="#005DFF"/>
<circle cx="27.9995" cy="28" r="26.5" stroke="white" stroke-width="3"/>
</svg>
