<svg width="1448" height="104" viewBox="0 0 1448 104" fill="none" xmlns="http://www.w3.org/2000/svg">
<g filter="url(#filter0_d_609_4451)">
<rect width="1440" height="96" transform="translate(4)" fill="#4589FF"/>
<path d="M75.908 19.9998H65.7344V31.7044H75.908V19.9998Z" fill="white"/>
<path d="M65.7342 41.2239H75.9079V57.7315C75.9544 61.7036 74.8239 65.6 72.6602 68.9252C70.5237 72.1559 66.3994 75.9998 58.7692 75.9998C50.4581 75.9998 45.6138 72.0695 43 69.9156L49.4172 61.9998C51.9685 64.0829 54.4258 65.7966 58.8083 65.7966C62.1265 65.7966 63.4491 64.4445 64.2238 63.2654C65.2771 61.6277 65.8219 59.7124 65.789 57.7629L65.7342 41.2239Z" fill="white"/>
<path d="M60.5457 33.8347H50.3721V44.0537H60.5457V33.8347Z" fill="white"/>
<path d="M81.2374 71.2047C81.2374 73.3821 80.134 74.5534 78.5923 74.5534C77.0506 74.5534 76.041 73.162 76.041 71.3147C76.041 69.4675 77.0819 68.0054 78.6783 68.0054C80.2748 68.0054 81.2374 69.4439 81.2374 71.2047ZM77.2227 71.2912C77.2227 72.6039 77.7471 73.5708 78.647 73.5708C79.547 73.5708 80.0557 72.5489 80.0557 71.2126C80.0557 70.0413 79.5861 68.9408 78.647 68.9408C77.7079 68.9408 77.2227 70.002 77.2227 71.2912Z" fill="white"/>
<path d="M83.2563 68.0999V74.4513H82.1294V68.0999H83.2563Z" fill="white"/>
<path d="M84.4771 74.4513V68.0999H85.7292L87.0752 70.7175C87.4218 71.4019 87.7301 72.1053 87.9987 72.8242C87.9283 72.0381 87.897 71.1341 87.897 70.1279V68.0999H88.93V74.4513H87.7639L86.4022 71.7787C86.0417 71.0766 85.7203 70.3549 85.4396 69.617C85.4396 70.4031 85.4944 71.2913 85.4944 72.384V74.4435L84.4771 74.4513Z" fill="white"/>
<path d="M983.634 55.5H981.769L976.88 48.9038L975.433 50.2026V55.5H973.855V41.9365H975.433V48.6997C975.785 48.2977 976.147 47.8988 976.518 47.5029C976.889 47.1009 977.257 46.6958 977.622 46.2876L981.583 41.9365H983.43L978.03 47.8184L983.634 55.5ZM989.061 45.165C990.273 45.165 991.173 45.4372 991.761 45.9814C992.348 46.5257 992.642 47.3947 992.642 48.5884V55.5H991.52L991.223 53.9971H991.148C990.864 54.3682 990.567 54.6805 990.258 54.9341C989.949 55.1815 989.59 55.3701 989.182 55.5C988.78 55.6237 988.285 55.6855 987.697 55.6855C987.079 55.6855 986.528 55.5773 986.046 55.3608C985.57 55.1444 985.192 54.8166 984.914 54.3774C984.642 53.9383 984.506 53.3817 984.506 52.7075C984.506 51.6932 984.908 50.9139 985.712 50.3696C986.516 49.8254 987.741 49.5285 989.386 49.479L991.139 49.4048V48.7832C991.139 47.9049 990.951 47.2896 990.573 46.937C990.196 46.5845 989.664 46.4082 988.978 46.4082C988.446 46.4082 987.938 46.4855 987.456 46.6401C986.974 46.7948 986.516 46.9772 986.083 47.1875L985.61 46.0186C986.068 45.7835 986.593 45.5825 987.187 45.4155C987.781 45.2485 988.405 45.165 989.061 45.165ZM991.121 50.4902L989.571 50.5552C988.303 50.6047 987.41 50.8118 986.89 51.1768C986.371 51.5417 986.111 52.0581 986.111 52.7261C986.111 53.3075 986.287 53.7373 986.64 54.0156C986.992 54.2939 987.459 54.4331 988.041 54.4331C988.944 54.4331 989.683 54.1826 990.258 53.6816C990.833 53.1807 991.121 52.4292 991.121 51.4272V50.4902ZM1000.63 45.1465C1001.84 45.1465 1002.75 45.4434 1003.37 46.0371C1003.99 46.6247 1004.29 47.571 1004.29 48.876V55.5H1002.77V48.978C1002.77 48.1307 1002.58 47.4967 1002.19 47.0762C1001.81 46.6556 1001.21 46.4453 1000.42 46.4453C999.291 46.4453 998.499 46.7638 998.042 47.4009C997.584 48.0379 997.355 48.9626 997.355 50.1748V55.5H995.815V45.332H997.058L997.29 46.7979H997.374C997.59 46.4391 997.865 46.1392 998.199 45.8979C998.533 45.6506 998.907 45.465 999.322 45.3413C999.736 45.2114 1000.17 45.1465 1000.63 45.1465ZM1009.01 41.0645V44.6733C1009.01 45.0877 1008.99 45.4897 1008.97 45.8794C1008.95 46.269 1008.94 46.5721 1008.92 46.7886H1009.01C1009.29 46.3309 1009.69 45.9443 1010.21 45.6289C1010.74 45.3135 1011.41 45.1558 1012.23 45.1558C1013.5 45.1558 1014.51 45.598 1015.27 46.4824C1016.03 47.3607 1016.41 48.6688 1016.41 50.4067C1016.41 51.5509 1016.24 52.5158 1015.89 53.3013C1015.54 54.0868 1015.06 54.6805 1014.43 55.0825C1013.79 55.4845 1013.05 55.6855 1012.19 55.6855C1011.39 55.6855 1010.72 55.5371 1010.2 55.2402C1009.69 54.9372 1009.29 54.5692 1009.02 54.1362H1008.9L1008.58 55.5H1007.47V41.0645H1009.01ZM1011.98 46.4453C1011.24 46.4453 1010.66 46.5907 1010.22 46.8813C1009.79 47.1659 1009.48 47.5988 1009.29 48.1802C1009.1 48.7554 1009.01 49.4852 1009.01 50.3696V50.4531C1009.01 51.7334 1009.22 52.7137 1009.65 53.394C1010.07 54.0682 1010.85 54.4053 1011.98 54.4053C1012.92 54.4053 1013.63 54.0589 1014.1 53.3662C1014.58 52.6735 1014.81 51.6839 1014.81 50.3975C1014.81 49.0863 1014.58 48.0998 1014.11 47.438C1013.65 46.7762 1012.93 46.4453 1011.98 46.4453ZM1022.9 45.165C1024.12 45.165 1025.02 45.4372 1025.6 45.9814C1026.19 46.5257 1026.49 47.3947 1026.49 48.5884V55.5H1025.36L1025.07 53.9971H1024.99C1024.71 54.3682 1024.41 54.6805 1024.1 54.9341C1023.79 55.1815 1023.43 55.3701 1023.03 55.5C1022.62 55.6237 1022.13 55.6855 1021.54 55.6855C1020.92 55.6855 1020.37 55.5773 1019.89 55.3608C1019.41 55.1444 1019.04 54.8166 1018.76 54.3774C1018.49 53.9383 1018.35 53.3817 1018.35 52.7075C1018.35 51.6932 1018.75 50.9139 1019.56 50.3696C1020.36 49.8254 1021.58 49.5285 1023.23 49.479L1024.98 49.4048V48.7832C1024.98 47.9049 1024.79 47.2896 1024.42 46.937C1024.04 46.5845 1023.51 46.4082 1022.82 46.4082C1022.29 46.4082 1021.78 46.4855 1021.3 46.6401C1020.82 46.7948 1020.36 46.9772 1019.93 47.1875L1019.45 46.0186C1019.91 45.7835 1020.44 45.5825 1021.03 45.4155C1021.62 45.2485 1022.25 45.165 1022.9 45.165ZM1024.96 50.4902L1023.42 50.5552C1022.15 50.6047 1021.25 50.8118 1020.73 51.1768C1020.21 51.5417 1019.95 52.0581 1019.95 52.7261C1019.95 53.3075 1020.13 53.7373 1020.48 54.0156C1020.84 54.2939 1021.3 54.4331 1021.88 54.4331C1022.79 54.4331 1023.53 54.1826 1024.1 53.6816C1024.68 53.1807 1024.96 52.4292 1024.96 51.4272V50.4902ZM1034.47 45.1465C1035.68 45.1465 1036.59 45.4434 1037.21 46.0371C1037.83 46.6247 1038.14 47.571 1038.14 48.876V55.5H1036.62V48.978C1036.62 48.1307 1036.42 47.4967 1036.03 47.0762C1035.65 46.6556 1035.06 46.4453 1034.26 46.4453C1033.13 46.4453 1032.34 46.7638 1031.89 47.4009C1031.43 48.0379 1031.2 48.9626 1031.2 50.1748V55.5H1029.66V45.332H1030.9L1031.13 46.7979H1031.22C1031.43 46.4391 1031.71 46.1392 1032.04 45.8979C1032.38 45.6506 1032.75 45.465 1033.17 45.3413C1033.58 45.2114 1034.02 45.1465 1034.47 45.1465ZM1050.02 41.9365C1051.77 41.9365 1053.05 42.2798 1053.85 42.9663C1054.66 43.6466 1055.07 44.6239 1055.07 45.8979C1055.07 46.4731 1054.97 47.0205 1054.78 47.54C1054.6 48.0534 1054.29 48.508 1053.87 48.9038C1053.45 49.2935 1052.9 49.6027 1052.21 49.8315C1051.53 50.0542 1050.7 50.1655 1049.71 50.1655H1048.06V55.5H1046.48V41.9365H1050.02ZM1049.87 43.2817H1048.06V48.811H1049.53C1050.4 48.811 1051.12 48.7183 1051.69 48.5327C1052.27 48.3472 1052.71 48.0472 1053 47.6328C1053.29 47.2122 1053.44 46.6556 1053.44 45.9629C1053.44 45.0599 1053.15 44.3888 1052.57 43.9497C1052 43.5044 1051.1 43.2817 1049.87 43.2817ZM1062.3 45.1465C1062.5 45.1465 1062.71 45.1589 1062.94 45.1836C1063.16 45.2021 1063.36 45.23 1063.53 45.2671L1063.34 46.6958C1063.17 46.6525 1062.98 46.6185 1062.78 46.5938C1062.57 46.569 1062.38 46.5566 1062.2 46.5566C1061.8 46.5566 1061.41 46.6401 1061.04 46.8071C1060.69 46.9679 1060.37 47.203 1060.1 47.5122C1059.83 47.8153 1059.61 48.1833 1059.46 48.6162C1059.3 49.043 1059.23 49.5192 1059.23 50.0449V55.5H1057.68V45.332H1058.96L1059.12 47.2061H1059.19C1059.4 46.8288 1059.65 46.4855 1059.95 46.1763C1060.25 45.8608 1060.59 45.6104 1060.98 45.4248C1061.37 45.2393 1061.81 45.1465 1062.3 45.1465ZM1074.22 50.3975C1074.22 51.2324 1074.11 51.9777 1073.89 52.6333C1073.68 53.2889 1073.36 53.8424 1072.96 54.2939C1072.55 54.7454 1072.05 55.0918 1071.47 55.333C1070.9 55.568 1070.24 55.6855 1069.51 55.6855C1068.83 55.6855 1068.21 55.568 1067.64 55.333C1067.08 55.0918 1066.59 54.7454 1066.17 54.2939C1065.77 53.8424 1065.45 53.2889 1065.22 52.6333C1065 51.9777 1064.88 51.2324 1064.88 50.3975C1064.88 49.2842 1065.07 48.3379 1065.45 47.5586C1065.83 46.7731 1066.37 46.1763 1067.06 45.7681C1067.77 45.3537 1068.61 45.1465 1069.58 45.1465C1070.51 45.1465 1071.32 45.3537 1072.01 45.7681C1072.71 46.1825 1073.25 46.7824 1073.63 47.5679C1074.02 48.3472 1074.22 49.2904 1074.22 50.3975ZM1066.48 50.3975C1066.48 51.2139 1066.59 51.922 1066.81 52.522C1067.02 53.1219 1067.36 53.5858 1067.81 53.9136C1068.26 54.2414 1068.84 54.4053 1069.55 54.4053C1070.26 54.4053 1070.83 54.2414 1071.29 53.9136C1071.74 53.5858 1072.08 53.1219 1072.3 52.522C1072.51 51.922 1072.62 51.2139 1072.62 50.3975C1072.62 49.5872 1072.51 48.8883 1072.3 48.3008C1072.08 47.707 1071.75 47.2493 1071.3 46.9277C1070.84 46.6061 1070.26 46.4453 1069.54 46.4453C1068.48 46.4453 1067.71 46.7948 1067.21 47.4937C1066.72 48.1925 1066.48 49.1605 1066.48 50.3975ZM1075.66 60.0645C1075.34 60.0645 1075.07 60.0397 1074.83 59.9902C1074.6 59.9469 1074.39 59.8944 1074.22 59.8325V58.5801C1074.41 58.6419 1074.6 58.6883 1074.8 58.7192C1075 58.7563 1075.22 58.7749 1075.47 58.7749C1075.89 58.7749 1076.23 58.6574 1076.49 58.4224C1076.75 58.1873 1076.88 57.7606 1076.88 57.1421V45.332H1078.42V57.105C1078.42 57.7235 1078.32 58.2523 1078.12 58.6914C1077.93 59.1367 1077.62 59.4769 1077.21 59.7119C1076.81 59.9469 1076.29 60.0645 1075.66 60.0645ZM1076.74 42.5396C1076.74 42.1932 1076.83 41.9396 1077 41.7788C1077.18 41.6118 1077.4 41.5283 1077.67 41.5283C1077.92 41.5283 1078.14 41.6118 1078.32 41.7788C1078.5 41.9396 1078.6 42.1932 1078.6 42.5396C1078.6 42.8797 1078.5 43.1333 1078.32 43.3003C1078.14 43.4673 1077.92 43.5508 1077.67 43.5508C1077.4 43.5508 1077.18 43.4673 1077 43.3003C1076.83 43.1333 1076.74 42.8797 1076.74 42.5396ZM1085.6 45.1465C1086.47 45.1465 1087.21 45.3382 1087.83 45.7217C1088.45 46.1051 1088.92 46.6432 1089.25 47.3359C1089.57 48.0225 1089.74 48.8265 1089.74 49.748V50.7036H1082.72C1082.73 51.8973 1083.03 52.8065 1083.61 53.4312C1084.18 54.0558 1084.99 54.3682 1086.04 54.3682C1086.68 54.3682 1087.25 54.3094 1087.74 54.1919C1088.24 54.0744 1088.75 53.9012 1089.28 53.6724V55.0269C1088.77 55.2557 1088.26 55.4227 1087.75 55.5278C1087.25 55.633 1086.66 55.6855 1085.97 55.6855C1084.99 55.6855 1084.14 55.4876 1083.41 55.0918C1082.69 54.6898 1082.13 54.1022 1081.72 53.3291C1081.32 52.556 1081.12 51.6097 1081.12 50.4902C1081.12 49.3955 1081.3 48.4492 1081.67 47.6514C1082.04 46.8473 1082.56 46.2288 1083.23 45.7959C1083.9 45.363 1084.69 45.1465 1085.6 45.1465ZM1085.58 46.4082C1084.76 46.4082 1084.1 46.6772 1083.62 47.2153C1083.13 47.7534 1082.84 48.5049 1082.74 49.4697H1088.12C1088.12 48.8636 1088.02 48.3317 1087.84 47.874C1087.66 47.4102 1087.38 47.0514 1087.01 46.7979C1086.64 46.5381 1086.16 46.4082 1085.58 46.4082ZM1096.43 55.6855C1095.51 55.6855 1094.71 55.4969 1094.01 55.1196C1093.31 54.7424 1092.76 54.1672 1092.37 53.394C1091.98 52.6209 1091.79 51.6468 1091.79 50.4717C1091.79 49.2409 1091.99 48.2358 1092.4 47.4565C1092.82 46.6711 1093.38 46.0897 1094.11 45.7124C1094.83 45.3351 1095.65 45.1465 1096.58 45.1465C1097.08 45.1465 1097.57 45.1991 1098.04 45.3042C1098.52 45.4032 1098.91 45.5299 1099.21 45.6846L1098.75 46.9741C1098.44 46.8504 1098.08 46.7391 1097.67 46.6401C1097.27 46.5412 1096.89 46.4917 1096.54 46.4917C1095.83 46.4917 1095.25 46.6432 1094.78 46.9463C1094.31 47.2493 1093.96 47.6947 1093.73 48.2822C1093.5 48.8698 1093.38 49.5934 1093.38 50.4531C1093.38 51.2757 1093.5 51.9777 1093.72 52.5591C1093.95 53.1405 1094.28 53.5858 1094.73 53.895C1095.18 54.1981 1095.74 54.3496 1096.42 54.3496C1096.96 54.3496 1097.44 54.2939 1097.88 54.1826C1098.31 54.0651 1098.7 53.929 1099.05 53.7744V55.1475C1098.71 55.3206 1098.33 55.4536 1097.91 55.5464C1097.5 55.6392 1097 55.6855 1096.43 55.6855ZM1104.75 54.4238C1105 54.4238 1105.26 54.4022 1105.53 54.3589C1105.79 54.3156 1106.01 54.263 1106.18 54.2012V55.3979C1106 55.4784 1105.75 55.5464 1105.43 55.6021C1105.11 55.6577 1104.8 55.6855 1104.5 55.6855C1103.96 55.6855 1103.47 55.5928 1103.03 55.4072C1102.59 55.2155 1102.24 54.8939 1101.98 54.4424C1101.72 53.9909 1101.59 53.3662 1101.59 52.5684V46.5381H1100.14V45.7866L1101.6 45.1836L1102.21 42.9756H1103.14V45.332H1106.11V46.5381H1103.14V52.522C1103.14 53.159 1103.28 53.6353 1103.57 53.9507C1103.87 54.2661 1104.26 54.4238 1104.75 54.4238ZM1119.37 55.5L1114.82 43.4951H1114.74C1114.77 43.7487 1114.79 44.0579 1114.81 44.4229C1114.82 44.7878 1114.84 45.1867 1114.85 45.6196C1114.86 46.0464 1114.87 46.4824 1114.87 46.9277V55.5H1113.41V41.9365H1115.74L1120.04 53.2178H1120.1L1124.46 41.9365H1126.78V55.5H1125.22V46.8164C1125.22 46.4144 1125.23 46.0124 1125.24 45.6104C1125.26 45.2021 1125.27 44.8187 1125.29 44.46C1125.31 44.0951 1125.33 43.7796 1125.35 43.5137H1125.27L1120.66 55.5H1119.37ZM1134.07 45.165C1135.28 45.165 1136.18 45.4372 1136.77 45.9814C1137.35 46.5257 1137.65 47.3947 1137.65 48.5884V55.5H1136.52L1136.23 53.9971H1136.15C1135.87 54.3682 1135.57 54.6805 1135.26 54.9341C1134.95 55.1815 1134.59 55.3701 1134.19 55.5C1133.78 55.6237 1133.29 55.6855 1132.7 55.6855C1132.08 55.6855 1131.53 55.5773 1131.05 55.3608C1130.57 55.1444 1130.2 54.8166 1129.92 54.3774C1129.65 53.9383 1129.51 53.3817 1129.51 52.7075C1129.51 51.6932 1129.91 50.9139 1130.72 50.3696C1131.52 49.8254 1132.75 49.5285 1134.39 49.479L1136.14 49.4048V48.7832C1136.14 47.9049 1135.96 47.2896 1135.58 46.937C1135.2 46.5845 1134.67 46.4082 1133.98 46.4082C1133.45 46.4082 1132.94 46.4855 1132.46 46.6401C1131.98 46.7948 1131.52 46.9772 1131.09 47.1875L1130.61 46.0186C1131.07 45.7835 1131.6 45.5825 1132.19 45.4155C1132.79 45.2485 1133.41 45.165 1134.07 45.165ZM1136.13 50.4902L1134.58 50.5552C1133.31 50.6047 1132.41 50.8118 1131.9 51.1768C1131.38 51.5417 1131.12 52.0581 1131.12 52.7261C1131.12 53.3075 1131.29 53.7373 1131.64 54.0156C1132 54.2939 1132.46 54.4331 1133.05 54.4331C1133.95 54.4331 1134.69 54.1826 1135.26 53.6816C1135.84 53.1807 1136.13 52.4292 1136.13 51.4272V50.4902ZM1145.63 45.1465C1146.84 45.1465 1147.75 45.4434 1148.37 46.0371C1148.99 46.6247 1149.3 47.571 1149.3 48.876V55.5H1147.78V48.978C1147.78 48.1307 1147.58 47.4967 1147.19 47.0762C1146.81 46.6556 1146.22 46.4453 1145.42 46.4453C1144.3 46.4453 1143.5 46.7638 1143.05 47.4009C1142.59 48.0379 1142.36 48.9626 1142.36 50.1748V55.5H1140.82V45.332H1142.06L1142.29 46.7979H1142.38C1142.59 46.4391 1142.87 46.1392 1143.2 45.8979C1143.54 45.6506 1143.91 45.465 1144.33 45.3413C1144.74 45.2114 1145.18 45.1465 1145.63 45.1465ZM1156.28 45.165C1157.49 45.165 1158.39 45.4372 1158.98 45.9814C1159.56 46.5257 1159.86 47.3947 1159.86 48.5884V55.5H1158.73L1158.44 53.9971H1158.36C1158.08 54.3682 1157.78 54.6805 1157.47 54.9341C1157.16 55.1815 1156.8 55.3701 1156.4 55.5C1155.99 55.6237 1155.5 55.6855 1154.91 55.6855C1154.29 55.6855 1153.74 55.5773 1153.26 55.3608C1152.78 55.1444 1152.41 54.8166 1152.13 54.3774C1151.86 53.9383 1151.72 53.3817 1151.72 52.7075C1151.72 51.6932 1152.12 50.9139 1152.93 50.3696C1153.73 49.8254 1154.96 49.5285 1156.6 49.479L1158.35 49.4048V48.7832C1158.35 47.9049 1158.17 47.2896 1157.79 46.937C1157.41 46.5845 1156.88 46.4082 1156.19 46.4082C1155.66 46.4082 1155.15 46.4855 1154.67 46.6401C1154.19 46.7948 1153.73 46.9772 1153.3 47.1875L1152.82 46.0186C1153.28 45.7835 1153.81 45.5825 1154.4 45.4155C1155 45.2485 1155.62 45.165 1156.28 45.165ZM1158.34 50.4902L1156.79 50.5552C1155.52 50.6047 1154.62 50.8118 1154.1 51.1768C1153.59 51.5417 1153.33 52.0581 1153.33 52.7261C1153.33 53.3075 1153.5 53.7373 1153.85 54.0156C1154.21 54.2939 1154.67 54.4331 1155.26 54.4331C1156.16 54.4331 1156.9 54.1826 1157.47 53.6816C1158.05 53.1807 1158.34 52.4292 1158.34 51.4272V50.4902ZM1165.87 60.0645C1164.53 60.0645 1163.5 59.814 1162.78 59.313C1162.06 58.8182 1161.69 58.1224 1161.69 57.2256C1161.69 56.5885 1161.89 56.0443 1162.3 55.5928C1162.71 55.1413 1163.27 54.8413 1163.99 54.6929C1163.72 54.5692 1163.49 54.3836 1163.3 54.1362C1163.11 53.8888 1163.02 53.6043 1163.02 53.2827C1163.02 52.9116 1163.12 52.5869 1163.33 52.3086C1163.54 52.0241 1163.86 51.752 1164.28 51.4922C1163.75 51.2757 1163.32 50.9108 1162.98 50.3975C1162.66 49.8779 1162.49 49.2749 1162.49 48.5884C1162.49 47.8586 1162.64 47.237 1162.95 46.7236C1163.25 46.2041 1163.69 45.8083 1164.26 45.5361C1164.84 45.264 1165.53 45.1279 1166.35 45.1279C1166.53 45.1279 1166.71 45.1372 1166.89 45.1558C1167.07 45.1681 1167.25 45.1898 1167.42 45.2207C1167.58 45.2454 1167.73 45.2764 1167.85 45.3135H1171.34V46.3062L1169.47 46.5381C1169.65 46.7793 1169.81 47.07 1169.93 47.4102C1170.06 47.7503 1170.12 48.1276 1170.12 48.542C1170.12 49.5563 1169.77 50.3634 1169.09 50.9634C1168.4 51.5571 1167.46 51.854 1166.26 51.854C1165.97 51.854 1165.68 51.8293 1165.39 51.7798C1165.08 51.9468 1164.85 52.1323 1164.69 52.3364C1164.54 52.5405 1164.46 52.7756 1164.46 53.0415C1164.46 53.2394 1164.52 53.3971 1164.63 53.5146C1164.76 53.6322 1164.93 53.7188 1165.16 53.7744C1165.39 53.8239 1165.67 53.8486 1165.99 53.8486H1167.78C1168.89 53.8486 1169.73 54.0806 1170.32 54.5444C1170.92 55.0083 1171.21 55.6855 1171.21 56.5762C1171.21 57.7018 1170.75 58.5646 1169.84 59.1646C1168.92 59.7645 1167.6 60.0645 1165.87 60.0645ZM1165.92 58.8584C1166.76 58.8584 1167.45 58.7718 1168 58.5986C1168.56 58.4316 1168.97 58.1873 1169.25 57.8657C1169.52 57.5503 1169.66 57.173 1169.66 56.7339C1169.66 56.3257 1169.57 56.0164 1169.38 55.8062C1169.2 55.6021 1168.93 55.466 1168.57 55.3979C1168.21 55.3237 1167.77 55.2866 1167.25 55.2866H1165.49C1165.03 55.2866 1164.63 55.3577 1164.29 55.5C1163.95 55.6423 1163.69 55.8525 1163.5 56.1309C1163.32 56.4092 1163.23 56.7555 1163.23 57.1699C1163.23 57.7204 1163.47 58.1379 1163.93 58.4224C1164.39 58.7131 1165.06 58.8584 1165.92 58.8584ZM1166.31 50.7314C1167.05 50.7314 1167.6 50.5459 1167.97 50.1748C1168.35 49.8037 1168.53 49.2625 1168.53 48.5513C1168.53 47.7905 1168.34 47.2215 1167.97 46.8442C1167.59 46.4608 1167.03 46.269 1166.3 46.269C1165.59 46.269 1165.05 46.467 1164.66 46.8628C1164.29 47.2524 1164.1 47.8245 1164.1 48.5791C1164.1 49.2718 1164.29 49.8037 1164.67 50.1748C1165.06 50.5459 1165.6 50.7314 1166.31 50.7314ZM1177.26 45.1465C1178.13 45.1465 1178.87 45.3382 1179.49 45.7217C1180.11 46.1051 1180.58 46.6432 1180.91 47.3359C1181.24 48.0225 1181.4 48.8265 1181.4 49.748V50.7036H1174.38C1174.39 51.8973 1174.69 52.8065 1175.27 53.4312C1175.84 54.0558 1176.65 54.3682 1177.7 54.3682C1178.34 54.3682 1178.91 54.3094 1179.4 54.1919C1179.9 54.0744 1180.41 53.9012 1180.94 53.6724V55.0269C1180.43 55.2557 1179.92 55.4227 1179.41 55.5278C1178.91 55.633 1178.32 55.6855 1177.63 55.6855C1176.66 55.6855 1175.8 55.4876 1175.07 55.0918C1174.35 54.6898 1173.79 54.1022 1173.38 53.3291C1172.98 52.556 1172.78 51.6097 1172.78 50.4902C1172.78 49.3955 1172.96 48.4492 1173.33 47.6514C1173.7 46.8473 1174.22 46.2288 1174.89 45.7959C1175.56 45.363 1176.35 45.1465 1177.26 45.1465ZM1177.24 46.4082C1176.42 46.4082 1175.76 46.6772 1175.28 47.2153C1174.79 47.7534 1174.5 48.5049 1174.4 49.4697H1179.78C1179.78 48.8636 1179.68 48.3317 1179.5 47.874C1179.32 47.4102 1179.04 47.0514 1178.67 46.7979C1178.3 46.5381 1177.82 46.4082 1177.24 46.4082ZM1195.06 45.1465C1196.17 45.1465 1197.02 45.4403 1197.59 46.0278C1198.16 46.6092 1198.44 47.5462 1198.44 48.8389V55.5H1196.92V48.9131C1196.92 48.0905 1196.74 47.4751 1196.38 47.0669C1196.03 46.6525 1195.5 46.4453 1194.8 46.4453C1193.82 46.4453 1193.11 46.7298 1192.66 47.2988C1192.22 47.8678 1191.99 48.7059 1191.99 49.813V55.5H1190.46V48.9131C1190.46 48.3626 1190.38 47.9049 1190.22 47.54C1190.07 47.1751 1189.83 46.903 1189.52 46.7236C1189.21 46.5381 1188.81 46.4453 1188.34 46.4453C1187.66 46.4453 1187.12 46.5845 1186.71 46.8628C1186.31 47.1411 1186.01 47.5555 1185.82 48.106C1185.64 48.6502 1185.56 49.3213 1185.56 50.1191V55.5H1184.02V45.332H1185.26L1185.49 46.77H1185.57C1185.78 46.4175 1186.03 46.1206 1186.34 45.8794C1186.65 45.6382 1187 45.4557 1187.38 45.332C1187.77 45.2083 1188.17 45.1465 1188.61 45.1465C1189.38 45.1465 1190.03 45.2918 1190.55 45.5825C1191.07 45.867 1191.45 46.3031 1191.69 46.8906H1191.77C1192.1 46.3031 1192.56 45.867 1193.14 45.5825C1193.73 45.2918 1194.36 45.1465 1195.06 45.1465ZM1205.52 45.1465C1206.39 45.1465 1207.13 45.3382 1207.75 45.7217C1208.37 46.1051 1208.84 46.6432 1209.17 47.3359C1209.49 48.0225 1209.66 48.8265 1209.66 49.748V50.7036H1202.63C1202.65 51.8973 1202.95 52.8065 1203.53 53.4312C1204.1 54.0558 1204.91 54.3682 1205.96 54.3682C1206.6 54.3682 1207.17 54.3094 1207.66 54.1919C1208.16 54.0744 1208.67 53.9012 1209.2 53.6724V55.0269C1208.69 55.2557 1208.18 55.4227 1207.67 55.5278C1207.17 55.633 1206.58 55.6855 1205.89 55.6855C1204.91 55.6855 1204.06 55.4876 1203.33 55.0918C1202.61 54.6898 1202.04 54.1022 1201.64 53.3291C1201.24 52.556 1201.04 51.6097 1201.04 50.4902C1201.04 49.3955 1201.22 48.4492 1201.59 47.6514C1201.96 46.8473 1202.48 46.2288 1203.15 45.7959C1203.82 45.363 1204.61 45.1465 1205.52 45.1465ZM1205.5 46.4082C1204.68 46.4082 1204.02 46.6772 1203.53 47.2153C1203.05 47.7534 1202.76 48.5049 1202.66 49.4697H1208.04C1208.04 48.8636 1207.94 48.3317 1207.76 47.874C1207.58 47.4102 1207.3 47.0514 1206.93 46.7979C1206.56 46.5381 1206.08 46.4082 1205.5 46.4082ZM1217.09 45.1465C1218.29 45.1465 1219.21 45.4434 1219.83 46.0371C1220.44 46.6247 1220.75 47.571 1220.75 48.876V55.5H1219.23V48.978C1219.23 48.1307 1219.04 47.4967 1218.65 47.0762C1218.26 46.6556 1217.67 46.4453 1216.88 46.4453C1215.75 46.4453 1214.96 46.7638 1214.5 47.4009C1214.04 48.0379 1213.81 48.9626 1213.81 50.1748V55.5H1212.27V45.332H1213.52L1213.75 46.7979H1213.83C1214.05 46.4391 1214.32 46.1392 1214.66 45.8979C1214.99 45.6506 1215.37 45.465 1215.78 45.3413C1216.2 45.2114 1216.63 45.1465 1217.09 45.1465ZM1227.21 54.4238C1227.46 54.4238 1227.72 54.4022 1227.99 54.3589C1228.26 54.3156 1228.47 54.263 1228.64 54.2012V55.3979C1228.46 55.4784 1228.21 55.5464 1227.89 55.6021C1227.57 55.6577 1227.26 55.6855 1226.96 55.6855C1226.42 55.6855 1225.93 55.5928 1225.49 55.4072C1225.06 55.2155 1224.7 54.8939 1224.44 54.4424C1224.18 53.9909 1224.05 53.3662 1224.05 52.5684V46.5381H1222.6V45.7866L1224.06 45.1836L1224.67 42.9756H1225.6V45.332H1228.57V46.5381H1225.6V52.522C1225.6 53.159 1225.74 53.6353 1226.03 53.9507C1226.33 54.2661 1226.72 54.4238 1227.21 54.4238ZM1240.03 55.5H1238.45V43.3281H1234.18V41.9365H1244.28V43.3281H1240.03V55.5ZM1254.87 50.3975C1254.87 51.2324 1254.76 51.9777 1254.54 52.6333C1254.33 53.2889 1254.01 53.8424 1253.6 54.2939C1253.2 54.7454 1252.7 55.0918 1252.12 55.333C1251.54 55.568 1250.89 55.6855 1250.16 55.6855C1249.48 55.6855 1248.86 55.568 1248.29 55.333C1247.73 55.0918 1247.24 54.7454 1246.82 54.2939C1246.41 53.8424 1246.1 53.2889 1245.87 52.6333C1245.64 51.9777 1245.53 51.2324 1245.53 50.3975C1245.53 49.2842 1245.72 48.3379 1246.1 47.5586C1246.48 46.7731 1247.01 46.1763 1247.71 45.7681C1248.42 45.3537 1249.26 45.1465 1250.23 45.1465C1251.16 45.1465 1251.97 45.3537 1252.66 45.7681C1253.36 46.1825 1253.9 46.7824 1254.28 47.5679C1254.67 48.3472 1254.87 49.2904 1254.87 50.3975ZM1247.13 50.3975C1247.13 51.2139 1247.24 51.922 1247.45 52.522C1247.67 53.1219 1248 53.5858 1248.46 53.9136C1248.91 54.2414 1249.49 54.4053 1250.2 54.4053C1250.9 54.4053 1251.48 54.2414 1251.93 53.9136C1252.39 53.5858 1252.73 53.1219 1252.95 52.522C1253.16 51.922 1253.27 51.2139 1253.27 50.3975C1253.27 49.5872 1253.16 48.8883 1252.95 48.3008C1252.73 47.707 1252.4 47.2493 1251.94 46.9277C1251.49 46.6061 1250.91 46.4453 1250.19 46.4453C1249.13 46.4453 1248.36 46.7948 1247.86 47.4937C1247.37 48.1925 1247.13 49.1605 1247.13 50.3975ZM1266.3 50.3975C1266.3 51.2324 1266.19 51.9777 1265.97 52.6333C1265.75 53.2889 1265.44 53.8424 1265.03 54.2939C1264.63 54.7454 1264.13 55.0918 1263.55 55.333C1262.97 55.568 1262.32 55.6855 1261.59 55.6855C1260.91 55.6855 1260.29 55.568 1259.72 55.333C1259.16 55.0918 1258.67 54.7454 1258.25 54.2939C1257.84 53.8424 1257.53 53.2889 1257.3 52.6333C1257.07 51.9777 1256.96 51.2324 1256.96 50.3975C1256.96 49.2842 1257.15 48.3379 1257.53 47.5586C1257.91 46.7731 1258.44 46.1763 1259.14 45.7681C1259.85 45.3537 1260.69 45.1465 1261.66 45.1465C1262.58 45.1465 1263.4 45.3537 1264.09 45.7681C1264.79 46.1825 1265.33 46.7824 1265.71 47.5679C1266.1 48.3472 1266.3 49.2904 1266.3 50.3975ZM1258.56 50.3975C1258.56 51.2139 1258.67 51.922 1258.88 52.522C1259.1 53.1219 1259.43 53.5858 1259.89 53.9136C1260.34 54.2414 1260.92 54.4053 1261.63 54.4053C1262.33 54.4053 1262.91 54.2414 1263.36 53.9136C1263.82 53.5858 1264.16 53.1219 1264.38 52.522C1264.59 51.922 1264.7 51.2139 1264.7 50.3975C1264.7 49.5872 1264.59 48.8883 1264.38 48.3008C1264.16 47.707 1263.83 47.2493 1263.37 46.9277C1262.92 46.6061 1262.34 46.4453 1261.62 46.4453C1260.56 46.4453 1259.79 46.7948 1259.29 47.4937C1258.8 48.1925 1258.56 49.1605 1258.56 50.3975ZM1270.51 55.5H1268.96V41.0645H1270.51V55.5Z" fill="white"/>
<mask id="mask0_609_4451" style="mask-type:alpha" maskUnits="userSpaceOnUse" x="1299" y="32" width="33" height="32">
<rect x="1299.03" y="32" width="32" height="32" fill="#D9D9D9"/>
</mask>
<g mask="url(#mask0_609_4451)">
<path d="M1314.98 54C1315.33 54 1315.63 53.8792 1315.87 53.6375C1316.11 53.3958 1316.23 53.1 1316.23 52.75C1316.23 52.4 1316.11 52.1042 1315.87 51.8625C1315.63 51.6208 1315.33 51.5 1314.98 51.5C1314.63 51.5 1314.34 51.6208 1314.1 51.8625C1313.86 52.1042 1313.73 52.4 1313.73 52.75C1313.73 53.1 1313.86 53.3958 1314.1 53.6375C1314.34 53.8792 1314.63 54 1314.98 54ZM1315.03 58C1313.65 58 1312.35 57.7375 1311.13 57.2125C1309.92 56.6875 1308.86 55.975 1307.96 55.075C1307.06 54.175 1306.35 53.1167 1305.82 51.9C1305.3 50.6833 1305.03 49.3833 1305.03 48C1305.03 46.6167 1305.3 45.3167 1305.82 44.1C1306.35 42.8833 1307.06 41.825 1307.96 40.925C1308.86 40.025 1309.92 39.3125 1311.13 38.7875C1312.35 38.2625 1313.65 38 1315.03 38C1316.42 38 1317.72 38.2625 1318.93 38.7875C1320.15 39.3125 1321.21 40.025 1322.11 40.925C1323.01 41.825 1323.72 42.8833 1324.25 44.1C1324.77 45.3167 1325.03 46.6167 1325.03 48C1325.03 49.3833 1324.77 50.6833 1324.25 51.9C1323.72 53.1167 1323.01 54.175 1322.11 55.075C1321.21 55.975 1320.15 56.6875 1318.93 57.2125C1317.72 57.7375 1316.42 58 1315.03 58ZM1315.03 56C1317.27 56 1319.16 55.225 1320.71 53.675C1322.26 52.125 1323.03 50.2333 1323.03 48C1323.03 45.7667 1322.26 43.875 1320.71 42.325C1319.16 40.775 1317.27 40 1315.03 40C1312.8 40 1310.91 40.775 1309.36 42.325C1307.81 43.875 1307.03 45.7667 1307.03 48C1307.03 50.2333 1307.81 52.125 1309.36 53.675C1310.91 55.225 1312.8 56 1315.03 56ZM1315.13 43.7C1315.55 43.7 1315.91 43.8333 1316.22 44.1C1316.53 44.3667 1316.68 44.7 1316.68 45.1C1316.68 45.4667 1316.57 45.7917 1316.35 46.075C1316.12 46.3583 1315.87 46.625 1315.58 46.875C1315.2 47.2083 1314.86 47.575 1314.57 47.975C1314.28 48.375 1314.13 48.825 1314.13 49.325C1314.13 49.5583 1314.22 49.7542 1314.4 49.9125C1314.57 50.0708 1314.78 50.15 1315.01 50.15C1315.26 50.15 1315.47 50.0667 1315.65 49.9C1315.82 49.7333 1315.93 49.525 1315.98 49.275C1316.05 48.925 1316.2 48.6125 1316.43 48.3375C1316.67 48.0625 1316.92 47.8 1317.18 47.55C1317.57 47.1833 1317.9 46.7833 1318.17 46.35C1318.45 45.9167 1318.58 45.4333 1318.58 44.9C1318.58 44.05 1318.24 43.3542 1317.55 42.8125C1316.86 42.2708 1316.05 42 1315.13 42C1314.5 42 1313.9 42.1333 1313.32 42.4C1312.75 42.6667 1312.31 43.075 1312.01 43.625C1311.89 43.825 1311.86 44.0375 1311.9 44.2625C1311.94 44.4875 1312.05 44.6583 1312.23 44.775C1312.47 44.9083 1312.71 44.95 1312.96 44.9C1313.21 44.85 1313.42 44.7083 1313.58 44.475C1313.77 44.225 1314 44.0333 1314.27 43.9C1314.55 43.7667 1314.83 43.7 1315.13 43.7Z" fill="white"/>
</g>
<rect width="46.1176" height="46.1176" rx="23.0588" transform="matrix(1 0 0 -1 1353.94 71.0588)" fill="white"/>
<path d="M1371.52 44.5995C1371.45 43.9411 1371.14 43.4311 1370.6 43.0695C1370.07 42.7033 1369.39 42.5201 1368.57 42.5201C1367.99 42.5201 1367.48 42.6129 1367.06 42.7983C1366.63 42.9791 1366.3 43.2295 1366.06 43.5494C1365.83 43.8646 1365.72 44.2239 1365.72 44.6273C1365.72 44.9657 1365.79 45.2578 1365.95 45.5035C1366.11 45.7492 1366.33 45.9556 1366.59 46.1225C1366.85 46.2847 1367.13 46.4215 1367.43 46.5328C1367.73 46.6394 1368.02 46.7275 1368.3 46.797L1369.69 47.1587C1370.15 47.2699 1370.61 47.4206 1371.09 47.6107C1371.57 47.8008 1372.01 48.0511 1372.42 48.3618C1372.83 48.6724 1373.16 49.0572 1373.41 49.5162C1373.66 49.9752 1373.79 50.5245 1373.79 51.1643C1373.79 51.971 1373.58 52.6873 1373.16 53.3132C1372.75 53.9391 1372.15 54.4329 1371.36 54.7945C1370.58 55.1561 1369.63 55.3369 1368.52 55.3369C1367.45 55.3369 1366.53 55.1677 1365.75 54.8293C1364.97 54.4908 1364.36 54.011 1363.92 53.3897C1363.48 52.7638 1363.24 52.022 1363.19 51.1643H1365.35C1365.39 51.679 1365.56 52.1078 1365.85 52.4509C1366.14 52.7893 1366.52 53.042 1366.98 53.2089C1367.45 53.3712 1367.95 53.4523 1368.5 53.4523C1369.11 53.4523 1369.65 53.3573 1370.12 53.1672C1370.6 52.9725 1370.98 52.7036 1371.25 52.3605C1371.52 52.0128 1371.66 51.6071 1371.66 51.1435C1371.66 50.7216 1371.54 50.3762 1371.3 50.1073C1371.06 49.8384 1370.74 49.6158 1370.33 49.4397C1369.93 49.2635 1369.47 49.1082 1368.96 48.9737L1367.28 48.5147C1366.14 48.2041 1365.24 47.7475 1364.57 47.1447C1363.91 46.542 1363.57 45.7446 1363.57 44.7525C1363.57 43.9319 1363.8 43.2156 1364.24 42.6036C1364.69 41.9916 1365.29 41.5164 1366.05 41.1779C1366.81 40.8349 1367.67 40.6633 1368.62 40.6633C1369.59 40.6633 1370.44 40.8326 1371.17 41.171C1371.92 41.5094 1372.5 41.9754 1372.93 42.5688C1373.35 43.1576 1373.58 43.8345 1373.6 44.5995H1371.52Z" fill="#005DFF"/>
<path d="M1376.36 40.8581H1378.97L1383.5 51.9293H1383.67L1388.2 40.8581H1390.81V55.1005H1388.76V44.7942H1388.63L1384.43 55.0796H1382.73L1378.53 44.7872H1378.4V55.1005H1376.36V40.8581Z" fill="#005DFF"/>
<circle cx="1377" cy="48" r="26.5" stroke="white" stroke-width="3"/>
</g>
<defs>
<filter id="filter0_d_609_4451" x="0" y="0" width="1448" height="104" filterUnits="userSpaceOnUse" color-interpolation-filters="sRGB">
<feFlood flood-opacity="0" result="BackgroundImageFix"/>
<feColorMatrix in="SourceAlpha" type="matrix" values="0 0 0 0 0 0 0 0 0 0 0 0 0 0 0 0 0 0 127 0" result="hardAlpha"/>
<feOffset dy="4"/>
<feGaussianBlur stdDeviation="2"/>
<feComposite in2="hardAlpha" operator="out"/>
<feColorMatrix type="matrix" values="0 0 0 0 0 0 0 0 0 0 0 0 0 0 0 0 0 0 0.1 0"/>
<feBlend mode="normal" in2="BackgroundImageFix" result="effect1_dropShadow_609_4451"/>
<feBlend mode="normal" in="SourceGraphic" in2="effect1_dropShadow_609_4451" result="shape"/>
</filter>
</defs>
</svg>
