<?xml version="1.0" encoding="UTF-8"?><svg id="uuid-0d17d745-d72f-47fc-bbbb-1baf77972728" xmlns="http://www.w3.org/2000/svg" viewBox="0 0 65.8 70"><path d="M18.5,25.9c-.5,0-.9-.1-1.3-.4-.4-.2-.7-.5-.9-.9-.2-.3-.4-.7-.5-1.2-.1-.4-.2-.8-.2-1.3v-1.3c0-.8-.2-1.3-.5-1.6-.4-.3-.9-.5-1.6-.5v-1.1c.7,0,1.3-.2,1.6-.5.4-.3.5-.9.5-1.6v-1.3c0-.4,0-.9.2-1.3.1-.4.3-.8.5-1.2.2-.3.5-.6.9-.8.4-.2.8-.3,1.3-.3l.2.9c-.4,0-.7,0-.9.3-.2.2-.4.4-.5.6-.1.3-.2.6-.2.9,0,.3,0,.6,0,1v1.3c0,.6-.1,1.2-.4,1.6-.3.5-.7.8-1.3,1.1.6.2,1,.6,1.3,1.1.3.5.4,1,.4,1.6v1.3c0,.3,0,.6,0,1,0,.3.1.6.3.9.1.3.3.5.5.6.2.2.5.3.8.3l-.2.9Z" style="fill:#f8f5ec; stroke-width:0px;"/><path d="M47.4,25c.3,0,.6,0,.8-.3.2-.2.4-.4.5-.6.1-.3.2-.5.3-.9,0-.3,0-.6,0-1v-1.3c0-.4,0-.8.2-1.1.1-.3.3-.7.6-.9s.3-.3.5-.4c.2-.1.4-.2.6-.3-.2,0-.4-.2-.6-.3-.2-.1-.3-.2-.5-.4-.2-.3-.4-.6-.6-.9-.1-.3-.2-.7-.2-1.1v-1.3c0-.3,0-.6,0-1,0-.3-.1-.6-.2-.9-.1-.3-.3-.5-.5-.6-.2-.2-.5-.3-.9-.3l.2-.9c.5,0,.9.1,1.3.3.4.2.7.5.9.8.3.4.5.8.6,1.2.1.4.2.9.2,1.3v1.3c0,.3,0,.6,0,.8,0,.2.2.4.3.6.2.2.4.4.7.5.3.1.7.2,1.1.2v1.1c-.4,0-.7,0-1,.1-.3,0-.5.2-.7.4-.2.2-.3.4-.4.7,0,.3-.1.6-.1.9v1.3c0,.4,0,.8-.2,1.3-.1.4-.3.8-.5,1.2-.2.3-.6.6-.9.9-.4.2-.8.3-1.3.4l-.2-.9Z" style="fill:#f8f5ec; stroke-width:0px;"/><path d="M39.6,34h8.1l11.2-15.6L47.7,2h-8.1l-15.1,32h-7.4l-10.1-15.6L17,2h7.4" style="fill:none; stroke:#89bcd9; stroke-linecap:round; stroke-width:4px;"/><path d="M3.9,67.1c-.6,0-1.1-.1-1.6-.4-.5-.3-.9-.7-1.2-1.2-.3-.5-.4-1.1-.4-1.7s.1-1.3.4-1.7c.3-.5.7-.9,1.2-1.1.5-.3,1.1-.4,1.6-.4s1.2.2,1.7.5c.5.3.9.7,1.2,1.2v.4c-.1,0-.1-7.7-.1-7.7h.8v12.2h-.8v-1.9l.2.4c-.3.5-.7.9-1.2,1.2-.5.3-1.1.5-1.8.5ZM4.1,66.5c.5,0,.9-.1,1.3-.3.4-.2.7-.5.9-.8.2-.4.4-.8.4-1.2v-.8c0-.4-.2-.8-.5-1.1s-.6-.6-.9-.8c-.4-.2-.8-.3-1.2-.3s-.9.1-1.3.3c-.4.2-.7.5-.9.9-.2.4-.4.9-.4,1.4s.1.9.4,1.3c.2.4.5.7.9,1,.4.2.8.4,1.3.4ZM13,67.1c-.7,0-1.2-.1-1.7-.4-.5-.3-.9-.7-1.2-1.2-.3-.5-.4-1.1-.4-1.7s.1-1.2.4-1.7c.3-.5.7-.9,1.2-1.2.5-.3,1.1-.4,1.7-.4s1.4.2,1.9.7c.5.4.9,1,1.1,1.7l-5.5,2.1-.2-.5,5-2-.2.2c-.2-.4-.5-.8-.8-1.1-.4-.3-.8-.5-1.3-.5s-.9.1-1.3.4-.7.5-.9.9c-.2.4-.3.8-.3,1.3s.1.9.3,1.3c.2.4.5.7.9,1,.4.2.8.4,1.4.4s.7,0,1-.2c.3-.1.6-.3.8-.5l.4.5c-.3.2-.6.4-1,.6-.4.1-.8.2-1.2.2ZM20.1,67.2l-3.2-6.5h.9l2.6,5.7h-.5s2.5-5.7,2.5-5.7h.8l-3.1,6.5h0ZM27.9,67.1c-.7,0-1.2-.1-1.7-.4-.5-.3-.9-.7-1.2-1.2-.3-.5-.4-1.1-.4-1.7s.1-1.2.4-1.7c.3-.5.7-.9,1.2-1.2.5-.3,1.1-.4,1.7-.4s1.4.2,1.9.7c.5.4.9,1,1.1,1.7l-5.5,2.1-.2-.5,5-2-.2.2c-.2-.4-.5-.8-.8-1.1-.4-.3-.8-.5-1.3-.5s-.9.1-1.3.4c-.4.2-.7.5-.9.9-.2.4-.3.8-.3,1.3s.1.9.3,1.3c.2.4.5.7.9,1,.4.2.8.4,1.4.4s.7,0,1-.2c.3-.1.6-.3.8-.5l.4.5c-.3.2-.6.4-1,.6-.4.1-.8.2-1.2.2ZM32.9,54.8h.8v12.2h-.8v-12.2ZM35.9,63.8c0-.6.1-1.2.4-1.7.3-.5.7-.9,1.2-1.2.5-.3,1.1-.4,1.7-.4s1.2.1,1.7.4c.5.3.9.7,1.2,1.2.3.5.4,1.1.4,1.7s-.1,1.2-.4,1.7c-.3.5-.7.9-1.2,1.2-.5.3-1.1.4-1.7.4s-1.2-.1-1.7-.4c-.5-.3-.9-.7-1.2-1.2-.3-.5-.4-1.1-.4-1.7ZM36.7,63.8c0,.5.1.9.3,1.3.2.4.5.7.9.9.4.2.8.4,1.3.4s.9-.1,1.3-.4c.4-.2.7-.5.9-.9.2-.4.4-.9.4-1.3s-.1-.9-.4-1.3c-.2-.4-.5-.7-.9-1-.4-.2-.8-.4-1.3-.4s-.9.1-1.3.4c-.4.2-.7.6-.9,1-.2.4-.3.8-.3,1.3ZM48.3,67.1c-.6,0-1.2-.2-1.7-.5-.5-.3-.9-.7-1.2-1.2v-.3c.1,0,.1,4.8.1,4.8h-.8v-9.3h.7v2c0,0,0-.5,0-.5.3-.5.7-.9,1.2-1.2.5-.3,1.1-.5,1.7-.5s1.1.1,1.6.4c.5.3.9.7,1.1,1.2.3.5.4,1.1.4,1.7s-.1,1.2-.4,1.7c-.3.5-.7.9-1.2,1.2-.5.3-1,.4-1.7.4ZM48.2,66.5c.5,0,.9-.1,1.3-.4.4-.2.7-.5,1-.9.2-.4.4-.9.4-1.3s-.1-.9-.4-1.3c-.2-.4-.5-.7-.9-1-.4-.2-.8-.4-1.3-.4s-.9.1-1.3.3c-.4.2-.7.5-.9.9-.2.4-.4.8-.4,1.2v.5c0,.4.2.8.4,1.2.2.4.6.7.9.9.4.2.8.3,1.2.3ZM56.5,67.1c-.7,0-1.2-.1-1.7-.4s-.9-.7-1.2-1.2c-.3-.5-.4-1.1-.4-1.7s.1-1.2.4-1.7c.3-.5.7-.9,1.2-1.2.5-.3,1.1-.4,1.7-.4s1.4.2,1.9.7c.5.4.9,1,1.1,1.7l-5.5,2.1-.2-.5,5-2-.2.2c-.2-.4-.5-.8-.8-1.1-.4-.3-.8-.5-1.3-.5s-.9.1-1.3.4c-.4.2-.7.5-.9.9-.2.4-.3.8-.3,1.3s.1.9.3,1.3c.2.4.5.7.9,1,.4.2.8.4,1.4.4s.7,0,1-.2c.3-.1.6-.3.8-.5l.4.5c-.3.2-.6.4-1,.6-.4.1-.8.2-1.2.2ZM62.3,60.7v1.9c0,0,0-.2,0-.2.1-.4.4-.7.7-1,.3-.3.6-.5,1-.6.4-.1.7-.2,1.1-.2v.7c-.5,0-.9.1-1.3.3-.4.2-.7.5-.9.9-.2.4-.3.8-.3,1.2v3.3h-.8v-6.3h.7Z" style="fill:#89bcd9; stroke-width:0px;"/><path d="M3.4,42.8h3.7c.4,0,.7,0,1,.3s.5.4.7.7c.2.3.3.6.3,1v3.1c0,.4,0,.7-.3,1s-.4.5-.7.7c-.3.2-.6.3-1,.3h-3.7v-6.9ZM7.1,48.7c.3,0,.5,0,.7-.3s.3-.4.3-.6v-3c0-.3,0-.5-.3-.7-.2-.2-.4-.3-.7-.3h-2.7v4.9h2.7Z" style="fill:#f8f5ec; stroke-width:0px;"/><path d="M10.2,49.1c0-.2,0-.3.2-.4s.3-.2.4-.2.3,0,.5.2c.1.1.2.3.2.5s0,.3-.2.5c-.1.1-.3.2-.5.2s-.3,0-.4-.2-.2-.3-.2-.4Z" style="fill:#f8f5ec; stroke-width:0px;"/><path d="M12.7,42.8h5.4v1h-4.4v4.9h4.4v1h-5.4v-6.9ZM14.4,45.6h3.8v1h-3.8v-1Z" style="fill:#f8f5ec; stroke-width:0px;"/><path d="M19.2,43.3c0-.2,0-.3.2-.4s.3-.2.4-.2.3,0,.4.2.2.3.2.4,0,.3-.2.4-.3.2-.4.2-.3,0-.4-.2-.2-.3-.2-.4ZM19.3,44.7h1v5.1h-1v-5.1Z" style="fill:#f8f5ec; stroke-width:0px;"/><path d="M21.5,46.1c0-.3,0-.5.2-.7s.3-.4.5-.5.5-.2.7-.2h3v1h-3c-.1,0-.2,0-.3.1,0,0-.1.2-.1.3h0c0,.2,0,.3.1.4s.2.1.3.1h1.8c.3,0,.5,0,.7.2.2.1.4.3.5.5s.2.5.2.7v.3c0,.3,0,.5-.2.7-.1.2-.3.4-.5.5-.2.1-.5.2-.7.2h-3.1v-1h3.1c.1,0,.2,0,.3-.1s.1-.2.1-.3v-.3c0-.1,0-.2-.1-.3s-.2-.1-.3-.1h-1.8c-.3,0-.5,0-.7-.2-.2-.1-.4-.3-.5-.5-.1-.2-.2-.5-.2-.7h0Z" style="fill:#f8f5ec; stroke-width:0px;"/><path d="M27.3,45.7c0-.3.1-.5.3-.7.2-.2.5-.3.8-.3h2.1c.3,0,.5,0,.7.2.2.1.4.3.5.5.1.2.2.5.2.7h0c0,.4,0,.7-.2.9-.1.2-.3.4-.5.5-.2.1-.5.2-.7.2h-1.6v-1h1.6c.1,0,.2,0,.3-.1s.1-.2.1-.3h0c0-.3,0-.4-.1-.4s-.2-.1-.3-.1h-2.2v2.6c0,.1,0,.2.1.3s.2.1.3.1h2.9v1h-2.9c-.3,0-.5,0-.7-.2-.2-.1-.4-.3-.5-.5-.1-.2-.2-.5-.2-.7v-2.6Z" style="fill:#f8f5ec; stroke-width:0px;"/><path d="M33.1,45.7c0-.3.1-.5.3-.7.2-.2.4-.3.7-.3h1.8c.3,0,.6,0,.9.2.3.2.5.4.7.7.2.3.2.6.2.9v3.2h-1v-3.2c0-.2,0-.4-.2-.6-.2-.2-.3-.2-.6-.2h-1.8v4h-1v-4Z" style="fill:#f8f5ec; stroke-width:0px;"/><path d="M38.9,42.8h1v5.9h1.8c.2,0,.4,0,.6-.2.2-.2.2-.3.2-.6v-1.4c0-.2,0-.4-.2-.6-.2-.2-.3-.2-.6-.2h-1.2v-1h1.2c.3,0,.6,0,.9.2.3.2.5.4.7.7.2.3.2.6.2.9v1.4c0,.3,0,.6-.2.9-.2.3-.4.5-.7.7-.3.2-.6.2-.9.2h-1.8c-.3,0-.5-.1-.7-.3s-.3-.4-.3-.7v-5.9Z" style="fill:#f8f5ec; stroke-width:0px;"/><path d="M44.6,46.5c0-.3,0-.6.2-.9.2-.3.4-.5.7-.7.3-.2.6-.2.9-.2h2.8v5.1h-1v-4h-1.8c-.2,0-.4,0-.6.2-.2.2-.2.3-.2.6v1.4c0,.2,0,.4.2.6.2.2.3.2.6.2h1.2v1h-1.2c-.3,0-.6,0-.9-.2-.3-.2-.5-.4-.7-.7-.2-.3-.2-.6-.2-.9v-1.4Z" style="fill:#f8f5ec; stroke-width:0px;"/><path d="M50.5,46.1c0-.3,0-.5.2-.7.1-.2.3-.4.5-.5.2-.1.5-.2.7-.2h1.1v1h-1.1c-.1,0-.2,0-.3.1,0,0-.1.2-.1.3v3.6h-1v-3.6Z" style="fill:#f8f5ec; stroke-width:0px;"/><path d="M53.7,44.7h.7v-1.9h1v1.9h1.6v1h-1.6v2.6c0,.1,0,.2.1.3,0,0,.2.1.3.1h1.1v1h-1.1c-.3,0-.5,0-.7-.2-.2-.1-.4-.3-.5-.5-.1-.2-.2-.5-.2-.7v-2.6h-.7v-1Z" style="fill:#f8f5ec; stroke-width:0px;"/><path d="M57.9,42.8h1v1.9h1.6c.4,0,.7,0,1,.2.3.2.5.4.7.7.2.3.3.6.3.9v3.2h-1v-3.2c0-.2,0-.4-.3-.6-.2-.2-.4-.2-.6-.2h-1.6v4h-1v-6.9Z" style="fill:#f8f5ec; stroke-width:0px;"/></svg>