<svg width="186" height="40" viewBox="0 0 186 40" fill="none" xmlns="http://www.w3.org/2000/svg">
<path d="M51 9H33C31.8954 9 31 9.89648 31 11.001C31 11.0294 31 11.0493 31 11.0592V29.0592C31 30.1311 31.87 31 32.9419 31C32.9701 31 32.99 31 33 31H51C51.01 31 51.0299 31 51.0581 31C52.13 31 53 30.1311 53 29.0592V11.0591C53 11.0493 53 11.0294 53 11.001C53 9.89648 52.1046 9 51 9ZM44 29.0592H33V21.0591H44V29.0592ZM44 19.0591H33V11.0592L44 11.0591V19.0591ZM51 29.0592H46V11.0592H51V29.0592Z" fill="#42526E"/>
<path d="M70.0078 23.4609C70.0078 24.138 69.8385 24.7161 69.5 25.1953C69.1667 25.6693 68.6979 26.0312 68.0938 26.2812C67.4896 26.5312 66.7786 26.6562 65.9609 26.6562C65.5286 26.6562 65.1198 26.6354 64.7344 26.5938C64.349 26.5521 63.9948 26.4922 63.6719 26.4141C63.349 26.3359 63.0651 26.2396 62.8203 26.125V24.8516C63.2109 25.013 63.6875 25.1641 64.25 25.3047C64.8125 25.4401 65.401 25.5078 66.0156 25.5078C66.5885 25.5078 67.0729 25.4323 67.4688 25.2812C67.8646 25.125 68.1641 24.9036 68.3672 24.6172C68.5755 24.3255 68.6797 23.9766 68.6797 23.5703C68.6797 23.1797 68.5938 22.8542 68.4219 22.5938C68.25 22.3281 67.9635 22.0885 67.5625 21.875C67.1667 21.6562 66.625 21.4245 65.9375 21.1797C65.4531 21.0078 65.026 20.8203 64.6562 20.6172C64.2865 20.4089 63.9766 20.1745 63.7266 19.9141C63.4766 19.6536 63.2865 19.3516 63.1562 19.0078C63.0312 18.6641 62.9688 18.2708 62.9688 17.8281C62.9688 17.2188 63.1224 16.6979 63.4297 16.2656C63.7422 15.8281 64.1719 15.4948 64.7188 15.2656C65.2708 15.0312 65.9036 14.9141 66.6172 14.9141C67.2266 14.9141 67.7891 14.9714 68.3047 15.0859C68.8255 15.2005 69.3021 15.3542 69.7344 15.5469L69.3203 16.6875C68.9089 16.5156 68.4714 16.3724 68.0078 16.2578C67.5495 16.1432 67.0755 16.0859 66.5859 16.0859C66.0964 16.0859 65.6823 16.1589 65.3438 16.3047C65.0104 16.4453 64.7552 16.6458 64.5781 16.9062C64.401 17.1667 64.3125 17.4766 64.3125 17.8359C64.3125 18.237 64.3958 18.5703 64.5625 18.8359C64.7344 19.1016 65.0052 19.3385 65.375 19.5469C65.75 19.75 66.2448 19.9635 66.8594 20.1875C67.5312 20.4323 68.1016 20.6927 68.5703 20.9688C69.0391 21.2396 69.3958 21.5729 69.6406 21.9688C69.8854 22.3594 70.0078 22.8568 70.0078 23.4609ZM79.2188 17.9375V26.5H78.1562L77.9688 25.2969H77.8984C77.7214 25.5938 77.4922 25.8438 77.2109 26.0469C76.9297 26.25 76.612 26.401 76.2578 26.5C75.9089 26.6042 75.5365 26.6562 75.1406 26.6562C74.4635 26.6562 73.8958 26.5469 73.4375 26.3281C72.9792 26.1094 72.6328 25.7708 72.3984 25.3125C72.1693 24.8542 72.0547 24.2656 72.0547 23.5469V17.9375H73.3672V23.4531C73.3672 24.1667 73.5286 24.7005 73.8516 25.0547C74.1745 25.4036 74.6667 25.5781 75.3281 25.5781C75.9635 25.5781 76.4688 25.4583 76.8438 25.2188C77.224 24.9792 77.4974 24.6276 77.6641 24.1641C77.8307 23.6953 77.9141 23.1224 77.9141 22.4453V17.9375H79.2188ZM91.2578 17.7812C92.2005 17.7812 92.9115 18.0286 93.3906 18.5234C93.8698 19.013 94.1094 19.8021 94.1094 20.8906V26.5H92.8281V20.9531C92.8281 20.2604 92.6771 19.7422 92.375 19.3984C92.0781 19.0495 91.6354 18.875 91.0469 18.875C90.2188 18.875 89.6172 19.1146 89.2422 19.5938C88.8672 20.0729 88.6797 20.7786 88.6797 21.7109V26.5H87.3906V20.9531C87.3906 20.4896 87.3229 20.1042 87.1875 19.7969C87.0573 19.4896 86.8594 19.2604 86.5938 19.1094C86.3333 18.9531 86.0026 18.875 85.6016 18.875C85.0339 18.875 84.5781 18.9922 84.2344 19.2266C83.8906 19.4609 83.6406 19.8099 83.4844 20.2734C83.3333 20.7318 83.2578 21.2969 83.2578 21.9688V26.5H81.9609V17.9375H83.0078L83.2031 19.1484H83.2734C83.4453 18.8516 83.6615 18.6016 83.9219 18.3984C84.1823 18.1953 84.474 18.0417 84.7969 17.9375C85.1198 17.8333 85.4635 17.7812 85.8281 17.7812C86.4792 17.7812 87.0234 17.9036 87.4609 18.1484C87.9036 18.388 88.224 18.7552 88.4219 19.25H88.4922C88.7734 18.7552 89.1589 18.388 89.6484 18.1484C90.138 17.9036 90.6745 17.7812 91.2578 17.7812ZM106.07 17.7812C107.013 17.7812 107.724 18.0286 108.203 18.5234C108.682 19.013 108.922 19.8021 108.922 20.8906V26.5H107.641V20.9531C107.641 20.2604 107.49 19.7422 107.188 19.3984C106.891 19.0495 106.448 18.875 105.859 18.875C105.031 18.875 104.43 19.1146 104.055 19.5938C103.68 20.0729 103.492 20.7786 103.492 21.7109V26.5H102.203V20.9531C102.203 20.4896 102.135 20.1042 102 19.7969C101.87 19.4896 101.672 19.2604 101.406 19.1094C101.146 18.9531 100.815 18.875 100.414 18.875C99.8464 18.875 99.3906 18.9922 99.0469 19.2266C98.7031 19.4609 98.4531 19.8099 98.2969 20.2734C98.1458 20.7318 98.0703 21.2969 98.0703 21.9688V26.5H96.7734V17.9375H97.8203L98.0156 19.1484H98.0859C98.2578 18.8516 98.474 18.6016 98.7344 18.3984C98.9948 18.1953 99.2865 18.0417 99.6094 17.9375C99.9323 17.8333 100.276 17.7812 100.641 17.7812C101.292 17.7812 101.836 17.9036 102.273 18.1484C102.716 18.388 103.036 18.7552 103.234 19.25H103.305C103.586 18.7552 103.971 18.388 104.461 18.1484C104.951 17.9036 105.487 17.7812 106.07 17.7812ZM114.789 17.7969C115.81 17.7969 116.568 18.026 117.062 18.4844C117.557 18.9427 117.805 19.6745 117.805 20.6797V26.5H116.859L116.609 25.2344H116.547C116.307 25.5469 116.057 25.8099 115.797 26.0234C115.536 26.2318 115.234 26.3906 114.891 26.5C114.552 26.6042 114.135 26.6562 113.641 26.6562C113.12 26.6562 112.656 26.5651 112.25 26.3828C111.849 26.2005 111.531 25.9245 111.297 25.5547C111.068 25.1849 110.953 24.7161 110.953 24.1484C110.953 23.2943 111.292 22.638 111.969 22.1797C112.646 21.7214 113.677 21.4714 115.062 21.4297L116.539 21.3672V20.8438C116.539 20.1042 116.38 19.5859 116.062 19.2891C115.745 18.9922 115.297 18.8438 114.719 18.8438C114.271 18.8438 113.844 18.9089 113.438 19.0391C113.031 19.1693 112.646 19.3229 112.281 19.5L111.883 18.5156C112.268 18.3177 112.711 18.1484 113.211 18.0078C113.711 17.8672 114.237 17.7969 114.789 17.7969ZM116.523 22.2812L115.219 22.3359C114.151 22.3776 113.398 22.5521 112.961 22.8594C112.523 23.1667 112.305 23.6016 112.305 24.1641C112.305 24.6536 112.453 25.0156 112.75 25.25C113.047 25.4844 113.44 25.6016 113.93 25.6016C114.69 25.6016 115.312 25.3906 115.797 24.9688C116.281 24.5469 116.523 23.9141 116.523 23.0703V22.2812ZM124.367 17.7812C124.539 17.7812 124.719 17.7917 124.906 17.8125C125.094 17.8281 125.26 17.8516 125.406 17.8828L125.242 19.0859C125.102 19.0495 124.945 19.0208 124.773 19C124.602 18.9792 124.44 18.9688 124.289 18.9688C123.945 18.9688 123.62 19.0391 123.312 19.1797C123.01 19.3151 122.745 19.513 122.516 19.7734C122.286 20.0286 122.107 20.3385 121.977 20.7031C121.846 21.0625 121.781 21.4635 121.781 21.9062V26.5H120.477V17.9375H121.555L121.695 19.5156H121.75C121.927 19.1979 122.141 18.9089 122.391 18.6484C122.641 18.3828 122.93 18.1719 123.258 18.0156C123.591 17.8594 123.961 17.7812 124.367 17.7812ZM125.672 17.9375H127.062L128.953 22.9062C129.062 23.1979 129.164 23.4792 129.258 23.75C129.352 24.0156 129.435 24.2708 129.508 24.5156C129.581 24.7604 129.638 24.9974 129.68 25.2266H129.734C129.807 24.9661 129.911 24.625 130.047 24.2031C130.182 23.776 130.328 23.3411 130.484 22.8984L132.273 17.9375H133.672L129.945 27.7578C129.747 28.2839 129.516 28.7422 129.25 29.1328C128.99 29.5234 128.672 29.8229 128.297 30.0312C127.922 30.2448 127.469 30.3516 126.938 30.3516C126.693 30.3516 126.477 30.3359 126.289 30.3047C126.102 30.2786 125.94 30.2474 125.805 30.2109V29.1719C125.919 29.1979 126.057 29.2214 126.219 29.2422C126.385 29.263 126.557 29.2734 126.734 29.2734C127.057 29.2734 127.336 29.2109 127.57 29.0859C127.81 28.9661 128.016 28.7891 128.188 28.5547C128.359 28.3203 128.508 28.0417 128.633 27.7188L129.102 26.5156L125.672 17.9375Z" fill="#42526E"/>
</svg>
