<svg width="32" height="33" viewBox="0 0 32 33" fill="none" xmlns="http://www.w3.org/2000/svg">
<mask id="mask0_18746_6373" style="mask-type:alpha" maskUnits="userSpaceOnUse" x="0" y="0" width="32" height="33">
<rect y="0.46582" width="32" height="32" fill="#D9D9D9"/>
</mask>
<g mask="url(#mask0_18746_6373)">
<path d="M15.94 23.6658C16.36 23.6658 16.715 23.5208 17.005 23.2308C17.295 22.9408 17.44 22.5858 17.44 22.1658C17.44 21.7458 17.295 21.3908 17.005 21.1008C16.715 20.8108 16.36 20.6658 15.94 20.6658C15.52 20.6658 15.165 20.8108 14.875 21.1008C14.585 21.3908 14.44 21.7458 14.44 22.1658C14.44 22.5858 14.585 22.9408 14.875 23.2308C15.165 23.5208 15.52 23.6658 15.94 23.6658ZM16 28.4658C14.34 28.4658 12.78 28.1508 11.32 27.5208C9.86 26.8908 8.59 26.0358 7.51 24.9558C6.43 23.8758 5.575 22.6058 4.945 21.1458C4.315 19.6858 4 18.1258 4 16.4658C4 14.8058 4.315 13.2458 4.945 11.7858C5.575 10.3258 6.43 9.05582 7.51 7.97582C8.59 6.89582 9.86 6.04082 11.32 5.41082C12.78 4.78082 14.34 4.46582 16 4.46582C17.66 4.46582 19.22 4.78082 20.68 5.41082C22.14 6.04082 23.41 6.89582 24.49 7.97582C25.57 9.05582 26.425 10.3258 27.055 11.7858C27.685 13.2458 28 14.8058 28 16.4658C28 18.1258 27.685 19.6858 27.055 21.1458C26.425 22.6058 25.57 23.8758 24.49 24.9558C23.41 26.0358 22.14 26.8908 20.68 27.5208C19.22 28.1508 17.66 28.4658 16 28.4658ZM16 26.0658C18.68 26.0658 20.95 25.1358 22.81 23.2758C24.67 21.4158 25.6 19.1458 25.6 16.4658C25.6 13.7858 24.67 11.5158 22.81 9.65582C20.95 7.79582 18.68 6.86582 16 6.86582C13.32 6.86582 11.05 7.79582 9.19 9.65582C7.33 11.5158 6.4 13.7858 6.4 16.4658C6.4 19.1458 7.33 21.4158 9.19 23.2758C11.05 25.1358 13.32 26.0658 16 26.0658ZM16.12 11.3058C16.62 11.3058 17.055 11.4658 17.425 11.7858C17.795 12.1058 17.98 12.5058 17.98 12.9858C17.98 13.4258 17.845 13.8158 17.575 14.1558C17.305 14.4958 17 14.8158 16.66 15.1158C16.2 15.5158 15.795 15.9558 15.445 16.4358C15.095 16.9158 14.92 17.4558 14.92 18.0558C14.92 18.3358 15.025 18.5708 15.235 18.7608C15.445 18.9508 15.69 19.0458 15.97 19.0458C16.27 19.0458 16.525 18.9458 16.735 18.7458C16.945 18.5458 17.08 18.2958 17.14 17.9958C17.22 17.5758 17.4 17.2008 17.68 16.8708C17.96 16.5408 18.26 16.2258 18.58 15.9258C19.04 15.4858 19.435 15.0058 19.765 14.4858C20.095 13.9658 20.26 13.3858 20.26 12.7458C20.26 11.7258 19.845 10.8908 19.015 10.2408C18.185 9.59082 17.22 9.26582 16.12 9.26582C15.36 9.26582 14.635 9.42582 13.945 9.74582C13.255 10.0658 12.73 10.5558 12.37 11.2158C12.23 11.4558 12.185 11.7108 12.235 11.9808C12.285 12.2508 12.42 12.4558 12.64 12.5958C12.92 12.7558 13.21 12.8058 13.51 12.7458C13.81 12.6858 14.06 12.5158 14.26 12.2358C14.48 11.9358 14.755 11.7058 15.085 11.5458C15.415 11.3858 15.76 11.3058 16.12 11.3058Z" fill="white"/>
</g>
</svg>
