<svg width="32" height="33" viewBox="0 0 32 33" fill="none" xmlns="http://www.w3.org/2000/svg">
<mask id="mask0_18746_6371" style="mask-type:alpha" maskUnits="userSpaceOnUse" x="0" y="0" width="32" height="33">
<rect y="0.46582" width="32" height="32" fill="#D9D9D9"/>
</mask>
<g mask="url(#mask0_18746_6371)">
<path d="M15.95 22.4658C16.3 22.4658 16.5958 22.345 16.8375 22.1033C17.0792 21.8617 17.2 21.5658 17.2 21.2158C17.2 20.8658 17.0792 20.57 16.8375 20.3283C16.5958 20.0867 16.3 19.9658 15.95 19.9658C15.6 19.9658 15.3042 20.0867 15.0625 20.3283C14.8208 20.57 14.7 20.8658 14.7 21.2158C14.7 21.5658 14.8208 21.8617 15.0625 22.1033C15.3042 22.345 15.6 22.4658 15.95 22.4658ZM16 26.4658C14.6167 26.4658 13.3167 26.2033 12.1 25.6783C10.8833 25.1533 9.825 24.4408 8.925 23.5408C8.025 22.6408 7.3125 21.5825 6.7875 20.3658C6.2625 19.1492 6 17.8492 6 16.4658C6 15.0825 6.2625 13.7825 6.7875 12.5658C7.3125 11.3492 8.025 10.2908 8.925 9.39082C9.825 8.49082 10.8833 7.77832 12.1 7.25332C13.3167 6.72832 14.6167 6.46582 16 6.46582C17.3833 6.46582 18.6833 6.72832 19.9 7.25332C21.1167 7.77832 22.175 8.49082 23.075 9.39082C23.975 10.2908 24.6875 11.3492 25.2125 12.5658C25.7375 13.7825 26 15.0825 26 16.4658C26 17.8492 25.7375 19.1492 25.2125 20.3658C24.6875 21.5825 23.975 22.6408 23.075 23.5408C22.175 24.4408 21.1167 25.1533 19.9 25.6783C18.6833 26.2033 17.3833 26.4658 16 26.4658ZM16 24.4658C18.2333 24.4658 20.125 23.6908 21.675 22.1408C23.225 20.5908 24 18.6992 24 16.4658C24 14.2325 23.225 12.3408 21.675 10.7908C20.125 9.24082 18.2333 8.46582 16 8.46582C13.7667 8.46582 11.875 9.24082 10.325 10.7908C8.775 12.3408 8 14.2325 8 16.4658C8 18.6992 8.775 20.5908 10.325 22.1408C11.875 23.6908 13.7667 24.4658 16 24.4658ZM16.1 12.1658C16.5167 12.1658 16.8792 12.2992 17.1875 12.5658C17.4958 12.8325 17.65 13.1658 17.65 13.5658C17.65 13.9325 17.5375 14.2575 17.3125 14.5408C17.0875 14.8242 16.8333 15.0908 16.55 15.3408C16.1667 15.6742 15.8292 16.0408 15.5375 16.4408C15.2458 16.8408 15.1 17.2908 15.1 17.7908C15.1 18.0242 15.1875 18.22 15.3625 18.3783C15.5375 18.5367 15.7417 18.6158 15.975 18.6158C16.225 18.6158 16.4375 18.5325 16.6125 18.3658C16.7875 18.1992 16.9 17.9908 16.95 17.7408C17.0167 17.3908 17.1667 17.0783 17.4 16.8033C17.6333 16.5283 17.8833 16.2658 18.15 16.0158C18.5333 15.6492 18.8625 15.2492 19.1375 14.8158C19.4125 14.3825 19.55 13.8992 19.55 13.3658C19.55 12.5158 19.2042 11.82 18.5125 11.2783C17.8208 10.7367 17.0167 10.4658 16.1 10.4658C15.4667 10.4658 14.8625 10.5992 14.2875 10.8658C13.7125 11.1325 13.275 11.5408 12.975 12.0908C12.8583 12.2908 12.8208 12.5033 12.8625 12.7283C12.9042 12.9533 13.0167 13.1242 13.2 13.2408C13.4333 13.3742 13.675 13.4158 13.925 13.3658C14.175 13.3158 14.3833 13.1742 14.55 12.9408C14.7333 12.6908 14.9625 12.4992 15.2375 12.3658C15.5125 12.2325 15.8 12.1658 16.1 12.1658Z" fill="white"/>
</g>
</svg>
