<svg width="25" height="25" viewBox="0 0 25 25" fill="none" xmlns="http://www.w3.org/2000/svg">
<mask id="mask0_19053_6886" style="mask-type:alpha" maskUnits="userSpaceOnUse" x="0" y="0" width="25" height="25">
<rect x="0.499512" y="0.5" width="24" height="24" fill="#D9D9D9"/>
</mask>
<g mask="url(#mask0_19053_6886)">
<path d="M20.4495 21.5C18.3662 21.5 16.3078 21.0458 14.2745 20.1375C12.2412 19.2292 10.3912 17.9417 8.72451 16.275C7.05785 14.6083 5.77035 12.7583 4.86201 10.725C3.95368 8.69167 3.49951 6.63333 3.49951 4.55C3.49951 4.25 3.59951 4 3.79951 3.8C3.99951 3.6 4.24951 3.5 4.54951 3.5H8.59951C8.83284 3.5 9.04118 3.57917 9.22451 3.7375C9.40785 3.89583 9.51618 4.08333 9.54951 4.3L10.1995 7.8C10.2328 8.06667 10.2245 8.29167 10.1745 8.475C10.1245 8.65833 10.0328 8.81667 9.89951 8.95L7.47451 11.4C7.80785 12.0167 8.20368 12.6125 8.66201 13.1875C9.12035 13.7625 9.62451 14.3167 10.1745 14.85C10.6912 15.3667 11.2328 15.8458 11.7995 16.2875C12.3662 16.7292 12.9662 17.1333 13.5995 17.5L15.9495 15.15C16.0995 15 16.2953 14.8875 16.537 14.8125C16.7787 14.7375 17.0162 14.7167 17.2495 14.75L20.6995 15.45C20.9328 15.5167 21.1245 15.6375 21.2745 15.8125C21.4245 15.9875 21.4995 16.1833 21.4995 16.4V20.45C21.4995 20.75 21.3995 21 21.1995 21.2C20.9995 21.4 20.7495 21.5 20.4495 21.5ZM6.52451 9.5L8.17451 7.85L7.74951 5.5H5.52451C5.60785 6.18333 5.72451 6.85833 5.87451 7.525C6.02451 8.19167 6.24118 8.85 6.52451 9.5ZM15.4745 18.45C16.1245 18.7333 16.787 18.9583 17.462 19.125C18.137 19.2917 18.8162 19.4 19.4995 19.45V17.25L17.1495 16.775L15.4745 18.45Z" fill="#A8A8A8"/>
</g>
</svg>
