<svg width="25" height="24" viewBox="0 0 25 24" fill="none" xmlns="http://www.w3.org/2000/svg">
<mask id="mask0_19013_6130" style="mask-type:alpha" maskUnits="userSpaceOnUse" x="0" y="0" width="25" height="24">
<rect x="0.499512" width="24" height="24" fill="#D9D9D9"/>
</mask>
<g mask="url(#mask0_19013_6130)">
<path d="M4.49951 20C3.94951 20 3.47868 19.8042 3.08701 19.4125C2.69535 19.0208 2.49951 18.55 2.49951 18V6C2.49951 5.45 2.69535 4.97917 3.08701 4.5875C3.47868 4.19583 3.94951 4 4.49951 4H20.4995C21.0495 4 21.5203 4.19583 21.912 4.5875C22.3037 4.97917 22.4995 5.45 22.4995 6V18C22.4995 18.55 22.3037 19.0208 21.912 19.4125C21.5203 19.8042 21.0495 20 20.4995 20H4.49951ZM20.4995 8L13.0245 12.675C12.9412 12.725 12.8537 12.7625 12.762 12.7875C12.6703 12.8125 12.5828 12.825 12.4995 12.825C12.4162 12.825 12.3287 12.8125 12.237 12.7875C12.1453 12.7625 12.0578 12.725 11.9745 12.675L4.49951 8V18H20.4995V8ZM12.4995 11L20.4995 6H4.49951L12.4995 11ZM4.49951 8.25V6.775V6.8V6.7875V8.25Z" fill="#A8A8A8"/>
</g>
</svg>
