<svg width="25" height="24" viewBox="0 0 25 24" fill="none" xmlns="http://www.w3.org/2000/svg">
<mask id="mask0_18168_6670" style="mask-type:alpha" maskUnits="userSpaceOnUse" x="0" y="0" width="25" height="24">
<rect x="0.499512" width="24" height="24" fill="#D9D9D9"/>
</mask>
<g mask="url(#mask0_18168_6670)">
<path d="M5.49951 19H6.89951L15.5245 10.375L14.1245 8.975L5.49951 17.6V19ZM19.7995 8.925L15.5495 4.725L16.9495 3.325C17.3328 2.94167 17.8037 2.75 18.362 2.75C18.9203 2.75 19.3912 2.94167 19.7745 3.325L21.1745 4.725C21.5578 5.10833 21.7578 5.57083 21.7745 6.1125C21.7912 6.65417 21.6078 7.11667 21.2245 7.5L19.7995 8.925ZM18.3495 10.4L7.74951 21H3.49951V16.75L14.0995 6.15L18.3495 10.4Z" fill="#005DFF"/>
</g>
</svg>
