<svg width="25" height="24" viewBox="0 0 25 24" fill="none" xmlns="http://www.w3.org/2000/svg">
<mask id="mask0_19013_6112" style="mask-type:alpha" maskUnits="userSpaceOnUse" x="0" y="0" width="25" height="24">
<rect x="0.499512" width="24" height="24" fill="#D9D9D9"/>
</mask>
<g mask="url(#mask0_19013_6112)">
<path d="M12.4995 12C11.3995 12 10.4578 11.6083 9.67451 10.825C8.89118 10.0417 8.49951 9.1 8.49951 8C8.49951 6.9 8.89118 5.95833 9.67451 5.175C10.4578 4.39167 11.3995 4 12.4995 4C13.5995 4 14.5412 4.39167 15.3245 5.175C16.1078 5.95833 16.4995 6.9 16.4995 8C16.4995 9.1 16.1078 10.0417 15.3245 10.825C14.5412 11.6083 13.5995 12 12.4995 12ZM18.4995 20H6.49951C5.94951 20 5.47868 19.8042 5.08701 19.4125C4.69535 19.0208 4.49951 18.55 4.49951 18V17.2C4.49951 16.6333 4.64535 16.1125 4.93701 15.6375C5.22868 15.1625 5.61618 14.8 6.09951 14.55C7.13284 14.0333 8.18285 13.6458 9.24951 13.3875C10.3162 13.1292 11.3995 13 12.4995 13C13.5995 13 14.6828 13.1292 15.7495 13.3875C16.8162 13.6458 17.8662 14.0333 18.8995 14.55C19.3828 14.8 19.7703 15.1625 20.062 15.6375C20.3537 16.1125 20.4995 16.6333 20.4995 17.2V18C20.4995 18.55 20.3037 19.0208 19.912 19.4125C19.5203 19.8042 19.0495 20 18.4995 20ZM6.49951 18H18.4995V17.2C18.4995 17.0167 18.4537 16.85 18.362 16.7C18.2703 16.55 18.1495 16.4333 17.9995 16.35C17.0995 15.9 16.1912 15.5625 15.2745 15.3375C14.3578 15.1125 13.4328 15 12.4995 15C11.5662 15 10.6412 15.1125 9.72451 15.3375C8.80785 15.5625 7.89951 15.9 6.99951 16.35C6.84951 16.4333 6.72868 16.55 6.63701 16.7C6.54535 16.85 6.49951 17.0167 6.49951 17.2V18ZM12.4995 10C13.0495 10 13.5203 9.80417 13.912 9.4125C14.3037 9.02083 14.4995 8.55 14.4995 8C14.4995 7.45 14.3037 6.97917 13.912 6.5875C13.5203 6.19583 13.0495 6 12.4995 6C11.9495 6 11.4787 6.19583 11.087 6.5875C10.6953 6.97917 10.4995 7.45 10.4995 8C10.4995 8.55 10.6953 9.02083 11.087 9.4125C11.4787 9.80417 11.9495 10 12.4995 10Z" fill="#A8A8A8"/>
</g>
</svg>
