<svg width="32" height="32" viewBox="0 0 32 32" fill="none" xmlns="http://www.w3.org/2000/svg">
<mask id="mask0_18926_11587" style="mask-type:alpha" maskUnits="userSpaceOnUse" x="-1" y="0" width="33" height="32">
<rect x="-0.00195312" width="32" height="32" fill="#D9D9D9"/>
</mask>
<g mask="url(#mask0_18926_11587)">
<path d="M25.3272 18.6667C25.0112 18.6667 24.7477 18.5602 24.5366 18.3473C24.3255 18.1343 24.22 17.8704 24.22 17.5556V14.4445H21.1088C20.794 14.4445 20.5301 14.3376 20.3172 14.1239C20.1042 13.9102 19.9977 13.6454 19.9977 13.3295C19.9977 13.0136 20.1042 12.7501 20.3172 12.5389C20.5301 12.3278 20.794 12.2223 21.1088 12.2223H24.22V9.11115C24.22 8.79635 24.3268 8.53246 24.5405 8.31948C24.7542 8.10653 25.019 8.00005 25.335 8.00005C25.6509 8.00005 25.9144 8.10653 26.1255 8.31948C26.3366 8.53246 26.4422 8.79635 26.4422 9.11115V12.2223H29.5533C29.8681 12.2223 30.132 12.3291 30.345 12.5428C30.5579 12.7566 30.6644 13.0214 30.6644 13.3373C30.6644 13.6532 30.5579 13.9167 30.345 14.1278C30.132 14.3389 29.8681 14.4445 29.5533 14.4445H26.4422V17.5556C26.4422 17.8704 26.3353 18.1343 26.1216 18.3473C25.9079 18.5602 25.6431 18.6667 25.3272 18.6667ZM11.9977 15.9778C10.5311 15.9778 9.31253 15.4926 8.34215 14.5223C7.3718 13.5519 6.88662 12.3334 6.88662 10.8667C6.88662 9.40005 7.3718 8.18154 8.34215 7.21118C9.31253 6.2408 10.5311 5.75562 11.9977 5.75562C13.4644 5.75562 14.6829 6.2408 15.6533 7.21118C16.6236 8.18154 17.1088 9.40005 17.1088 10.8667C17.1088 12.3334 16.6236 13.5519 15.6533 14.5223C14.6829 15.4926 13.4644 15.9778 11.9977 15.9778ZM2.44215 26.6667C2.12735 26.6667 1.86347 26.5602 1.65049 26.3473C1.43753 26.1343 1.33105 25.8704 1.33105 25.5556V23.3334C1.33105 22.563 1.5292 21.8612 1.92549 21.2279C2.3218 20.5945 2.8644 20.1186 3.55329 19.8C5.12367 19.0815 6.57802 18.5649 7.91636 18.25C9.25471 17.9352 10.614 17.7779 11.9941 17.7779C13.3743 17.7779 14.7348 17.9352 16.0755 18.25C17.4162 18.5649 18.8644 19.0815 20.42 19.8C21.1088 20.1334 21.6551 20.613 22.0588 21.2389C22.4625 21.8649 22.6644 22.563 22.6644 23.3334V25.5556C22.6644 25.8704 22.5579 26.1343 22.345 26.3473C22.132 26.5602 21.8681 26.6667 21.5533 26.6667H2.44215ZM3.55325 24.4445H20.4422V23.3334C20.4422 23.0149 20.3626 22.7149 20.2033 22.4334C20.044 22.1519 19.8051 21.9408 19.4866 21.8C18.0496 21.0963 16.7607 20.6204 15.62 20.3723C14.4792 20.1241 13.2718 20 11.9977 20C10.7237 20 9.51624 20.1278 8.37549 20.3834C7.23476 20.6389 5.93847 21.1112 4.48662 21.8C4.19771 21.9408 3.96992 22.1519 3.80325 22.4334C3.63659 22.7149 3.55325 23.0149 3.55325 23.3334V24.4445ZM11.9977 13.7556C12.8199 13.7556 13.507 13.4797 14.0588 12.9278C14.6107 12.376 14.8866 11.6889 14.8866 10.8667C14.8866 10.0445 14.6107 9.35746 14.0588 8.80562C13.507 8.25375 12.8199 7.97782 11.9977 7.97782C11.1755 7.97782 10.4885 8.25375 9.93662 8.80562C9.38475 9.35746 9.10882 10.0445 9.10882 10.8667C9.10882 11.6889 9.38475 12.376 9.93662 12.9278C10.4885 13.4797 11.1755 13.7556 11.9977 13.7556Z" fill="white"/>
</g>
</svg>
