<svg width="25" height="24" viewBox="0 0 25 24" fill="none" xmlns="http://www.w3.org/2000/svg">
<mask id="mask0_18168_6702" style="mask-type:alpha" maskUnits="userSpaceOnUse" x="0" y="0" width="25" height="24">
<rect x="0.499512" width="24" height="24" fill="#D9D9D9"/>
</mask>
<g mask="url(#mask0_18168_6702)">
<path d="M7.49951 21C6.94951 21 6.47868 20.8042 6.08701 20.4125C5.69535 20.0208 5.49951 19.55 5.49951 19V6C5.21618 6 4.97868 5.90417 4.78701 5.7125C4.59535 5.52083 4.49951 5.28333 4.49951 5C4.49951 4.71667 4.59535 4.47917 4.78701 4.2875C4.97868 4.09583 5.21618 4 5.49951 4H9.49951C9.49951 3.71667 9.59535 3.47917 9.78701 3.2875C9.97868 3.09583 10.2162 3 10.4995 3H14.4995C14.7828 3 15.0203 3.09583 15.212 3.2875C15.4037 3.47917 15.4995 3.71667 15.4995 4H19.4995C19.7828 4 20.0203 4.09583 20.212 4.2875C20.4037 4.47917 20.4995 4.71667 20.4995 5C20.4995 5.28333 20.4037 5.52083 20.212 5.7125C20.0203 5.90417 19.7828 6 19.4995 6V19C19.4995 19.55 19.3037 20.0208 18.912 20.4125C18.5203 20.8042 18.0495 21 17.4995 21H7.49951ZM7.49951 6V19H17.4995V6H7.49951ZM9.49951 16C9.49951 16.2833 9.59535 16.5208 9.78701 16.7125C9.97868 16.9042 10.2162 17 10.4995 17C10.7828 17 11.0203 16.9042 11.212 16.7125C11.4037 16.5208 11.4995 16.2833 11.4995 16V9C11.4995 8.71667 11.4037 8.47917 11.212 8.2875C11.0203 8.09583 10.7828 8 10.4995 8C10.2162 8 9.97868 8.09583 9.78701 8.2875C9.59535 8.47917 9.49951 8.71667 9.49951 9V16ZM13.4995 16C13.4995 16.2833 13.5953 16.5208 13.787 16.7125C13.9787 16.9042 14.2162 17 14.4995 17C14.7828 17 15.0203 16.9042 15.212 16.7125C15.4037 16.5208 15.4995 16.2833 15.4995 16V9C15.4995 8.71667 15.4037 8.47917 15.212 8.2875C15.0203 8.09583 14.7828 8 14.4995 8C14.2162 8 13.9787 8.09583 13.787 8.2875C13.5953 8.47917 13.4995 8.71667 13.4995 9V16Z" fill="#005DFF"/>
</g>
</svg>
