<svg width="96" height="54" viewBox="0 0 96 54" fill="none" xmlns="http://www.w3.org/2000/svg">
<path d="M17.9916 18.4426C19.5661 18.4426 20.8425 17.1657 20.8425 15.5905C20.8425 14.0152 19.5661 12.7383 17.9916 12.7383C16.417 12.7383 15.1406 14.0152 15.1406 15.5905C15.1406 17.1657 16.417 18.4426 17.9916 18.4426Z" fill="#F8F5EC"/>
<path d="M33.9861 15.5909C33.9861 13.3509 31.3577 11.403 27.269 10.2344C28.2981 6.10218 27.9365 2.84653 25.9896 1.73348C24.0426 0.606527 21.0526 1.92827 17.993 4.87783C14.9335 1.91435 11.9435 0.606527 9.99652 1.73348C8.38331 2.66566 7.78531 5.03087 8.32768 8.39783C8.42503 8.99609 8.5641 9.60827 8.71708 10.2483C4.62842 11.417 2 13.3648 2 15.6048C2 17.8448 4.62842 19.7787 8.71708 20.9613C8.5641 21.5874 8.42503 22.2135 8.32768 22.8117C7.78531 26.1787 8.38331 28.5439 9.99652 29.4761C10.4694 29.7544 11.0117 29.8935 11.6097 29.8935C13.0282 29.8935 14.7388 29.1144 16.6023 27.5978C17.0613 27.2222 17.5341 26.7909 17.993 26.3457C18.452 26.7909 18.9248 27.2222 19.3837 27.5978C21.2473 29.1144 22.9578 29.8935 24.3764 29.8935C24.9744 29.8935 25.5167 29.7544 25.9896 29.4761C27.6028 28.5439 28.2008 26.1787 27.6723 22.8117C27.575 22.2135 27.4359 21.6013 27.2829 20.9613C31.3716 19.7926 34 17.8448 34 15.6048L33.9861 15.5909ZM25.2942 2.93001C26.5458 3.65348 26.824 6.29696 25.92 9.88653C24.6128 9.58044 23.1804 9.35783 21.6645 9.2187C20.7884 7.98044 19.8705 6.85348 18.9665 5.86566C21.0804 3.82044 23.0413 2.7074 24.3903 2.7074C24.7379 2.7074 25.0439 2.77696 25.3081 2.93001H25.2942ZM22.4572 18.1648C21.9565 19.0135 21.442 19.8483 20.9135 20.6274C19.9817 20.697 19.0083 20.7387 18.007 20.7387C17.0056 20.7387 16.0322 20.697 15.1004 20.6274C14.5719 19.8483 14.0435 19.0135 13.5567 18.1648C13.0561 17.3022 12.611 16.4535 12.1938 15.5909C12.611 14.7283 13.0561 13.8796 13.5567 13.017C14.0574 12.1404 14.5858 11.3196 15.1004 10.5544C16.0322 10.4848 17.0056 10.443 18.007 10.443C19.0083 10.443 19.9817 10.4848 20.9135 10.5544C21.442 11.3196 21.9565 12.1404 22.4572 13.017C22.9439 13.8657 23.4029 14.7283 23.8201 15.5909C23.4168 16.4396 22.9718 17.2883 22.4572 18.1648ZM24.5432 17.2187C24.9326 18.1509 25.2664 19.0552 25.5445 19.9457C24.6545 20.1404 23.6949 20.3213 22.6797 20.4465C23.0135 19.9317 23.3333 19.403 23.6532 18.8604C23.9731 18.3178 24.2651 17.7613 24.5432 17.2187ZM17.993 24.3144C17.3672 23.6326 16.7414 22.8813 16.1295 22.0744C16.7414 22.1022 17.3533 22.1161 17.993 22.1161C18.6328 22.1161 19.2447 22.1022 19.8566 22.0744C19.2447 22.8813 18.6189 23.6187 17.993 24.3144ZM13.3064 20.4465C12.2912 20.3213 11.3316 20.1544 10.4415 19.9457C10.7197 19.0552 11.0535 18.1509 11.4429 17.2187C11.721 17.7613 12.013 18.3178 12.3329 18.8604C12.6528 19.403 12.9726 19.9317 13.3064 20.4465ZM11.4429 13.9491C11.0535 13.017 10.7197 12.1126 10.4415 11.2222C11.3316 11.0274 12.2912 10.8465 13.3064 10.7213C12.9726 11.2361 12.6528 11.7648 12.3329 12.3074C12.013 12.85 11.721 13.3926 11.4429 13.9491ZM17.993 6.85348C18.605 7.52131 19.2308 8.27261 19.8566 9.09348C19.2447 9.06566 18.6328 9.05174 17.993 9.05174C17.3533 9.05174 16.7414 9.06566 16.1295 9.09348C16.7553 8.27261 17.3672 7.52131 17.993 6.85348ZM23.6532 12.3213C23.3333 11.7787 23.0135 11.25 22.6797 10.7352C23.6949 10.8604 24.6545 11.0274 25.5445 11.2361C25.2803 12.1126 24.9465 13.017 24.5432 13.963C24.2651 13.4204 23.9591 12.8639 23.6532 12.3213ZM9.69057 8.17522C9.25945 5.46218 9.62103 3.55609 10.6919 2.94392C10.9561 2.79087 11.2621 2.72131 11.6097 2.72131C12.9587 2.72131 14.9196 3.83435 17.0335 5.87957C16.1156 6.8674 15.2116 7.99435 14.3355 9.23261C12.8196 9.37174 11.3872 9.59435 10.08 9.90044C9.92699 9.31609 9.80183 8.73174 9.71838 8.18914L9.69057 8.17522ZM3.3907 15.5909C3.3907 14.1439 5.53238 12.5857 9.09257 11.57C9.49587 12.8639 10.0243 14.2135 10.6502 15.5909C10.0243 16.9544 9.49587 18.3039 9.09257 19.6117C5.54628 18.5961 3.3907 17.0517 3.3907 15.5909ZM15.7262 26.4848C13.5984 28.21 11.7627 28.85 10.6919 28.2378C9.62103 27.6257 9.25945 25.7057 9.69057 23.0065C9.77401 22.45 9.91308 21.8796 10.0522 21.2952C11.3594 21.6013 12.7918 21.8239 14.3077 21.963C15.1838 23.1874 16.0878 24.3283 17.0056 25.33C16.5745 25.7474 16.1434 26.1509 15.7123 26.4987L15.7262 26.4848ZM26.2955 23.0065C26.7266 25.7196 26.3651 27.6257 25.2942 28.2378C24.2234 28.85 22.3877 28.21 20.2599 26.4848C19.8288 26.137 19.3977 25.7335 18.9665 25.3161C19.8983 24.3144 20.8023 23.1874 21.6645 21.963C23.1804 21.8239 24.6128 21.6013 25.92 21.2952C26.073 21.8796 26.1982 22.4639 26.2816 23.0065H26.2955ZM26.8935 19.5978C26.4902 18.3039 25.9618 16.9544 25.3359 15.577C25.9757 14.1857 26.4902 12.8361 26.8935 11.5561C30.4537 12.5717 32.5954 14.1161 32.5954 15.577C32.5954 17.0378 30.4537 18.5822 26.8935 19.5978Z" fill="#89BCD9"/>
<path d="M4.17232 38.878C4.68565 38.878 5.15699 38.948 5.58632 39.088C6.02499 39.2187 6.40299 39.4193 6.72032 39.69C7.04699 39.9513 7.29899 40.278 7.47632 40.67C7.66299 41.0527 7.75632 41.5007 7.75632 42.014C7.75632 42.4153 7.69565 42.8073 7.57432 43.19C7.46232 43.5727 7.27099 43.9227 7.00032 44.24C6.72965 44.548 6.37499 44.8 5.93632 44.996C5.50699 45.1827 4.97499 45.276 4.34032 45.276H2.84232V49H1.48432V38.878H4.17232ZM4.31232 43.974C4.71365 43.974 5.04499 43.9133 5.30632 43.792C5.57699 43.6707 5.78699 43.5167 5.93632 43.33C6.08565 43.134 6.19299 42.924 6.25832 42.7C6.32365 42.476 6.35632 42.266 6.35632 42.07C6.35632 41.8647 6.31899 41.6547 6.24432 41.44C6.17899 41.216 6.06699 41.0107 5.90832 40.824C5.75899 40.6373 5.55832 40.4833 5.30632 40.362C5.06365 40.2407 4.76499 40.18 4.41032 40.18H2.84232V43.974H4.31232ZM5.97832 44.744L8.62432 49H7.05632L4.36832 44.786L5.97832 44.744ZM12.9011 49.14C12.2384 49.14 11.6691 49.0093 11.1931 48.748C10.7171 48.4773 10.3484 48.1133 10.0871 47.656C9.8351 47.1893 9.7091 46.6573 9.7091 46.06C9.7091 45.4907 9.85377 44.9727 10.1431 44.506C10.4324 44.0393 10.8198 43.666 11.3051 43.386C11.7904 43.106 12.3318 42.966 12.9291 42.966C13.6944 42.966 14.3291 43.19 14.8331 43.638C15.3371 44.086 15.6778 44.702 15.8551 45.486L11.0811 47.166L10.7731 46.396L14.6931 44.968L14.4131 45.15C14.3011 44.842 14.1144 44.576 13.8531 44.352C13.5918 44.1187 13.2511 44.002 12.8311 44.002C12.4764 44.002 12.1591 44.0907 11.8791 44.268C11.5991 44.436 11.3798 44.6693 11.2211 44.968C11.0624 45.2667 10.9831 45.6073 10.9831 45.99C10.9831 46.3913 11.0671 46.746 11.2351 47.054C11.4031 47.3527 11.6318 47.5907 11.9211 47.768C12.2198 47.936 12.5558 48.02 12.9291 48.02C13.1811 48.02 13.4238 47.9733 13.6571 47.88C13.8998 47.7867 14.1238 47.6653 14.3291 47.516L14.9311 48.482C14.6418 48.678 14.3151 48.8367 13.9511 48.958C13.5964 49.0793 13.2464 49.14 12.9011 49.14ZM19.8945 49.14C19.3532 49.14 18.8585 49.0233 18.4105 48.79C17.9719 48.5567 17.6219 48.216 17.3605 47.768C17.1085 47.3107 16.9825 46.7553 16.9825 46.102C16.9825 45.458 17.1179 44.9027 17.3885 44.436C17.6592 43.96 18.0185 43.596 18.4665 43.344C18.9239 43.092 19.4232 42.966 19.9645 42.966C20.5059 42.966 20.9632 43.092 21.3365 43.344C21.7099 43.5867 21.9945 43.876 22.1905 44.212L22.1065 44.436L22.2325 43.204H23.4365V49H22.1345V47.488L22.2745 47.824C22.2372 47.9173 22.1532 48.0387 22.0225 48.188C21.9012 48.328 21.7332 48.4727 21.5185 48.622C21.3132 48.7713 21.0752 48.8973 20.8045 49C20.5339 49.0933 20.2305 49.14 19.8945 49.14ZM20.2445 48.062C20.5712 48.062 20.8652 48.0013 21.1265 47.88C21.3879 47.7587 21.6025 47.5907 21.7705 47.376C21.9479 47.152 22.0692 46.886 22.1345 46.578V45.444C22.0599 45.164 21.9292 44.9213 21.7425 44.716C21.5559 44.5013 21.3319 44.338 21.0705 44.226C20.8092 44.1047 20.5199 44.044 20.2025 44.044C19.8572 44.044 19.5399 44.128 19.2505 44.296C18.9612 44.464 18.7279 44.6973 18.5505 44.996C18.3825 45.2947 18.2985 45.6447 18.2985 46.046C18.2985 46.4193 18.3872 46.76 18.5645 47.068C18.7419 47.376 18.9799 47.6187 19.2785 47.796C19.5772 47.9733 19.8992 48.062 20.2445 48.062ZM30.3937 48.468C30.1323 48.6733 29.8197 48.8367 29.4557 48.958C29.0917 49.0793 28.7277 49.14 28.3637 49.14C27.729 49.14 27.1737 49.014 26.6977 48.762C26.2217 48.51 25.8483 48.16 25.5777 47.712C25.3163 47.2547 25.1857 46.718 25.1857 46.102C25.1857 45.486 25.3257 44.9493 25.6057 44.492C25.895 44.0347 26.2683 43.6847 26.7257 43.442C27.1923 43.19 27.6917 43.064 28.2237 43.064C28.6903 43.064 29.1057 43.1293 29.4697 43.26C29.843 43.3907 30.1603 43.568 30.4217 43.792L29.7777 44.632C29.6097 44.5013 29.4043 44.3847 29.1617 44.282C28.919 44.1793 28.6437 44.128 28.3357 44.128C27.9997 44.128 27.687 44.2167 27.3977 44.394C27.1177 44.562 26.8937 44.7953 26.7257 45.094C26.567 45.3927 26.4877 45.7287 26.4877 46.102C26.4877 46.4567 26.5717 46.788 26.7397 47.096C26.9077 47.3947 27.141 47.6327 27.4397 47.81C27.7383 47.978 28.079 48.062 28.4617 48.062C28.7137 48.062 28.9423 48.0247 29.1477 47.95C29.3623 47.8753 29.5537 47.7727 29.7217 47.642L30.3937 48.468ZM32.6344 40.656H33.9364V43.232H35.5324V44.254H33.9364V49H32.6344V44.254H31.5704V43.232H32.6344V40.656Z" fill="#F8F5EC"/>
<path d="M81.6951 2.66797L78.0006 9.06797L74.3049 2.66797H62L78.0006 30.3817L94 2.66797H81.6951Z" fill="#89BCD9"/>
<path d="M81.6936 2.66797L77.999 9.06797L74.3033 2.66797H68.3984L77.999 19.2957L87.5984 2.66797H81.6936Z" fill="#F8F5EC"/>
<path d="M62.3764 38.878L65.7084 47.25L64.9384 47.096L68.1024 38.878H69.6844L65.2184 49.462L60.7664 38.878H62.3764ZM72.0608 49.224C71.5381 49.224 71.1041 49.0653 70.7588 48.748C70.4228 48.4213 70.2454 48.0013 70.2268 47.488V43.204H71.5288V47.026C71.5474 47.3433 71.6361 47.6 71.7948 47.796C71.9628 47.992 72.2241 48.0947 72.5788 48.104C72.9054 48.104 73.1948 48.0107 73.4468 47.824C73.7081 47.628 73.9181 47.3667 74.0768 47.04C74.2354 46.704 74.3148 46.326 74.3148 45.906V43.204H75.6168V49H74.4268L74.3148 47.572L74.3848 47.824C74.2728 48.0947 74.1001 48.3373 73.8668 48.552C73.6428 48.7573 73.3768 48.9207 73.0688 49.042C72.7608 49.1633 72.4248 49.224 72.0608 49.224ZM80.5574 49.14C79.8947 49.14 79.3254 49.0093 78.8494 48.748C78.3734 48.4773 78.0047 48.1133 77.7434 47.656C77.4914 47.1893 77.3654 46.6573 77.3654 46.06C77.3654 45.4907 77.51 44.9727 77.7994 44.506C78.0887 44.0393 78.476 43.666 78.9614 43.386C79.4467 43.106 79.988 42.966 80.5854 42.966C81.3507 42.966 81.9854 43.19 82.4894 43.638C82.9934 44.086 83.334 44.702 83.5114 45.486L78.7374 47.166L78.4294 46.396L82.3494 44.968L82.0694 45.15C81.9574 44.842 81.7707 44.576 81.5094 44.352C81.248 44.1187 80.9074 44.002 80.4874 44.002C80.1327 44.002 79.8154 44.0907 79.5354 44.268C79.2554 44.436 79.036 44.6693 78.8774 44.968C78.7187 45.2667 78.6394 45.6073 78.6394 45.99C78.6394 46.3913 78.7234 46.746 78.8914 47.054C79.0594 47.3527 79.288 47.5907 79.5774 47.768C79.876 47.936 80.212 48.02 80.5854 48.02C80.8374 48.02 81.08 47.9733 81.3134 47.88C81.556 47.7867 81.78 47.6653 81.9854 47.516L82.5874 48.482C82.298 48.678 81.9714 48.8367 81.6074 48.958C81.2527 49.0793 80.9027 49.14 80.5574 49.14ZM84.4848 44.45C84.4848 44.2447 84.5595 44.072 84.7088 43.932C84.8675 43.7827 85.0355 43.708 85.2128 43.708C85.3901 43.708 85.5535 43.778 85.7028 43.918C85.8615 44.058 85.9408 44.2353 85.9408 44.45C85.9408 44.674 85.8615 44.856 85.7028 44.996C85.5535 45.1267 85.3901 45.192 85.2128 45.192C85.0355 45.192 84.8675 45.1267 84.7088 44.996C84.5595 44.856 84.4848 44.674 84.4848 44.45ZM84.4848 48.258C84.4848 48.0527 84.5595 47.88 84.7088 47.74C84.8675 47.5907 85.0355 47.516 85.2128 47.516C85.3901 47.516 85.5535 47.5907 85.7028 47.74C85.8615 47.88 85.9408 48.0527 85.9408 48.258C85.9408 48.482 85.8615 48.664 85.7028 48.804C85.5535 48.9347 85.3901 49 85.2128 49C85.0355 49 84.8675 48.9347 84.7088 48.804C84.5595 48.664 84.4848 48.482 84.4848 48.258ZM87.6874 51.786L86.9174 50.988C87.1787 50.764 87.3841 50.484 87.5334 50.148C87.6827 49.8213 87.7574 49.434 87.7574 48.986V43.204H89.0734V49.042C89.0734 49.6953 88.9614 50.246 88.7374 50.694C88.5227 51.1513 88.1727 51.5153 87.6874 51.786ZM87.6454 41.104C87.6454 40.8987 87.7247 40.726 87.8834 40.586C88.0514 40.446 88.2334 40.376 88.4294 40.376C88.6254 40.376 88.7981 40.446 88.9474 40.586C89.1061 40.726 89.1854 40.8987 89.1854 41.104C89.1854 41.3187 89.1061 41.496 88.9474 41.636C88.7981 41.7667 88.6254 41.832 88.4294 41.832C88.2334 41.832 88.0514 41.762 87.8834 41.622C87.7247 41.482 87.6454 41.3093 87.6454 41.104ZM92.8644 49.112C92.4538 49.112 92.0524 49.042 91.6604 48.902C91.2778 48.7527 90.9604 48.5333 90.7084 48.244L91.2544 47.488C91.4971 47.7213 91.7444 47.8987 91.9964 48.02C92.2578 48.132 92.5144 48.188 92.7664 48.188C92.9531 48.188 93.1258 48.1647 93.2844 48.118C93.4431 48.0713 93.5691 47.9967 93.6624 47.894C93.7651 47.782 93.8164 47.6327 93.8164 47.446C93.8164 47.2407 93.7464 47.0773 93.6064 46.956C93.4758 46.8347 93.3031 46.7367 93.0884 46.662C92.8831 46.5873 92.6638 46.5173 92.4304 46.452C91.9544 46.2933 91.5904 46.074 91.3384 45.794C91.0864 45.514 90.9604 45.1733 90.9604 44.772C90.9604 44.464 91.0351 44.1793 91.1844 43.918C91.3431 43.6473 91.5718 43.428 91.8704 43.26C92.1784 43.092 92.5564 43.008 93.0044 43.008C93.4058 43.008 93.7651 43.0593 94.0824 43.162C94.3998 43.2553 94.6984 43.414 94.9784 43.638L94.4604 44.45C94.2924 44.2727 94.0918 44.142 93.8584 44.058C93.6251 43.974 93.4151 43.9273 93.2284 43.918C93.0698 43.9087 92.9158 43.932 92.7664 43.988C92.6264 44.044 92.5098 44.1233 92.4164 44.226C92.3231 44.3287 92.2764 44.45 92.2764 44.59C92.2764 44.786 92.3418 44.9447 92.4724 45.066C92.6031 45.1873 92.7711 45.2853 92.9764 45.36C93.1911 45.4253 93.4011 45.4953 93.6064 45.57C93.8958 45.654 94.1524 45.766 94.3764 45.906C94.6004 46.046 94.7778 46.2187 94.9084 46.424C95.0484 46.6293 95.1184 46.886 95.1184 47.194C95.1184 47.5393 95.0344 47.8613 94.8664 48.16C94.7078 48.4493 94.4604 48.6827 94.1244 48.86C93.7978 49.028 93.3778 49.112 92.8644 49.112Z" fill="#F8F5EC"/>
</svg>
