<svg width="21" height="18" viewBox="0 0 21 18" fill="none" xmlns="http://www.w3.org/2000/svg">
<mask id="mask0_56660_6262" style="mask-type:alpha" maskUnits="userSpaceOnUse" x="0" y="-1" width="21" height="20">
<rect x="0.5" y="-1" width="20" height="20" fill="#D9D9D9"/>
</mask>
<g mask="url(#mask0_56660_6262)">
<path d="M9.66578 5.52083L5.58245 9.60417C5.41578 9.77083 5.22134 9.85069 4.99911 9.84375C4.77689 9.83681 4.58245 9.75 4.41578 9.58333C4.263 9.41667 4.18314 9.22222 4.1762 9C4.16925 8.77778 4.24911 8.58333 4.41578 8.41667L9.91578 2.91667C9.99911 2.83333 10.0894 2.77431 10.1866 2.73958C10.2838 2.70486 10.388 2.6875 10.4991 2.6875C10.6102 2.6875 10.7144 2.70486 10.8116 2.73958C10.9088 2.77431 10.9991 2.83333 11.0824 2.91667L16.5824 8.41667C16.7352 8.56944 16.8116 8.76042 16.8116 8.98958C16.8116 9.21875 16.7352 9.41667 16.5824 9.58333C16.4158 9.75 16.2179 9.83333 15.9887 9.83333C15.7595 9.83333 15.5616 9.75 15.3949 9.58333L11.3324 5.52083V14.8333C11.3324 15.0694 11.2526 15.2674 11.0929 15.4271C10.9331 15.5868 10.7352 15.6667 10.4991 15.6667C10.263 15.6667 10.0651 15.5868 9.90536 15.4271C9.74564 15.2674 9.66578 15.0694 9.66578 14.8333V5.52083Z" fill="white"/>
</g>
</svg>
