<svg width="21" height="20" viewBox="0 0 21 20" fill="none" xmlns="http://www.w3.org/2000/svg">
<mask id="mask0_56660_6258" style="mask-type:alpha" maskUnits="userSpaceOnUse" x="0" y="0" width="21" height="20">
<rect x="0.5" width="20" height="20" fill="#D9D9D9"/>
</mask>
<g mask="url(#mask0_56660_6258)">
<path d="M9.66667 13.4793V4.16683C9.66667 3.93072 9.74653 3.7328 9.90625 3.57308C10.066 3.41336 10.2639 3.3335 10.5 3.3335C10.7361 3.3335 10.934 3.41336 11.0938 3.57308C11.2535 3.7328 11.3333 3.93072 11.3333 4.16683V13.4793L15.4167 9.396C15.5833 9.22933 15.7778 9.14947 16 9.15641C16.2222 9.16336 16.4167 9.25016 16.5833 9.41683C16.7361 9.5835 16.816 9.77794 16.8229 10.0002C16.8299 10.2224 16.75 10.4168 16.5833 10.5835L11.0833 16.0835C11 16.1668 10.9097 16.2259 10.8125 16.2606C10.7153 16.2953 10.6111 16.3127 10.5 16.3127C10.3889 16.3127 10.2847 16.2953 10.1875 16.2606C10.0903 16.2259 10 16.1668 9.91667 16.0835L4.41667 10.5835C4.26389 10.4307 4.1875 10.2397 4.1875 10.0106C4.1875 9.78141 4.26389 9.5835 4.41667 9.41683C4.58333 9.25016 4.78125 9.16683 5.01042 9.16683C5.23958 9.16683 5.4375 9.25016 5.60417 9.41683L9.66667 13.4793Z" fill="white"/>
</g>
</svg>
