<svg width="24" height="24" viewBox="0 0 24 24" fill="none" xmlns="http://www.w3.org/2000/svg">
<mask id="mask0_19448_11090" style="mask-type:alpha" maskUnits="userSpaceOnUse" x="-1" y="0" width="25" height="24">
<rect x="-0.000488281" width="24" height="24" fill="#D9D9D9"/>
</mask>
<g mask="url(#mask0_19448_11090)">
<path d="M11.9995 13.4L7.0995 18.3C6.91617 18.4834 6.68283 18.575 6.3995 18.575C6.11617 18.575 5.88283 18.4834 5.6995 18.3C5.51617 18.1167 5.4245 17.8834 5.4245 17.6C5.4245 17.3167 5.51617 17.0834 5.6995 16.9L10.5995 12L5.6995 7.10005C5.51617 6.91672 5.4245 6.68338 5.4245 6.40005C5.4245 6.11672 5.51617 5.88338 5.6995 5.70005C5.88283 5.51672 6.11617 5.42505 6.3995 5.42505C6.68283 5.42505 6.91617 5.51672 7.0995 5.70005L11.9995 10.6L16.8995 5.70005C17.0828 5.51672 17.3162 5.42505 17.5995 5.42505C17.8828 5.42505 18.1162 5.51672 18.2995 5.70005C18.4828 5.88338 18.5745 6.11672 18.5745 6.40005C18.5745 6.68338 18.4828 6.91672 18.2995 7.10005L13.3995 12L18.2995 16.9C18.4828 17.0834 18.5745 17.3167 18.5745 17.6C18.5745 17.8834 18.4828 18.1167 18.2995 18.3C18.1162 18.4834 17.8828 18.575 17.5995 18.575C17.3162 18.575 17.0828 18.4834 16.8995 18.3L11.9995 13.4Z" fill="#4589FF"/>
</g>
</svg>
