<svg width="29" height="30" viewBox="0 0 29 30" fill="none" xmlns="http://www.w3.org/2000/svg">
<g filter="url(#filter0_d_56623_10538)">
<rect x="1.3457" y="27" width="26" height="24" rx="6" transform="rotate(-90 1.3457 27)" fill="#F4F4F4" shape-rendering="crispEdges"/>
<mask id="mask0_56623_10538" style="mask-type:alpha" maskUnits="userSpaceOnUse" x="3" y="4" width="21" height="20">
<rect x="3.3457" y="24" width="20" height="20" transform="rotate(-90 3.3457 24)" fill="#D9D9D9"/>
</mask>
<g mask="url(#mask0_56623_10538)">
<path d="M16.679 19.1457L18.2415 17.5832C18.3943 17.4304 18.5853 17.354 18.8145 17.354C19.0436 17.354 19.2415 17.4304 19.4082 17.5832C19.5749 17.7498 19.6582 17.9478 19.6582 18.1769C19.6582 18.4061 19.5749 18.604 19.4082 18.7707L16.429 21.7498C16.3457 21.8332 16.2554 21.8922 16.1582 21.9269C16.061 21.9616 15.9568 21.979 15.8457 21.979C15.7346 21.979 15.6304 21.9616 15.5332 21.9269C15.436 21.8922 15.3457 21.8332 15.2624 21.7498L12.2624 18.7498C12.0957 18.5832 12.0158 18.3887 12.0228 18.1665C12.0297 17.9443 12.1165 17.7498 12.2832 17.5832C12.4499 17.4304 12.6443 17.3505 12.8665 17.3436C13.0888 17.3366 13.2832 17.4165 13.4499 17.5832L15.0124 19.1457V13.9998C15.0124 13.7637 15.0922 13.5658 15.252 13.4061C15.4117 13.2464 15.6096 13.1665 15.8457 13.1665C16.0818 13.1665 16.2797 13.2464 16.4395 13.4061C16.5992 13.5658 16.679 13.7637 16.679 13.9998V19.1457ZM11.679 8.854V13.9998C11.679 14.2359 11.5992 14.4339 11.4395 14.5936C11.2797 14.7533 11.0818 14.8332 10.8457 14.8332C10.6096 14.8332 10.4117 14.7533 10.252 14.5936C10.0922 14.4339 10.0124 14.2359 10.0124 13.9998V8.854L8.44987 10.4165C8.29709 10.5693 8.10612 10.6457 7.87695 10.6457C7.64779 10.6457 7.44987 10.5693 7.2832 10.4165C7.11654 10.2498 7.0332 10.0519 7.0332 9.82275C7.0332 9.59359 7.11654 9.39567 7.2832 9.229L10.2624 6.24984C10.3457 6.1665 10.436 6.10748 10.5332 6.07275C10.6304 6.03803 10.7346 6.02067 10.8457 6.02067C10.9568 6.02067 11.061 6.03803 11.1582 6.07275C11.2554 6.10748 11.3457 6.1665 11.429 6.24984L14.429 9.24984C14.5957 9.4165 14.6756 9.61095 14.6686 9.83317C14.6617 10.0554 14.5749 10.2498 14.4082 10.4165C14.2415 10.5693 14.0471 10.6491 13.8249 10.6561C13.6026 10.663 13.4082 10.5832 13.2415 10.4165L11.679 8.854Z" fill="#4589FF"/>
</g>
</g>
<defs>
<filter id="filter0_d_56623_10538" x="0.345703" y="0" width="28" height="30" filterUnits="userSpaceOnUse" color-interpolation-filters="sRGB">
<feFlood flood-opacity="0" result="BackgroundImageFix"/>
<feColorMatrix in="SourceAlpha" type="matrix" values="0 0 0 0 0 0 0 0 0 0 0 0 0 0 0 0 0 0 127 0" result="hardAlpha"/>
<feOffset dx="1" dy="1"/>
<feGaussianBlur stdDeviation="1"/>
<feComposite in2="hardAlpha" operator="out"/>
<feColorMatrix type="matrix" values="0 0 0 0 0 0 0 0 0 0 0 0 0 0 0 0 0 0 0.15 0"/>
<feBlend mode="normal" in2="BackgroundImageFix" result="effect1_dropShadow_56623_10538"/>
<feBlend mode="normal" in="SourceGraphic" in2="effect1_dropShadow_56623_10538" result="shape"/>
</filter>
</defs>
</svg>
