<svg width="75" height="76" viewBox="0 0 75 76" fill="none" xmlns="http://www.w3.org/2000/svg">
<mask id="mask0_18260_7249" style="mask-type:alpha" maskUnits="userSpaceOnUse" x="25" y="15" width="25" height="24">
<rect x="25.4995" y="15" width="24" height="24" fill="#D9D9D9"/>
</mask>
<g mask="url(#mask0_18260_7249)">
<path d="M27.8406 39.0151C27.1966 39.0151 26.6454 38.7858 26.1868 38.3273C25.7283 37.8687 25.499 37.3175 25.499 36.6736V20.2828C25.499 19.6389 25.7283 19.0877 26.1868 18.6291C26.6454 18.1706 27.1966 17.9413 27.8406 17.9413H38.2897L35.9481 20.2828H27.8406V36.6736H44.2313V28.5367L46.5728 26.1952V36.6736C46.5728 37.3175 46.3436 37.8687 45.885 38.3273C45.4265 38.7858 44.8752 39.0151 44.2313 39.0151H27.8406ZM40.9239 18.6145L42.5922 20.2536L34.8652 27.9806V29.649H36.5042L44.2606 21.8926L45.9289 23.5317L38.1726 31.288C37.9579 31.5027 37.7092 31.6734 37.4262 31.8003C37.1433 31.9271 36.8457 31.9905 36.5335 31.9905H33.6944C33.3627 31.9905 33.0846 31.8783 32.8602 31.6539C32.6358 31.4295 32.5236 31.1515 32.5236 30.8197V27.9806C32.5236 27.6684 32.5822 27.3709 32.6992 27.0879C32.8163 26.805 32.9822 26.5562 33.1968 26.3416L40.9239 18.6145ZM45.9289 23.5317L40.9239 18.6145L43.8508 15.6876C44.3191 15.2193 44.8801 14.9851 45.5338 14.9851C46.1875 14.9851 46.7387 15.2193 47.1875 15.6876L48.8266 17.3559C49.2754 17.8047 49.4998 18.3511 49.4998 18.995C49.4998 19.6389 49.2754 20.1853 48.8266 20.6341L45.9289 23.5317Z" fill="#4589FF"/>
</g>
<path d="M13.6807 58L12.3623 54.6016H8.07031L6.75928 58H5.49951L9.68896 47.248H10.8096L14.9697 58H13.6807ZM11.9888 53.4956L10.7363 50.1191C10.707 50.0312 10.6582 49.8872 10.5898 49.687C10.5264 49.4868 10.4604 49.2793 10.3921 49.0645C10.3237 48.8496 10.2676 48.6763 10.2236 48.5444C10.1748 48.7446 10.1211 48.9448 10.0625 49.145C10.0088 49.3403 9.95508 49.5234 9.90137 49.6943C9.84766 49.8604 9.80127 50.002 9.76221 50.1191L8.48779 53.4956H11.9888ZM19.1299 58.1465C18.1143 58.1465 17.3086 57.7998 16.7129 57.1064C16.1221 56.4131 15.8267 55.3828 15.8267 54.0156C15.8267 52.6338 16.1294 51.5913 16.7349 50.8882C17.3403 50.1802 18.146 49.8262 19.1519 49.8262C19.5767 49.8262 19.9478 49.8823 20.2651 49.9946C20.5825 50.1069 20.856 50.2583 21.0854 50.4487C21.3149 50.6343 21.5078 50.8467 21.6641 51.0859H21.752C21.7324 50.9346 21.7129 50.7271 21.6934 50.4634C21.6738 50.1997 21.6641 49.9849 21.6641 49.8188V46.6035H22.8799V58H21.8984L21.7153 56.8574H21.6641C21.5127 57.0967 21.3198 57.314 21.0854 57.5093C20.856 57.7046 20.5801 57.8608 20.2578 57.978C19.9404 58.0903 19.5645 58.1465 19.1299 58.1465ZM19.3203 57.1357C20.1797 57.1357 20.7876 56.8916 21.144 56.4033C21.5005 55.915 21.6787 55.1899 21.6787 54.228V54.0083C21.6787 52.9878 21.5078 52.2041 21.166 51.6572C20.8291 51.1104 20.2139 50.8369 19.3203 50.8369C18.5732 50.8369 18.0142 51.125 17.6431 51.7012C17.272 52.2725 17.0864 53.0537 17.0864 54.0449C17.0864 55.0312 17.2695 55.793 17.6357 56.3301C18.0068 56.8672 18.5684 57.1357 19.3203 57.1357ZM28.3145 58.1465C27.2988 58.1465 26.4932 57.7998 25.8975 57.1064C25.3066 56.4131 25.0112 55.3828 25.0112 54.0156C25.0112 52.6338 25.314 51.5913 25.9194 50.8882C26.5249 50.1802 27.3306 49.8262 28.3364 49.8262C28.7612 49.8262 29.1323 49.8823 29.4497 49.9946C29.7671 50.1069 30.0405 50.2583 30.27 50.4487C30.4995 50.6343 30.6924 50.8467 30.8486 51.0859H30.9365C30.917 50.9346 30.8975 50.7271 30.8779 50.4634C30.8584 50.1997 30.8486 49.9849 30.8486 49.8188V46.6035H32.0645V58H31.083L30.8999 56.8574H30.8486C30.6973 57.0967 30.5044 57.314 30.27 57.5093C30.0405 57.7046 29.7646 57.8608 29.4424 57.978C29.125 58.0903 28.749 58.1465 28.3145 58.1465ZM28.5049 57.1357C29.3643 57.1357 29.9722 56.8916 30.3286 56.4033C30.6851 55.915 30.8633 55.1899 30.8633 54.228V54.0083C30.8633 52.9878 30.6924 52.2041 30.3506 51.6572C30.0137 51.1104 29.3984 50.8369 28.5049 50.8369C27.7578 50.8369 27.1987 51.125 26.8276 51.7012C26.4565 52.2725 26.271 53.0537 26.271 54.0449C26.271 55.0312 26.4541 55.793 26.8203 56.3301C27.1914 56.8672 27.7529 57.1357 28.5049 57.1357ZM42.0107 58H40.7583V48.3906H37.3892V47.292H45.3652V48.3906H42.0107V58ZM49.8037 49.8408C50.7607 49.8408 51.4712 50.0557 51.9351 50.4854C52.3989 50.915 52.6309 51.6011 52.6309 52.5435V58H51.7446L51.5103 56.8135H51.4517C51.2271 57.1064 50.9927 57.353 50.7485 57.5532C50.5044 57.7485 50.2212 57.8975 49.8989 58C49.5815 58.0977 49.1909 58.1465 48.7271 58.1465C48.2388 58.1465 47.8042 58.061 47.4233 57.8901C47.0474 57.7192 46.7495 57.4604 46.5298 57.1138C46.3149 56.7671 46.2075 56.3276 46.2075 55.7954C46.2075 54.9946 46.5249 54.3794 47.1597 53.9497C47.7944 53.52 48.7612 53.2856 50.0601 53.2466L51.4443 53.188V52.6973C51.4443 52.0039 51.2954 51.5181 50.9976 51.2397C50.6997 50.9614 50.2798 50.8223 49.7378 50.8223C49.3179 50.8223 48.9175 50.8833 48.5366 51.0054C48.1558 51.1274 47.7944 51.2715 47.4526 51.4375L47.0791 50.5146C47.4404 50.3291 47.8555 50.1704 48.3242 50.0386C48.793 49.9067 49.2861 49.8408 49.8037 49.8408ZM51.4297 54.0449L50.2065 54.0962C49.2056 54.1353 48.5 54.2988 48.0898 54.5869C47.6797 54.875 47.4746 55.2827 47.4746 55.8101C47.4746 56.269 47.6138 56.6084 47.8921 56.8281C48.1704 57.0479 48.5391 57.1577 48.998 57.1577C49.7109 57.1577 50.2944 56.96 50.7485 56.5645C51.2026 56.1689 51.4297 55.5757 51.4297 54.7847V54.0449ZM60.3286 55.8027C60.3286 56.3154 60.1992 56.7476 59.9404 57.0991C59.6865 57.4458 59.3203 57.707 58.8418 57.8828C58.3682 58.0586 57.8018 58.1465 57.1426 58.1465C56.5811 58.1465 56.0952 58.1025 55.6851 58.0146C55.2749 57.9268 54.916 57.8022 54.6084 57.6411V56.5205C54.9355 56.6816 55.3262 56.8281 55.7803 56.96C56.2344 57.0918 56.6982 57.1577 57.1719 57.1577C57.8652 57.1577 58.3682 57.0454 58.6807 56.8208C58.9932 56.5962 59.1494 56.291 59.1494 55.9053C59.1494 55.6855 59.0859 55.4927 58.959 55.3267C58.8369 55.1558 58.6294 54.9922 58.3364 54.8359C58.0435 54.6748 57.6382 54.499 57.1206 54.3086C56.6079 54.1133 56.1636 53.9204 55.7876 53.73C55.4165 53.5347 55.1284 53.2979 54.9233 53.0195C54.7231 52.7412 54.623 52.3799 54.623 51.9355C54.623 51.2568 54.8965 50.7368 55.4434 50.3755C55.9951 50.0093 56.7178 49.8262 57.6113 49.8262C58.0947 49.8262 58.5464 49.875 58.9663 49.9727C59.3911 50.0654 59.7866 50.1924 60.1528 50.3535L59.7427 51.3276C59.4106 51.186 59.0566 51.0664 58.6807 50.9688C58.3047 50.8711 57.9214 50.8223 57.5308 50.8223C56.9692 50.8223 56.5371 50.915 56.2344 51.1006C55.9365 51.2861 55.7876 51.54 55.7876 51.8623C55.7876 52.1113 55.856 52.3164 55.9927 52.4775C56.1343 52.6387 56.3589 52.79 56.6665 52.9316C56.9741 53.0732 57.3794 53.2393 57.8823 53.4297C58.3853 53.6152 58.8198 53.8081 59.186 54.0083C59.5522 54.2036 59.833 54.4429 60.0283 54.7261C60.2285 55.0044 60.3286 55.3633 60.3286 55.8027ZM63.4927 46.6035V52.5215C63.4927 52.7168 63.4854 52.9561 63.4707 53.2393C63.4561 53.5176 63.4438 53.7642 63.4341 53.979H63.4854C63.5879 53.8521 63.7368 53.6641 63.9321 53.415C64.1323 53.166 64.3008 52.9658 64.4375 52.8145L67.1035 49.9727H68.5317L65.3018 53.4004L68.7661 58H67.3013L64.4668 54.1987L63.4927 55.0923V58H62.2842V46.6035H63.4927Z" fill="#4589FF"/>
</svg>
