<svg width="75" height="76" viewBox="0 0 75 76" fill="none" xmlns="http://www.w3.org/2000/svg">
<mask id="mask0_62771_901" style="mask-type:alpha" maskUnits="userSpaceOnUse" x="25" y="15" width="25" height="24">
<rect x="25.5" y="15" width="24" height="24" fill="#D9D9D9"/>
</mask>
<g mask="url(#mask0_62771_901)">
<path d="M27.8415 39.0149C27.1976 39.0149 26.6464 38.7856 26.1878 38.327C25.7293 37.8685 25.5 37.3173 25.5 36.6733V20.2826C25.5 19.6387 25.7293 19.0874 26.1878 18.6289C26.6464 18.1703 27.1976 17.9411 27.8415 17.9411H38.2906L35.9491 20.2826H27.8415V36.6733H44.2323V28.5365L46.5738 26.195V36.6733C46.5738 37.3173 46.3445 37.8685 45.886 38.327C45.4274 38.7856 44.8762 39.0149 44.2323 39.0149H27.8415ZM40.9249 18.6142L42.5932 20.2533L34.8661 27.9804V29.6487H36.5052L44.2615 21.8924L45.9299 23.5315L38.1736 31.2878C37.9589 31.5024 37.7101 31.6732 37.4272 31.8C37.1443 31.9268 36.8467 31.9903 36.5345 31.9903H33.6954C33.3637 31.9903 33.0856 31.8781 32.8612 31.6537C32.6368 31.4293 32.5246 31.1512 32.5246 30.8195V27.9804C32.5246 27.6682 32.5831 27.3706 32.7002 27.0877C32.8173 26.8047 32.9832 26.5559 33.1978 26.3413L40.9249 18.6142ZM45.9299 23.5315L40.9249 18.6142L43.8518 15.6873C44.3201 15.219 44.8811 14.9849 45.5348 14.9849C46.1884 14.9849 46.7397 15.219 47.1885 15.6873L48.8275 17.3557C49.2763 17.8045 49.5007 18.3508 49.5007 18.9947C49.5007 19.6387 49.2763 20.185 48.8275 20.6338L45.9299 23.5315Z" fill="#42526E"/>
</g>
<path d="M13.6812 58L12.3628 54.6016H8.0708L6.75977 58H5.5L9.68945 47.248H10.8101L14.9702 58H13.6812ZM11.9893 53.4956L10.7368 50.1191C10.7075 50.0312 10.6587 49.8872 10.5903 49.687C10.5269 49.4868 10.4609 49.2793 10.3926 49.0645C10.3242 48.8496 10.2681 48.6763 10.2241 48.5444C10.1753 48.7446 10.1216 48.9448 10.063 49.145C10.0093 49.3403 9.95557 49.5234 9.90186 49.6943C9.84814 49.8604 9.80176 50.002 9.7627 50.1191L8.48828 53.4956H11.9893ZM19.1304 58.1465C18.1147 58.1465 17.3091 57.7998 16.7134 57.1064C16.1226 56.4131 15.8271 55.3828 15.8271 54.0156C15.8271 52.6338 16.1299 51.5913 16.7354 50.8882C17.3408 50.1802 18.1465 49.8262 19.1523 49.8262C19.5771 49.8262 19.9482 49.8823 20.2656 49.9946C20.583 50.1069 20.8564 50.2583 21.0859 50.4487C21.3154 50.6343 21.5083 50.8467 21.6646 51.0859H21.7524C21.7329 50.9346 21.7134 50.7271 21.6938 50.4634C21.6743 50.1997 21.6646 49.9849 21.6646 49.8188V46.6035H22.8804V58H21.8989L21.7158 56.8574H21.6646C21.5132 57.0967 21.3203 57.314 21.0859 57.5093C20.8564 57.7046 20.5806 57.8608 20.2583 57.978C19.9409 58.0903 19.5649 58.1465 19.1304 58.1465ZM19.3208 57.1357C20.1802 57.1357 20.7881 56.8916 21.1445 56.4033C21.501 55.915 21.6792 55.1899 21.6792 54.228V54.0083C21.6792 52.9878 21.5083 52.2041 21.1665 51.6572C20.8296 51.1104 20.2144 50.8369 19.3208 50.8369C18.5737 50.8369 18.0146 51.125 17.6436 51.7012C17.2725 52.2725 17.0869 53.0537 17.0869 54.0449C17.0869 55.0312 17.27 55.793 17.6362 56.3301C18.0073 56.8672 18.5688 57.1357 19.3208 57.1357ZM28.3149 58.1465C27.2993 58.1465 26.4937 57.7998 25.8979 57.1064C25.3071 56.4131 25.0117 55.3828 25.0117 54.0156C25.0117 52.6338 25.3145 51.5913 25.9199 50.8882C26.5254 50.1802 27.3311 49.8262 28.3369 49.8262C28.7617 49.8262 29.1328 49.8823 29.4502 49.9946C29.7676 50.1069 30.041 50.2583 30.2705 50.4487C30.5 50.6343 30.6929 50.8467 30.8491 51.0859H30.937C30.9175 50.9346 30.8979 50.7271 30.8784 50.4634C30.8589 50.1997 30.8491 49.9849 30.8491 49.8188V46.6035H32.0649V58H31.0835L30.9004 56.8574H30.8491C30.6978 57.0967 30.5049 57.314 30.2705 57.5093C30.041 57.7046 29.7651 57.8608 29.4429 57.978C29.1255 58.0903 28.7495 58.1465 28.3149 58.1465ZM28.5054 57.1357C29.3647 57.1357 29.9727 56.8916 30.3291 56.4033C30.6855 55.915 30.8638 55.1899 30.8638 54.228V54.0083C30.8638 52.9878 30.6929 52.2041 30.3511 51.6572C30.0142 51.1104 29.3989 50.8369 28.5054 50.8369C27.7583 50.8369 27.1992 51.125 26.8281 51.7012C26.457 52.2725 26.2715 53.0537 26.2715 54.0449C26.2715 55.0312 26.4546 55.793 26.8208 56.3301C27.1919 56.8672 27.7534 57.1357 28.5054 57.1357ZM42.0112 58H40.7588V48.3906H37.3896V47.292H45.3657V48.3906H42.0112V58ZM49.8042 49.8408C50.7612 49.8408 51.4717 50.0557 51.9355 50.4854C52.3994 50.915 52.6313 51.6011 52.6313 52.5435V58H51.7451L51.5107 56.8135H51.4521C51.2275 57.1064 50.9932 57.353 50.749 57.5532C50.5049 57.7485 50.2217 57.8975 49.8994 58C49.582 58.0977 49.1914 58.1465 48.7275 58.1465C48.2393 58.1465 47.8047 58.061 47.4238 57.8901C47.0479 57.7192 46.75 57.4604 46.5303 57.1138C46.3154 56.7671 46.208 56.3276 46.208 55.7954C46.208 54.9946 46.5254 54.3794 47.1602 53.9497C47.7949 53.52 48.7617 53.2856 50.0605 53.2466L51.4448 53.188V52.6973C51.4448 52.0039 51.2959 51.5181 50.998 51.2397C50.7002 50.9614 50.2803 50.8223 49.7383 50.8223C49.3184 50.8223 48.918 50.8833 48.5371 51.0054C48.1562 51.1274 47.7949 51.2715 47.4531 51.4375L47.0796 50.5146C47.4409 50.3291 47.856 50.1704 48.3247 50.0386C48.7935 49.9067 49.2866 49.8408 49.8042 49.8408ZM51.4302 54.0449L50.207 54.0962C49.2061 54.1353 48.5005 54.2988 48.0903 54.5869C47.6802 54.875 47.4751 55.2827 47.4751 55.8101C47.4751 56.269 47.6143 56.6084 47.8926 56.8281C48.1709 57.0479 48.5396 57.1577 48.9985 57.1577C49.7114 57.1577 50.2949 56.96 50.749 56.5645C51.2031 56.1689 51.4302 55.5757 51.4302 54.7847V54.0449ZM60.3291 55.8027C60.3291 56.3154 60.1997 56.7476 59.9409 57.0991C59.687 57.4458 59.3208 57.707 58.8423 57.8828C58.3687 58.0586 57.8022 58.1465 57.1431 58.1465C56.5815 58.1465 56.0957 58.1025 55.6855 58.0146C55.2754 57.9268 54.9165 57.8022 54.6089 57.6411V56.5205C54.936 56.6816 55.3267 56.8281 55.7808 56.96C56.2349 57.0918 56.6987 57.1577 57.1724 57.1577C57.8657 57.1577 58.3687 57.0454 58.6812 56.8208C58.9937 56.5962 59.1499 56.291 59.1499 55.9053C59.1499 55.6855 59.0864 55.4927 58.9595 55.3267C58.8374 55.1558 58.6299 54.9922 58.3369 54.8359C58.0439 54.6748 57.6387 54.499 57.1211 54.3086C56.6084 54.1133 56.1641 53.9204 55.7881 53.73C55.417 53.5347 55.1289 53.2979 54.9238 53.0195C54.7236 52.7412 54.6235 52.3799 54.6235 51.9355C54.6235 51.2568 54.897 50.7368 55.4438 50.3755C55.9956 50.0093 56.7183 49.8262 57.6118 49.8262C58.0952 49.8262 58.5469 49.875 58.9668 49.9727C59.3916 50.0654 59.7871 50.1924 60.1533 50.3535L59.7432 51.3276C59.4111 51.186 59.0571 51.0664 58.6812 50.9688C58.3052 50.8711 57.9219 50.8223 57.5312 50.8223C56.9697 50.8223 56.5376 50.915 56.2349 51.1006C55.937 51.2861 55.7881 51.54 55.7881 51.8623C55.7881 52.1113 55.8564 52.3164 55.9932 52.4775C56.1348 52.6387 56.3594 52.79 56.667 52.9316C56.9746 53.0732 57.3799 53.2393 57.8828 53.4297C58.3857 53.6152 58.8203 53.8081 59.1865 54.0083C59.5527 54.2036 59.8335 54.4429 60.0288 54.7261C60.229 55.0044 60.3291 55.3633 60.3291 55.8027ZM63.4932 46.6035V52.5215C63.4932 52.7168 63.4858 52.9561 63.4712 53.2393C63.4565 53.5176 63.4443 53.7642 63.4346 53.979H63.4858C63.5884 53.8521 63.7373 53.6641 63.9326 53.415C64.1328 53.166 64.3013 52.9658 64.438 52.8145L67.104 49.9727H68.5322L65.3022 53.4004L68.7666 58H67.3018L64.4673 54.1987L63.4932 55.0923V58H62.2847V46.6035H63.4932Z" fill="#42526E"/>
</svg>
