<svg width="75" height="76" viewBox="0 0 75 76" fill="none" xmlns="http://www.w3.org/2000/svg">
<path d="M43.9615 18.6921L43.9615 35.3075C43.961 35.7969 43.7664 36.2662 43.4203 36.6124C43.0742 36.9585 42.6049 37.1531 42.1154 37.1536L38.4231 37.1536C37.9336 37.1531 37.4643 36.9585 37.1182 36.6124C36.7721 36.2662 36.5774 35.7969 36.5769 35.3075L36.5769 18.6921C36.5774 18.2026 36.7721 17.7333 37.1182 17.3872C37.4643 17.0411 37.9336 16.8464 38.4231 16.8459L42.1154 16.8459C42.6049 16.8464 43.0742 17.0411 43.4203 17.3872C43.7664 17.7333 43.961 18.2026 43.9615 18.6921ZM38.4231 35.3075L42.1154 35.3075L42.1154 18.6921L38.4231 18.6921L38.4231 35.3075ZM38.4231 18.6921L38.4231 35.3075C38.4226 35.7969 38.2279 36.2662 37.8818 36.6123C37.5357 36.9584 37.0664 37.1531 36.5769 37.1536L32.8846 37.1536C32.3951 37.1531 31.9258 36.9584 31.5797 36.6123C31.2336 36.2662 31.039 35.7969 31.0385 35.3074L31.0385 18.6921C31.0389 18.2026 31.2336 17.7333 31.5797 17.3872C31.9258 17.0411 32.3951 16.8464 32.8846 16.8459L36.5769 16.8459C37.0664 16.8464 37.5357 17.0411 37.8818 17.3872C38.2279 17.7333 38.4226 18.2026 38.4231 18.6921ZM32.8846 35.3074L36.5769 35.3075L36.5769 18.6921L32.8846 18.6921L32.8846 35.3074ZM32.8846 18.6921L32.8846 35.3074C32.8841 35.7969 32.6895 36.2662 32.3433 36.6123C31.9972 36.9584 31.5279 37.1531 31.0385 37.1536L27.3462 37.1536C26.8567 37.1531 26.3874 36.9584 26.0413 36.6123C25.6952 36.2662 25.5005 35.7969 25.5 35.3074L25.5 18.6921C25.5005 18.2026 25.6951 17.7333 26.0413 17.3872C26.3874 17.0411 26.8567 16.8464 27.3462 16.8459L31.0385 16.8459C31.5279 16.8464 31.9972 17.0411 32.3433 17.3872C32.6895 17.7333 32.8841 18.2026 32.8846 18.6921ZM27.3462 35.3074L31.0385 35.3074L31.0385 18.6921L27.3462 18.6921L27.3462 35.3074Z" fill="#42526E"/>
<path d="M49.5 18.6923L49.5 35.3077C49.4995 35.7971 49.3048 36.2664 48.9587 36.6125C48.6126 36.9587 48.1433 37.1533 47.6538 37.1538L43.9615 37.1538C43.4721 37.1533 43.0028 36.9587 42.6567 36.6125C42.3105 36.2664 42.1159 35.7969 42.1154 35.3075L42.1154 18.6921C42.1159 18.2026 42.3105 17.7335 42.6567 17.3874C43.0028 17.0413 43.4721 16.8466 43.9615 16.8461L47.6538 16.8461C48.1433 16.8466 48.6126 17.0413 48.9587 17.3874C49.3048 17.7335 49.4995 18.2028 49.5 18.6923ZM43.9615 35.3075L47.6538 35.3077L47.6538 18.6923L43.9615 18.6921L43.9615 35.3075Z" fill="#42526E"/>
<path d="M17.4648 47.292H20.4971C21.835 47.292 22.8408 47.4922 23.5146 47.8926C24.1885 48.293 24.5254 48.9741 24.5254 49.936C24.5254 50.3511 24.4448 50.7246 24.2837 51.0566C24.1274 51.3838 23.8979 51.6548 23.5952 51.8696C23.2925 52.0845 22.9189 52.2334 22.4746 52.3164V52.3896C22.9434 52.4629 23.3584 52.5972 23.7197 52.7925C24.0811 52.9878 24.3643 53.2612 24.5693 53.6128C24.7744 53.9644 24.877 54.4111 24.877 54.9531C24.877 55.6123 24.7231 56.1689 24.4155 56.623C24.1128 57.0771 23.6831 57.4214 23.1265 57.6558C22.5698 57.8853 21.9106 58 21.1489 58H17.4648V47.292ZM18.71 51.8843H20.7607C21.6934 51.8843 22.3379 51.7305 22.6943 51.4229C23.0557 51.1152 23.2363 50.666 23.2363 50.0752C23.2363 49.4648 23.0215 49.0254 22.5918 48.7568C22.167 48.4883 21.4883 48.354 20.5557 48.354H18.71V51.8843ZM18.71 52.9316V56.938H20.9365C21.8887 56.938 22.5625 56.7524 22.958 56.3813C23.3535 56.0054 23.5513 55.5 23.5513 54.8652C23.5513 54.46 23.4609 54.1133 23.2803 53.8252C23.1045 53.5371 22.8164 53.3174 22.416 53.166C22.0205 53.0098 21.4907 52.9316 20.8267 52.9316H18.71ZM33.9004 53.9717C33.9004 54.6309 33.8149 55.2192 33.644 55.7368C33.4731 56.2544 33.2266 56.6914 32.9043 57.0479C32.582 57.4043 32.1914 57.6777 31.7324 57.8682C31.2783 58.0537 30.7632 58.1465 30.187 58.1465C29.6499 58.1465 29.1567 58.0537 28.7075 57.8682C28.2632 57.6777 27.8774 57.4043 27.5503 57.0479C27.228 56.6914 26.9766 56.2544 26.7959 55.7368C26.6201 55.2192 26.5322 54.6309 26.5322 53.9717C26.5322 53.0928 26.6812 52.3457 26.979 51.7305C27.2769 51.1104 27.7017 50.6392 28.2534 50.3169C28.8101 49.9897 29.4717 49.8262 30.2383 49.8262C30.9707 49.8262 31.6104 49.9897 32.1572 50.3169C32.709 50.644 33.1362 51.1177 33.439 51.7378C33.7466 52.353 33.9004 53.0977 33.9004 53.9717ZM27.792 53.9717C27.792 54.6162 27.8774 55.1753 28.0483 55.6489C28.2192 56.1226 28.4829 56.4888 28.8394 56.7476C29.1958 57.0063 29.6548 57.1357 30.2163 57.1357C30.7729 57.1357 31.2295 57.0063 31.5859 56.7476C31.9473 56.4888 32.2134 56.1226 32.3843 55.6489C32.5552 55.1753 32.6406 54.6162 32.6406 53.9717C32.6406 53.332 32.5552 52.7803 32.3843 52.3164C32.2134 51.8477 31.9497 51.4863 31.5933 51.2324C31.2368 50.9785 30.7754 50.8516 30.209 50.8516C29.374 50.8516 28.7612 51.1274 28.3706 51.6792C27.9849 52.231 27.792 52.9951 27.792 53.9717ZM39.0054 49.8408C39.9624 49.8408 40.6729 50.0557 41.1367 50.4854C41.6006 50.915 41.8325 51.6011 41.8325 52.5435V58H40.9463L40.7119 56.8135H40.6533C40.4287 57.1064 40.1943 57.353 39.9502 57.5532C39.7061 57.7485 39.4229 57.8975 39.1006 58C38.7832 58.0977 38.3926 58.1465 37.9287 58.1465C37.4404 58.1465 37.0059 58.061 36.625 57.8901C36.249 57.7192 35.9512 57.4604 35.7314 57.1138C35.5166 56.7671 35.4092 56.3276 35.4092 55.7954C35.4092 54.9946 35.7266 54.3794 36.3613 53.9497C36.9961 53.52 37.9629 53.2856 39.2617 53.2466L40.646 53.188V52.6973C40.646 52.0039 40.4971 51.5181 40.1992 51.2397C39.9014 50.9614 39.4814 50.8223 38.9395 50.8223C38.5195 50.8223 38.1191 50.8833 37.7383 51.0054C37.3574 51.1274 36.9961 51.2715 36.6543 51.4375L36.2808 50.5146C36.6421 50.3291 37.0571 50.1704 37.5259 50.0386C37.9946 49.9067 38.4878 49.8408 39.0054 49.8408ZM40.6313 54.0449L39.4082 54.0962C38.4072 54.1353 37.7017 54.2988 37.2915 54.5869C36.8813 54.875 36.6763 55.2827 36.6763 55.8101C36.6763 56.269 36.8154 56.6084 37.0938 56.8281C37.3721 57.0479 37.7407 57.1577 38.1997 57.1577C38.9126 57.1577 39.4961 56.96 39.9502 56.5645C40.4043 56.1689 40.6313 55.5757 40.6313 54.7847V54.0449ZM47.9849 49.8262C48.146 49.8262 48.3145 49.8359 48.4902 49.8555C48.666 49.8701 48.8223 49.8921 48.959 49.9214L48.8052 51.0493C48.6733 51.0151 48.5269 50.9883 48.3657 50.9688C48.2046 50.9492 48.0532 50.9395 47.9116 50.9395C47.5894 50.9395 47.2842 51.0054 46.9961 51.1372C46.7129 51.2642 46.4639 51.4497 46.249 51.6938C46.0342 51.9331 45.8657 52.2236 45.7437 52.5654C45.6216 52.9023 45.5605 53.2783 45.5605 53.6934V58H44.3374V49.9727H45.3481L45.48 51.4521H45.5312C45.6973 51.1543 45.8975 50.8833 46.1318 50.6392C46.3662 50.3901 46.6372 50.1924 46.9448 50.0459C47.2573 49.8994 47.604 49.8262 47.9849 49.8262ZM53.3315 58.1465C52.3159 58.1465 51.5103 57.7998 50.9146 57.1064C50.3237 56.4131 50.0283 55.3828 50.0283 54.0156C50.0283 52.6338 50.3311 51.5913 50.9365 50.8882C51.542 50.1802 52.3477 49.8262 53.3535 49.8262C53.7783 49.8262 54.1494 49.8823 54.4668 49.9946C54.7842 50.1069 55.0576 50.2583 55.2871 50.4487C55.5166 50.6343 55.7095 50.8467 55.8657 51.0859H55.9536C55.9341 50.9346 55.9146 50.7271 55.895 50.4634C55.8755 50.1997 55.8657 49.9849 55.8657 49.8188V46.6035H57.0815V58H56.1001L55.917 56.8574H55.8657C55.7144 57.0967 55.5215 57.314 55.2871 57.5093C55.0576 57.7046 54.7817 57.8608 54.4595 57.978C54.1421 58.0903 53.7661 58.1465 53.3315 58.1465ZM53.522 57.1357C54.3813 57.1357 54.9893 56.8916 55.3457 56.4033C55.7021 55.915 55.8804 55.1899 55.8804 54.228V54.0083C55.8804 52.9878 55.7095 52.2041 55.3677 51.6572C55.0308 51.1104 54.4155 50.8369 53.522 50.8369C52.7749 50.8369 52.2158 51.125 51.8447 51.7012C51.4736 52.2725 51.2881 53.0537 51.2881 54.0449C51.2881 55.0312 51.4712 55.793 51.8374 56.3301C52.2085 56.8672 52.77 57.1357 53.522 57.1357Z" fill="#42526E"/>
</svg>
