<svg width="75" height="76" viewBox="0 0 75 76" fill="none" xmlns="http://www.w3.org/2000/svg">
<path d="M43.961 18.6923L43.961 35.3077C43.9606 35.7972 43.7659 36.2665 43.4198 36.6126C43.0737 36.9587 42.6044 37.1534 42.1149 37.1539L38.4226 37.1539C37.9331 37.1534 37.4638 36.9587 37.1177 36.6126C36.7716 36.2665 36.5769 35.7972 36.5764 35.3077L36.5764 18.6923C36.5769 18.2028 36.7716 17.7335 37.1177 17.3874C37.4638 17.0413 37.9331 16.8467 38.4226 16.8462L42.1149 16.8462C42.6044 16.8467 43.0737 17.0413 43.4198 17.3874C43.7659 17.7335 43.9606 18.2028 43.961 18.6923ZM38.4226 35.3077L42.1149 35.3077L42.1149 18.6923L38.4226 18.6923L38.4226 35.3077ZM38.4226 18.6923L38.4226 35.3077C38.4221 35.7972 38.2274 36.2665 37.8813 36.6126C37.5352 36.9587 37.0659 37.1533 36.5764 37.1538L32.8841 37.1538C32.3946 37.1533 31.9254 36.9587 31.5792 36.6126C31.2331 36.2665 31.0385 35.7972 31.038 35.3077L31.038 18.6923C31.0385 18.2028 31.2331 17.7335 31.5792 17.3874C31.9254 17.0413 32.3946 16.8466 32.8841 16.8461L36.5764 16.8461C37.0659 16.8466 37.5352 17.0413 37.8813 17.3874C38.2274 17.7335 38.4221 18.2028 38.4226 18.6923ZM32.8841 35.3077L36.5764 35.3077L36.5764 18.6923L32.8841 18.6923L32.8841 35.3077ZM32.8841 18.6923L32.8841 35.3077C32.8836 35.7972 32.689 36.2665 32.3429 36.6126C31.9967 36.9587 31.5275 37.1533 31.038 37.1538L27.3457 37.1538C26.8562 37.1533 26.3869 36.9587 26.0408 36.6126C25.6947 36.2665 25.5 35.7972 25.4995 35.3077L25.4995 18.6923C25.5 18.2028 25.6947 17.7335 26.0408 17.3874C26.3869 17.0413 26.8562 16.8466 27.3457 16.8461L31.038 16.8461C31.5275 16.8466 31.9967 17.0413 32.3429 17.3874C32.689 17.7335 32.8836 18.2028 32.8841 18.6923ZM27.3457 35.3077L31.038 35.3077L31.038 18.6923L27.3457 18.6923L27.3457 35.3077Z" fill="#4589FF"/>
<path d="M49.4995 18.6925L49.4995 35.3079C49.499 35.7974 49.3044 36.2667 48.9582 36.6128C48.6121 36.9589 48.1428 37.1536 47.6534 37.1541L43.9611 37.1541C43.4716 37.1536 43.0023 36.9589 42.6562 36.6128C42.31 36.2667 42.1154 35.7972 42.1149 35.3077L42.1149 18.6923C42.1154 18.2028 42.31 17.7337 42.6562 17.3876C43.0023 17.0415 43.4716 16.8469 43.961 16.8464L47.6534 16.8464C48.1428 16.8469 48.6121 17.0415 48.9582 17.3876C49.3044 17.7337 49.499 18.203 49.4995 18.6925ZM43.961 35.3077L47.6534 35.3079L47.6534 18.6925L43.961 18.6923L43.961 35.3077Z" fill="#4589FF"/>
<path d="M17.4644 47.292H20.4966C21.8345 47.292 22.8403 47.4922 23.5142 47.8926C24.188 48.293 24.5249 48.9741 24.5249 49.936C24.5249 50.3511 24.4443 50.7246 24.2832 51.0566C24.127 51.3838 23.8975 51.6548 23.5947 51.8696C23.292 52.0845 22.9185 52.2334 22.4741 52.3164V52.3896C22.9429 52.4629 23.3579 52.5972 23.7192 52.7925C24.0806 52.9878 24.3638 53.2612 24.5688 53.6128C24.7739 53.9644 24.8765 54.4111 24.8765 54.9531C24.8765 55.6123 24.7227 56.1689 24.415 56.623C24.1123 57.0771 23.6826 57.4214 23.126 57.6558C22.5693 57.8853 21.9102 58 21.1484 58H17.4644V47.292ZM18.7095 51.8843H20.7603C21.6929 51.8843 22.3374 51.7305 22.6938 51.4229C23.0552 51.1152 23.2358 50.666 23.2358 50.0752C23.2358 49.4648 23.021 49.0254 22.5913 48.7568C22.1665 48.4883 21.4878 48.354 20.5552 48.354H18.7095V51.8843ZM18.7095 52.9316V56.938H20.936C21.8882 56.938 22.562 56.7524 22.9575 56.3813C23.353 56.0054 23.5508 55.5 23.5508 54.8652C23.5508 54.46 23.4604 54.1133 23.2798 53.8252C23.104 53.5371 22.8159 53.3174 22.4155 53.166C22.02 53.0098 21.4902 52.9316 20.8262 52.9316H18.7095ZM33.8999 53.9717C33.8999 54.6309 33.8145 55.2192 33.6436 55.7368C33.4727 56.2544 33.2261 56.6914 32.9038 57.0479C32.5815 57.4043 32.1909 57.6777 31.7319 57.8682C31.2778 58.0537 30.7627 58.1465 30.1865 58.1465C29.6494 58.1465 29.1562 58.0537 28.707 57.8682C28.2627 57.6777 27.877 57.4043 27.5498 57.0479C27.2275 56.6914 26.9761 56.2544 26.7954 55.7368C26.6196 55.2192 26.5317 54.6309 26.5317 53.9717C26.5317 53.0928 26.6807 52.3457 26.9785 51.7305C27.2764 51.1104 27.7012 50.6392 28.2529 50.3169C28.8096 49.9897 29.4712 49.8262 30.2378 49.8262C30.9702 49.8262 31.6099 49.9897 32.1567 50.3169C32.7085 50.644 33.1357 51.1177 33.4385 51.7378C33.7461 52.353 33.8999 53.0977 33.8999 53.9717ZM27.7915 53.9717C27.7915 54.6162 27.877 55.1753 28.0479 55.6489C28.2188 56.1226 28.4824 56.4888 28.8389 56.7476C29.1953 57.0063 29.6543 57.1357 30.2158 57.1357C30.7725 57.1357 31.229 57.0063 31.5854 56.7476C31.9468 56.4888 32.2129 56.1226 32.3838 55.6489C32.5547 55.1753 32.6401 54.6162 32.6401 53.9717C32.6401 53.332 32.5547 52.7803 32.3838 52.3164C32.2129 51.8477 31.9492 51.4863 31.5928 51.2324C31.2363 50.9785 30.7749 50.8516 30.2085 50.8516C29.3735 50.8516 28.7607 51.1274 28.3701 51.6792C27.9844 52.231 27.7915 52.9951 27.7915 53.9717ZM39.0049 49.8408C39.9619 49.8408 40.6724 50.0557 41.1362 50.4854C41.6001 50.915 41.832 51.6011 41.832 52.5435V58H40.9458L40.7114 56.8135H40.6528C40.4282 57.1064 40.1938 57.353 39.9497 57.5532C39.7056 57.7485 39.4224 57.8975 39.1001 58C38.7827 58.0977 38.3921 58.1465 37.9282 58.1465C37.4399 58.1465 37.0054 58.061 36.6245 57.8901C36.2485 57.7192 35.9507 57.4604 35.731 57.1138C35.5161 56.7671 35.4087 56.3276 35.4087 55.7954C35.4087 54.9946 35.7261 54.3794 36.3608 53.9497C36.9956 53.52 37.9624 53.2856 39.2612 53.2466L40.6455 53.188V52.6973C40.6455 52.0039 40.4966 51.5181 40.1987 51.2397C39.9009 50.9614 39.481 50.8223 38.939 50.8223C38.519 50.8223 38.1187 50.8833 37.7378 51.0054C37.3569 51.1274 36.9956 51.2715 36.6538 51.4375L36.2803 50.5146C36.6416 50.3291 37.0566 50.1704 37.5254 50.0386C37.9941 49.9067 38.4873 49.8408 39.0049 49.8408ZM40.6309 54.0449L39.4077 54.0962C38.4067 54.1353 37.7012 54.2988 37.291 54.5869C36.8809 54.875 36.6758 55.2827 36.6758 55.8101C36.6758 56.269 36.8149 56.6084 37.0933 56.8281C37.3716 57.0479 37.7402 57.1577 38.1992 57.1577C38.9121 57.1577 39.4956 56.96 39.9497 56.5645C40.4038 56.1689 40.6309 55.5757 40.6309 54.7847V54.0449ZM47.9844 49.8262C48.1455 49.8262 48.314 49.8359 48.4897 49.8555C48.6655 49.8701 48.8218 49.8921 48.9585 49.9214L48.8047 51.0493C48.6729 51.0151 48.5264 50.9883 48.3652 50.9688C48.2041 50.9492 48.0527 50.9395 47.9111 50.9395C47.5889 50.9395 47.2837 51.0054 46.9956 51.1372C46.7124 51.2642 46.4634 51.4497 46.2485 51.6938C46.0337 51.9331 45.8652 52.2236 45.7432 52.5654C45.6211 52.9023 45.5601 53.2783 45.5601 53.6934V58H44.3369V49.9727H45.3477L45.4795 51.4521H45.5308C45.6968 51.1543 45.897 50.8833 46.1313 50.6392C46.3657 50.3901 46.6367 50.1924 46.9443 50.0459C47.2568 49.8994 47.6035 49.8262 47.9844 49.8262ZM53.3311 58.1465C52.3154 58.1465 51.5098 57.7998 50.9141 57.1064C50.3232 56.4131 50.0278 55.3828 50.0278 54.0156C50.0278 52.6338 50.3306 51.5913 50.936 50.8882C51.5415 50.1802 52.3472 49.8262 53.353 49.8262C53.7778 49.8262 54.1489 49.8823 54.4663 49.9946C54.7837 50.1069 55.0571 50.2583 55.2866 50.4487C55.5161 50.6343 55.709 50.8467 55.8652 51.0859H55.9531C55.9336 50.9346 55.9141 50.7271 55.8945 50.4634C55.875 50.1997 55.8652 49.9849 55.8652 49.8188V46.6035H57.0811V58H56.0996L55.9165 56.8574H55.8652C55.7139 57.0967 55.521 57.314 55.2866 57.5093C55.0571 57.7046 54.7812 57.8608 54.459 57.978C54.1416 58.0903 53.7656 58.1465 53.3311 58.1465ZM53.5215 57.1357C54.3809 57.1357 54.9888 56.8916 55.3452 56.4033C55.7017 55.915 55.8799 55.1899 55.8799 54.228V54.0083C55.8799 52.9878 55.709 52.2041 55.3672 51.6572C55.0303 51.1104 54.415 50.8369 53.5215 50.8369C52.7744 50.8369 52.2153 51.125 51.8442 51.7012C51.4731 52.2725 51.2876 53.0537 51.2876 54.0449C51.2876 55.0312 51.4707 55.793 51.8369 56.3301C52.208 56.8672 52.7695 57.1357 53.5215 57.1357Z" fill="#4589FF"/>
</svg>
