<svg width="75" height="76" viewBox="0 0 75 76" fill="none" xmlns="http://www.w3.org/2000/svg">
<mask id="mask0_62771_906" style="mask-type:alpha" maskUnits="userSpaceOnUse" x="25" y="15" width="25" height="24">
<rect x="25.5" y="15" width="24" height="24" fill="#D9D9D9"/>
</mask>
<g mask="url(#mask0_62771_906)">
<path d="M37.5002 34.2C36.3802 34.2 35.3102 34.375 34.2902 34.725C33.2702 35.075 32.3402 35.6 31.5002 36.3V36.6H43.5002V36.3C42.6602 35.6 41.7302 35.075 40.7102 34.725C39.6902 34.375 38.6202 34.2 37.5002 34.2ZM29.1002 35.22C30.1802 34.16 31.4352 33.325 32.8652 32.715C34.2952 32.105 35.8402 31.8 37.5002 31.8C39.1602 31.8 40.7052 32.105 42.1352 32.715C43.5652 33.325 44.8202 34.16 45.9002 35.22V19.8H29.1002V35.22ZM37.5002 29.4C36.3402 29.4 35.3502 28.99 34.5302 28.17C33.7102 27.35 33.3002 26.36 33.3002 25.2C33.3002 24.04 33.7102 23.05 34.5302 22.23C35.3502 21.41 36.3402 21 37.5002 21C38.6602 21 39.6502 21.41 40.4702 22.23C41.2902 23.05 41.7002 24.04 41.7002 25.2C41.7002 26.36 41.2902 27.35 40.4702 28.17C39.6502 28.99 38.6602 29.4 37.5002 29.4ZM37.5002 27C38.0002 27 38.4252 26.825 38.7752 26.475C39.1252 26.125 39.3002 25.7 39.3002 25.2C39.3002 24.7 39.1252 24.275 38.7752 23.925C38.4252 23.575 38.0002 23.4 37.5002 23.4C37.0002 23.4 36.5752 23.575 36.2252 23.925C35.8752 24.275 35.7002 24.7 35.7002 25.2C35.7002 25.7 35.8752 26.125 36.2252 26.475C36.5752 26.825 37.0002 27 37.5002 27ZM29.1002 39C28.4402 39 27.8752 38.765 27.4052 38.295C26.9352 37.825 26.7002 37.26 26.7002 36.6V19.8C26.7002 19.14 26.9352 18.575 27.4052 18.105C27.8752 17.635 28.4402 17.4 29.1002 17.4H30.3002V16.2C30.3002 15.5373 30.8375 15 31.5002 15C32.1629 15 32.7002 15.5373 32.7002 16.2V17.4H42.3002V16.2C42.3002 15.5373 42.8375 15 43.5002 15C44.1629 15 44.7002 15.5373 44.7002 16.2V17.4H45.9002C46.5602 17.4 47.1252 17.635 47.5952 18.105C48.0652 18.575 48.3002 19.14 48.3002 19.8V36.6C48.3002 37.26 48.0652 37.825 47.5952 38.295C47.1252 38.765 46.5602 39 45.9002 39H29.1002Z" fill="#42526E"/>
</g>
<path d="M12.5425 48.2368C11.9517 48.2368 11.4194 48.3394 10.9458 48.5444C10.4771 48.7446 10.0767 49.0376 9.74463 49.4233C9.41748 49.8042 9.16602 50.2656 8.99023 50.8076C8.81445 51.3496 8.72656 51.96 8.72656 52.6387C8.72656 53.5371 8.86572 54.3184 9.14404 54.9824C9.42725 55.6416 9.84717 56.1519 10.4038 56.5132C10.9653 56.8745 11.666 57.0552 12.5059 57.0552C12.9844 57.0552 13.4336 57.0161 13.8535 56.938C14.2783 56.855 14.6909 56.7524 15.0913 56.6304V57.7144C14.7007 57.8608 14.2905 57.9683 13.8608 58.0366C13.4312 58.1099 12.9209 58.1465 12.3301 58.1465C11.2412 58.1465 10.3306 57.9219 9.59814 57.4727C8.87061 57.0186 8.32373 56.3789 7.95752 55.5537C7.59619 54.7285 7.41553 53.7544 7.41553 52.6313C7.41553 51.8208 7.52783 51.0811 7.75244 50.4121C7.98193 49.7383 8.31396 49.1572 8.74854 48.6689C9.18799 48.1807 9.7251 47.8047 10.3599 47.541C10.9995 47.2725 11.7319 47.1382 12.5571 47.1382C13.0991 47.1382 13.6216 47.1919 14.1245 47.2993C14.6274 47.4067 15.0815 47.5605 15.4868 47.7607L14.9888 48.8154C14.647 48.6592 14.271 48.5249 13.8608 48.4126C13.4556 48.2954 13.0161 48.2368 12.5425 48.2368ZM24.1514 53.9717C24.1514 54.6309 24.0659 55.2192 23.895 55.7368C23.7241 56.2544 23.4775 56.6914 23.1553 57.0479C22.833 57.4043 22.4424 57.6777 21.9834 57.8682C21.5293 58.0537 21.0142 58.1465 20.438 58.1465C19.9009 58.1465 19.4077 58.0537 18.9585 57.8682C18.5142 57.6777 18.1284 57.4043 17.8013 57.0479C17.479 56.6914 17.2275 56.2544 17.0469 55.7368C16.8711 55.2192 16.7832 54.6309 16.7832 53.9717C16.7832 53.0928 16.9321 52.3457 17.23 51.7305C17.5278 51.1104 17.9526 50.6392 18.5044 50.3169C19.061 49.9897 19.7227 49.8262 20.4893 49.8262C21.2217 49.8262 21.8613 49.9897 22.4082 50.3169C22.96 50.644 23.3872 51.1177 23.6899 51.7378C23.9976 52.353 24.1514 53.0977 24.1514 53.9717ZM18.043 53.9717C18.043 54.6162 18.1284 55.1753 18.2993 55.6489C18.4702 56.1226 18.7339 56.4888 19.0903 56.7476C19.4468 57.0063 19.9058 57.1357 20.4673 57.1357C21.0239 57.1357 21.4805 57.0063 21.8369 56.7476C22.1982 56.4888 22.4644 56.1226 22.6353 55.6489C22.8062 55.1753 22.8916 54.6162 22.8916 53.9717C22.8916 53.332 22.8062 52.7803 22.6353 52.3164C22.4644 51.8477 22.2007 51.4863 21.8442 51.2324C21.4878 50.9785 21.0264 50.8516 20.46 50.8516C19.625 50.8516 19.0122 51.1274 18.6216 51.6792C18.2358 52.231 18.043 52.9951 18.043 53.9717ZM30.0547 49.8262C31.0068 49.8262 31.7271 50.0605 32.2153 50.5293C32.7036 50.9932 32.9478 51.7402 32.9478 52.7705V58H31.7466V52.8511C31.7466 52.1821 31.5928 51.6816 31.2852 51.3496C30.9824 51.0176 30.5161 50.8516 29.8862 50.8516C28.9976 50.8516 28.3726 51.103 28.0112 51.606C27.6499 52.1089 27.4692 52.8389 27.4692 53.7959V58H26.2534V49.9727H27.2349L27.418 51.1299H27.4839C27.6548 50.8467 27.8721 50.6099 28.1357 50.4194C28.3994 50.2241 28.6948 50.0776 29.022 49.98C29.3491 49.8774 29.6934 49.8262 30.0547 49.8262ZM38.0454 57.1504C38.2456 57.1504 38.4507 57.1333 38.6606 57.0991C38.8706 57.0649 39.0415 57.0234 39.1733 56.9746V57.9194C39.0317 57.9829 38.834 58.0366 38.5801 58.0806C38.3311 58.1245 38.0869 58.1465 37.8477 58.1465C37.4229 58.1465 37.0371 58.0732 36.6904 57.9268C36.3438 57.7754 36.0654 57.5215 35.8555 57.165C35.6504 56.8086 35.5479 56.3154 35.5479 55.6855V50.9248H34.4053V50.3315L35.5552 49.8555L36.0386 48.1123H36.771V49.9727H39.1221V50.9248H36.771V55.6489C36.771 56.1519 36.8857 56.5278 37.1152 56.7769C37.3496 57.0259 37.6597 57.1504 38.0454 57.1504ZM43.8022 49.8408C44.7593 49.8408 45.4697 50.0557 45.9336 50.4854C46.3975 50.915 46.6294 51.6011 46.6294 52.5435V58H45.7432L45.5088 56.8135H45.4502C45.2256 57.1064 44.9912 57.353 44.7471 57.5532C44.5029 57.7485 44.2197 57.8975 43.8975 58C43.5801 58.0977 43.1895 58.1465 42.7256 58.1465C42.2373 58.1465 41.8027 58.061 41.4219 57.8901C41.0459 57.7192 40.748 57.4604 40.5283 57.1138C40.3135 56.7671 40.2061 56.3276 40.2061 55.7954C40.2061 54.9946 40.5234 54.3794 41.1582 53.9497C41.793 53.52 42.7598 53.2856 44.0586 53.2466L45.4429 53.188V52.6973C45.4429 52.0039 45.2939 51.5181 44.9961 51.2397C44.6982 50.9614 44.2783 50.8223 43.7363 50.8223C43.3164 50.8223 42.916 50.8833 42.5352 51.0054C42.1543 51.1274 41.793 51.2715 41.4512 51.4375L41.0776 50.5146C41.439 50.3291 41.854 50.1704 42.3228 50.0386C42.7915 49.9067 43.2847 49.8408 43.8022 49.8408ZM45.4282 54.0449L44.2051 54.0962C43.2041 54.1353 42.4985 54.2988 42.0884 54.5869C41.6782 54.875 41.4731 55.2827 41.4731 55.8101C41.4731 56.269 41.6123 56.6084 41.8906 56.8281C42.1689 57.0479 42.5376 57.1577 42.9966 57.1577C43.7095 57.1577 44.293 56.96 44.7471 56.5645C45.2012 56.1689 45.4282 55.5757 45.4282 54.7847V54.0449ZM52.3496 58.1465C51.627 58.1465 50.9897 57.9976 50.438 57.6997C49.8862 57.4019 49.4565 56.9478 49.1489 56.3374C48.8413 55.7271 48.6875 54.958 48.6875 54.0303C48.6875 53.0586 48.8486 52.2651 49.1709 51.6499C49.498 51.0298 49.9473 50.5708 50.5186 50.2729C51.0898 49.9751 51.7393 49.8262 52.4668 49.8262C52.8672 49.8262 53.2529 49.8677 53.624 49.9507C54 50.0288 54.3076 50.1289 54.5469 50.251L54.1807 51.269C53.9365 51.1714 53.6533 51.0835 53.3311 51.0054C53.0137 50.9272 52.7158 50.8882 52.4375 50.8882C51.8809 50.8882 51.417 51.0078 51.0459 51.2471C50.6797 51.4863 50.4038 51.8379 50.2183 52.3018C50.0376 52.7656 49.9473 53.3369 49.9473 54.0156C49.9473 54.665 50.0352 55.2192 50.2109 55.6782C50.3916 56.1372 50.6577 56.4888 51.0093 56.7329C51.3657 56.9722 51.8101 57.0918 52.3423 57.0918C52.7671 57.0918 53.1504 57.0479 53.4922 56.96C53.834 56.8672 54.144 56.7598 54.4224 56.6377V57.7217C54.1538 57.8584 53.8535 57.9634 53.5215 58.0366C53.1943 58.1099 52.8037 58.1465 52.3496 58.1465ZM58.9194 57.1504C59.1196 57.1504 59.3247 57.1333 59.5347 57.0991C59.7446 57.0649 59.9155 57.0234 60.0474 56.9746V57.9194C59.9058 57.9829 59.708 58.0366 59.4541 58.0806C59.2051 58.1245 58.9609 58.1465 58.7217 58.1465C58.2969 58.1465 57.9111 58.0732 57.5645 57.9268C57.2178 57.7754 56.9395 57.5215 56.7295 57.165C56.5244 56.8086 56.4219 56.3154 56.4219 55.6855V50.9248H55.2793V50.3315L56.4292 49.8555L56.9126 48.1123H57.645V49.9727H59.9961V50.9248H57.645V55.6489C57.645 56.1519 57.7598 56.5278 57.9893 56.7769C58.2236 57.0259 58.5337 57.1504 58.9194 57.1504ZM66.8662 55.8027C66.8662 56.3154 66.7368 56.7476 66.478 57.0991C66.2241 57.4458 65.8579 57.707 65.3794 57.8828C64.9058 58.0586 64.3394 58.1465 63.6802 58.1465C63.1187 58.1465 62.6328 58.1025 62.2227 58.0146C61.8125 57.9268 61.4536 57.8022 61.146 57.6411V56.5205C61.4731 56.6816 61.8638 56.8281 62.3179 56.96C62.772 57.0918 63.2358 57.1577 63.7095 57.1577C64.4028 57.1577 64.9058 57.0454 65.2183 56.8208C65.5308 56.5962 65.687 56.291 65.687 55.9053C65.687 55.6855 65.6235 55.4927 65.4966 55.3267C65.3745 55.1558 65.167 54.9922 64.874 54.8359C64.5811 54.6748 64.1758 54.499 63.6582 54.3086C63.1455 54.1133 62.7012 53.9204 62.3252 53.73C61.9541 53.5347 61.666 53.2979 61.4609 53.0195C61.2607 52.7412 61.1606 52.3799 61.1606 51.9355C61.1606 51.2568 61.4341 50.7368 61.981 50.3755C62.5327 50.0093 63.2554 49.8262 64.1489 49.8262C64.6323 49.8262 65.084 49.875 65.5039 49.9727C65.9287 50.0654 66.3242 50.1924 66.6904 50.3535L66.2803 51.3276C65.9482 51.186 65.5942 51.0664 65.2183 50.9688C64.8423 50.8711 64.459 50.8223 64.0684 50.8223C63.5068 50.8223 63.0747 50.915 62.772 51.1006C62.4741 51.2861 62.3252 51.54 62.3252 51.8623C62.3252 52.1113 62.3936 52.3164 62.5303 52.4775C62.6719 52.6387 62.8965 52.79 63.2041 52.9316C63.5117 53.0732 63.917 53.2393 64.4199 53.4297C64.9229 53.6152 65.3574 53.8081 65.7236 54.0083C66.0898 54.2036 66.3706 54.4429 66.5659 54.7261C66.7661 55.0044 66.8662 55.3633 66.8662 55.8027Z" fill="#42526E"/>
</svg>
