<svg width="75" height="76" viewBox="0 0 75 76" fill="none" xmlns="http://www.w3.org/2000/svg">
<mask id="mask0_18260_7748" style="mask-type:alpha" maskUnits="userSpaceOnUse" x="25" y="15" width="25" height="24">
<rect x="25.4995" y="15" width="24" height="24" fill="#D9D9D9"/>
</mask>
<g mask="url(#mask0_18260_7748)">
<path d="M37.4997 34.2C36.3797 34.2 35.3097 34.375 34.2897 34.725C33.2697 35.075 32.3397 35.6 31.4997 36.3V36.6H43.4997V36.3C42.6597 35.6 41.7297 35.075 40.7097 34.725C39.6897 34.375 38.6197 34.2 37.4997 34.2ZM29.0997 35.22C30.1797 34.16 31.4347 33.325 32.8647 32.715C34.2947 32.105 35.8397 31.8 37.4997 31.8C39.1597 31.8 40.7047 32.105 42.1347 32.715C43.5647 33.325 44.8197 34.16 45.8997 35.22V19.8H29.0997V35.22ZM37.4997 29.4C36.3397 29.4 35.3497 28.99 34.5297 28.17C33.7097 27.35 33.2997 26.36 33.2997 25.2C33.2997 24.04 33.7097 23.05 34.5297 22.23C35.3497 21.41 36.3397 21 37.4997 21C38.6597 21 39.6497 21.41 40.4697 22.23C41.2897 23.05 41.6997 24.04 41.6997 25.2C41.6997 26.36 41.2897 27.35 40.4697 28.17C39.6497 28.99 38.6597 29.4 37.4997 29.4ZM37.4997 27C37.9997 27 38.4247 26.825 38.7747 26.475C39.1247 26.125 39.2997 25.7 39.2997 25.2C39.2997 24.7 39.1247 24.275 38.7747 23.925C38.4247 23.575 37.9997 23.4 37.4997 23.4C36.9997 23.4 36.5747 23.575 36.2247 23.925C35.8747 24.275 35.6997 24.7 35.6997 25.2C35.6997 25.7 35.8747 26.125 36.2247 26.475C36.5747 26.825 36.9997 27 37.4997 27ZM29.0997 39C28.4397 39 27.8747 38.765 27.4047 38.295C26.9347 37.825 26.6997 37.26 26.6997 36.6V19.8C26.6997 19.14 26.9347 18.575 27.4047 18.105C27.8747 17.635 28.4397 17.4 29.0997 17.4H30.2997V16.2C30.2997 15.5373 30.837 15 31.4997 15C32.1624 15 32.6997 15.5373 32.6997 16.2V17.4H42.2997V16.2C42.2997 15.5373 42.837 15 43.4997 15C44.1624 15 44.6997 15.5373 44.6997 16.2V17.4H45.8997C46.5597 17.4 47.1247 17.635 47.5947 18.105C48.0647 18.575 48.2997 19.14 48.2997 19.8V36.6C48.2997 37.26 48.0647 37.825 47.5947 38.295C47.1247 38.765 46.5597 39 45.8997 39H29.0997Z" fill="#4589FF"/>
</g>
<path d="M12.542 48.2368C11.9512 48.2368 11.4189 48.3394 10.9453 48.5444C10.4766 48.7446 10.0762 49.0376 9.74414 49.4233C9.41699 49.8042 9.16553 50.2656 8.98975 50.8076C8.81396 51.3496 8.72607 51.96 8.72607 52.6387C8.72607 53.5371 8.86523 54.3184 9.14355 54.9824C9.42676 55.6416 9.84668 56.1519 10.4033 56.5132C10.9648 56.8745 11.6655 57.0552 12.5054 57.0552C12.9839 57.0552 13.4331 57.0161 13.853 56.938C14.2778 56.855 14.6904 56.7524 15.0908 56.6304V57.7144C14.7002 57.8608 14.29 57.9683 13.8604 58.0366C13.4307 58.1099 12.9204 58.1465 12.3296 58.1465C11.2407 58.1465 10.3301 57.9219 9.59766 57.4727C8.87012 57.0186 8.32324 56.3789 7.95703 55.5537C7.5957 54.7285 7.41504 53.7544 7.41504 52.6313C7.41504 51.8208 7.52734 51.0811 7.75195 50.4121C7.98145 49.7383 8.31348 49.1572 8.74805 48.6689C9.1875 48.1807 9.72461 47.8047 10.3594 47.541C10.999 47.2725 11.7314 47.1382 12.5566 47.1382C13.0986 47.1382 13.6211 47.1919 14.124 47.2993C14.627 47.4067 15.0811 47.5605 15.4863 47.7607L14.9883 48.8154C14.6465 48.6592 14.2705 48.5249 13.8604 48.4126C13.4551 48.2954 13.0156 48.2368 12.542 48.2368ZM24.1509 53.9717C24.1509 54.6309 24.0654 55.2192 23.8945 55.7368C23.7236 56.2544 23.4771 56.6914 23.1548 57.0479C22.8325 57.4043 22.4419 57.6777 21.9829 57.8682C21.5288 58.0537 21.0137 58.1465 20.4375 58.1465C19.9004 58.1465 19.4072 58.0537 18.958 57.8682C18.5137 57.6777 18.1279 57.4043 17.8008 57.0479C17.4785 56.6914 17.2271 56.2544 17.0464 55.7368C16.8706 55.2192 16.7827 54.6309 16.7827 53.9717C16.7827 53.0928 16.9316 52.3457 17.2295 51.7305C17.5273 51.1104 17.9521 50.6392 18.5039 50.3169C19.0605 49.9897 19.7222 49.8262 20.4888 49.8262C21.2212 49.8262 21.8608 49.9897 22.4077 50.3169C22.9595 50.644 23.3867 51.1177 23.6895 51.7378C23.9971 52.353 24.1509 53.0977 24.1509 53.9717ZM18.0425 53.9717C18.0425 54.6162 18.1279 55.1753 18.2988 55.6489C18.4697 56.1226 18.7334 56.4888 19.0898 56.7476C19.4463 57.0063 19.9053 57.1357 20.4668 57.1357C21.0234 57.1357 21.48 57.0063 21.8364 56.7476C22.1978 56.4888 22.4639 56.1226 22.6348 55.6489C22.8057 55.1753 22.8911 54.6162 22.8911 53.9717C22.8911 53.332 22.8057 52.7803 22.6348 52.3164C22.4639 51.8477 22.2002 51.4863 21.8438 51.2324C21.4873 50.9785 21.0259 50.8516 20.4595 50.8516C19.6245 50.8516 19.0117 51.1274 18.6211 51.6792C18.2354 52.231 18.0425 52.9951 18.0425 53.9717ZM30.0542 49.8262C31.0063 49.8262 31.7266 50.0605 32.2148 50.5293C32.7031 50.9932 32.9473 51.7402 32.9473 52.7705V58H31.7461V52.8511C31.7461 52.1821 31.5923 51.6816 31.2847 51.3496C30.9819 51.0176 30.5156 50.8516 29.8857 50.8516C28.9971 50.8516 28.3721 51.103 28.0107 51.606C27.6494 52.1089 27.4688 52.8389 27.4688 53.7959V58H26.2529V49.9727H27.2344L27.4175 51.1299H27.4834C27.6543 50.8467 27.8716 50.6099 28.1353 50.4194C28.3989 50.2241 28.6943 50.0776 29.0215 49.98C29.3486 49.8774 29.6929 49.8262 30.0542 49.8262ZM38.0449 57.1504C38.2451 57.1504 38.4502 57.1333 38.6602 57.0991C38.8701 57.0649 39.041 57.0234 39.1729 56.9746V57.9194C39.0312 57.9829 38.8335 58.0366 38.5796 58.0806C38.3306 58.1245 38.0864 58.1465 37.8472 58.1465C37.4224 58.1465 37.0366 58.0732 36.6899 57.9268C36.3433 57.7754 36.0649 57.5215 35.855 57.165C35.6499 56.8086 35.5474 56.3154 35.5474 55.6855V50.9248H34.4048V50.3315L35.5547 49.8555L36.0381 48.1123H36.7705V49.9727H39.1216V50.9248H36.7705V55.6489C36.7705 56.1519 36.8853 56.5278 37.1147 56.7769C37.3491 57.0259 37.6592 57.1504 38.0449 57.1504ZM43.8018 49.8408C44.7588 49.8408 45.4692 50.0557 45.9331 50.4854C46.397 50.915 46.6289 51.6011 46.6289 52.5435V58H45.7427L45.5083 56.8135H45.4497C45.2251 57.1064 44.9907 57.353 44.7466 57.5532C44.5024 57.7485 44.2192 57.8975 43.897 58C43.5796 58.0977 43.189 58.1465 42.7251 58.1465C42.2368 58.1465 41.8022 58.061 41.4214 57.8901C41.0454 57.7192 40.7476 57.4604 40.5278 57.1138C40.313 56.7671 40.2056 56.3276 40.2056 55.7954C40.2056 54.9946 40.5229 54.3794 41.1577 53.9497C41.7925 53.52 42.7593 53.2856 44.0581 53.2466L45.4424 53.188V52.6973C45.4424 52.0039 45.2935 51.5181 44.9956 51.2397C44.6978 50.9614 44.2778 50.8223 43.7358 50.8223C43.3159 50.8223 42.9155 50.8833 42.5347 51.0054C42.1538 51.1274 41.7925 51.2715 41.4507 51.4375L41.0771 50.5146C41.4385 50.3291 41.8535 50.1704 42.3223 50.0386C42.791 49.9067 43.2842 49.8408 43.8018 49.8408ZM45.4277 54.0449L44.2046 54.0962C43.2036 54.1353 42.498 54.2988 42.0879 54.5869C41.6777 54.875 41.4727 55.2827 41.4727 55.8101C41.4727 56.269 41.6118 56.6084 41.8901 56.8281C42.1685 57.0479 42.5371 57.1577 42.9961 57.1577C43.709 57.1577 44.2925 56.96 44.7466 56.5645C45.2007 56.1689 45.4277 55.5757 45.4277 54.7847V54.0449ZM52.3491 58.1465C51.6265 58.1465 50.9893 57.9976 50.4375 57.6997C49.8857 57.4019 49.4561 56.9478 49.1484 56.3374C48.8408 55.7271 48.687 54.958 48.687 54.0303C48.687 53.0586 48.8481 52.2651 49.1704 51.6499C49.4976 51.0298 49.9468 50.5708 50.5181 50.2729C51.0894 49.9751 51.7388 49.8262 52.4663 49.8262C52.8667 49.8262 53.2524 49.8677 53.6235 49.9507C53.9995 50.0288 54.3071 50.1289 54.5464 50.251L54.1802 51.269C53.936 51.1714 53.6528 51.0835 53.3306 51.0054C53.0132 50.9272 52.7153 50.8882 52.437 50.8882C51.8804 50.8882 51.4165 51.0078 51.0454 51.2471C50.6792 51.4863 50.4033 51.8379 50.2178 52.3018C50.0371 52.7656 49.9468 53.3369 49.9468 54.0156C49.9468 54.665 50.0347 55.2192 50.2104 55.6782C50.3911 56.1372 50.6572 56.4888 51.0088 56.7329C51.3652 56.9722 51.8096 57.0918 52.3418 57.0918C52.7666 57.0918 53.1499 57.0479 53.4917 56.96C53.8335 56.8672 54.1436 56.7598 54.4219 56.6377V57.7217C54.1533 57.8584 53.853 57.9634 53.521 58.0366C53.1938 58.1099 52.8032 58.1465 52.3491 58.1465ZM58.9189 57.1504C59.1191 57.1504 59.3242 57.1333 59.5342 57.0991C59.7441 57.0649 59.915 57.0234 60.0469 56.9746V57.9194C59.9053 57.9829 59.7075 58.0366 59.4536 58.0806C59.2046 58.1245 58.9604 58.1465 58.7212 58.1465C58.2964 58.1465 57.9106 58.0732 57.564 57.9268C57.2173 57.7754 56.939 57.5215 56.729 57.165C56.5239 56.8086 56.4214 56.3154 56.4214 55.6855V50.9248H55.2788V50.3315L56.4287 49.8555L56.9121 48.1123H57.6445V49.9727H59.9956V50.9248H57.6445V55.6489C57.6445 56.1519 57.7593 56.5278 57.9888 56.7769C58.2231 57.0259 58.5332 57.1504 58.9189 57.1504ZM66.8657 55.8027C66.8657 56.3154 66.7363 56.7476 66.4775 57.0991C66.2236 57.4458 65.8574 57.707 65.3789 57.8828C64.9053 58.0586 64.3389 58.1465 63.6797 58.1465C63.1182 58.1465 62.6323 58.1025 62.2222 58.0146C61.812 57.9268 61.4531 57.8022 61.1455 57.6411V56.5205C61.4727 56.6816 61.8633 56.8281 62.3174 56.96C62.7715 57.0918 63.2354 57.1577 63.709 57.1577C64.4023 57.1577 64.9053 57.0454 65.2178 56.8208C65.5303 56.5962 65.6865 56.291 65.6865 55.9053C65.6865 55.6855 65.623 55.4927 65.4961 55.3267C65.374 55.1558 65.1665 54.9922 64.8735 54.8359C64.5806 54.6748 64.1753 54.499 63.6577 54.3086C63.145 54.1133 62.7007 53.9204 62.3247 53.73C61.9536 53.5347 61.6655 53.2979 61.4604 53.0195C61.2603 52.7412 61.1602 52.3799 61.1602 51.9355C61.1602 51.2568 61.4336 50.7368 61.9805 50.3755C62.5322 50.0093 63.2549 49.8262 64.1484 49.8262C64.6318 49.8262 65.0835 49.875 65.5034 49.9727C65.9282 50.0654 66.3237 50.1924 66.6899 50.3535L66.2798 51.3276C65.9478 51.186 65.5938 51.0664 65.2178 50.9688C64.8418 50.8711 64.4585 50.8223 64.0679 50.8223C63.5063 50.8223 63.0742 50.915 62.7715 51.1006C62.4736 51.2861 62.3247 51.54 62.3247 51.8623C62.3247 52.1113 62.3931 52.3164 62.5298 52.4775C62.6714 52.6387 62.896 52.79 63.2036 52.9316C63.5112 53.0732 63.9165 53.2393 64.4194 53.4297C64.9224 53.6152 65.3569 53.8081 65.7231 54.0083C66.0894 54.2036 66.3701 54.4429 66.5654 54.7261C66.7656 55.0044 66.8657 55.3633 66.8657 55.8027Z" fill="#4589FF"/>
</svg>
