<svg width="75" height="76" viewBox="0 0 75 76" fill="none" xmlns="http://www.w3.org/2000/svg">
<path d="M46.4995 16H28.4995C27.3949 16 26.4995 16.8965 26.4995 18.001C26.4995 18.0294 26.4995 18.0493 26.4995 18.0592V36.0592C26.4995 37.1311 27.3695 38 28.4414 38C28.4696 38 28.4895 38 28.4995 38H46.4995C46.5095 38 46.5294 38 46.5576 38C47.6295 38 48.4995 37.1311 48.4995 36.0592V18.0591C48.4995 18.0493 48.4995 18.0294 48.4995 18.001C48.4995 16.8965 47.6041 16 46.4995 16ZM39.4995 36.0592H28.4995V28.0591H39.4995V36.0592ZM39.4995 26.0591H28.4995V18.0592L39.4995 18.0591V26.0591ZM46.4995 36.0592H41.4995V18.0592H46.4995V36.0592Z" fill="#42526E"/>
<path d="M11.0068 55.1509C11.0068 55.7856 10.8481 56.3276 10.5308 56.7769C10.2183 57.2212 9.77881 57.5605 9.2124 57.7949C8.646 58.0293 7.97949 58.1465 7.21289 58.1465C6.80762 58.1465 6.42432 58.127 6.06299 58.0879C5.70166 58.0488 5.36963 57.9927 5.06689 57.9194C4.76416 57.8462 4.49805 57.7559 4.26855 57.6484V56.4546C4.63477 56.606 5.08154 56.7476 5.60889 56.8794C6.13623 57.0063 6.68799 57.0698 7.26416 57.0698C7.80127 57.0698 8.25537 56.999 8.62646 56.8574C8.99756 56.7109 9.27832 56.5034 9.46875 56.2349C9.66406 55.9614 9.76172 55.6343 9.76172 55.2534C9.76172 54.8872 9.68115 54.582 9.52002 54.3379C9.35889 54.0889 9.09033 53.8643 8.71436 53.6641C8.34326 53.459 7.83545 53.2417 7.19092 53.0122C6.73682 52.8511 6.33643 52.6753 5.98975 52.4849C5.64307 52.2896 5.35254 52.0698 5.11816 51.8257C4.88379 51.5815 4.70557 51.2983 4.5835 50.9761C4.46631 50.6538 4.40771 50.2852 4.40771 49.8701C4.40771 49.2988 4.55176 48.8105 4.83984 48.4053C5.13281 47.9951 5.53564 47.6826 6.04834 47.4678C6.56592 47.248 7.15918 47.1382 7.82812 47.1382C8.39941 47.1382 8.92676 47.1919 9.41016 47.2993C9.89844 47.4067 10.3452 47.5508 10.7505 47.7314L10.3623 48.8008C9.97656 48.6396 9.56641 48.5054 9.13184 48.3979C8.70215 48.2905 8.25781 48.2368 7.79883 48.2368C7.33984 48.2368 6.95166 48.3052 6.63428 48.4419C6.32178 48.5737 6.08252 48.7617 5.9165 49.0059C5.75049 49.25 5.66748 49.5405 5.66748 49.8774C5.66748 50.2534 5.74561 50.5659 5.90186 50.8149C6.06299 51.064 6.31689 51.2861 6.66357 51.4814C7.01514 51.6719 7.479 51.8721 8.05518 52.082C8.68506 52.3115 9.21973 52.5557 9.65918 52.8145C10.0986 53.0684 10.4331 53.3809 10.6626 53.752C10.8921 54.1182 11.0068 54.5845 11.0068 55.1509ZM19.6421 49.9727V58H18.646L18.4702 56.8721H18.4043C18.2383 57.1504 18.0234 57.3848 17.7598 57.5752C17.4961 57.7656 17.1982 57.9072 16.8662 58C16.5391 58.0977 16.1899 58.1465 15.8188 58.1465C15.1841 58.1465 14.6519 58.0439 14.2222 57.8389C13.7925 57.6338 13.4678 57.3164 13.248 56.8867C13.0332 56.457 12.9258 55.9053 12.9258 55.2314V49.9727H14.1562V55.1436C14.1562 55.8125 14.3076 56.313 14.6104 56.645C14.9131 56.9722 15.3745 57.1357 15.9946 57.1357C16.5903 57.1357 17.064 57.0234 17.4155 56.7988C17.772 56.5742 18.0283 56.2446 18.1846 55.8101C18.3408 55.3706 18.4189 54.8335 18.4189 54.1987V49.9727H19.6421ZM30.9287 49.8262C31.8125 49.8262 32.479 50.0581 32.9282 50.522C33.3774 50.981 33.6021 51.7207 33.6021 52.7412V58H32.4009V52.7998C32.4009 52.1504 32.2593 51.6646 31.9761 51.3423C31.6978 51.0151 31.2827 50.8516 30.731 50.8516C29.9546 50.8516 29.3906 51.0762 29.0391 51.5254C28.6875 51.9746 28.5117 52.6362 28.5117 53.5103V58H27.3032V52.7998C27.3032 52.3652 27.2397 52.0039 27.1128 51.7158C26.9907 51.4277 26.8052 51.2129 26.5562 51.0713C26.312 50.9248 26.002 50.8516 25.626 50.8516C25.0938 50.8516 24.6665 50.9614 24.3442 51.1812C24.022 51.4009 23.7876 51.728 23.6411 52.1626C23.4995 52.5923 23.4287 53.1221 23.4287 53.752V58H22.2129V49.9727H23.1943L23.3774 51.1079H23.4434C23.6045 50.8296 23.8071 50.5952 24.0513 50.4048C24.2954 50.2144 24.5688 50.0703 24.8716 49.9727C25.1743 49.875 25.4966 49.8262 25.8384 49.8262C26.4487 49.8262 26.959 49.9409 27.3691 50.1704C27.7842 50.395 28.0845 50.7393 28.27 51.2031H28.3359C28.5996 50.7393 28.9609 50.395 29.4199 50.1704C29.8789 49.9409 30.3818 49.8262 30.9287 49.8262ZM44.8154 49.8262C45.6992 49.8262 46.3657 50.0581 46.8149 50.522C47.2642 50.981 47.4888 51.7207 47.4888 52.7412V58H46.2876V52.7998C46.2876 52.1504 46.146 51.6646 45.8628 51.3423C45.5845 51.0151 45.1694 50.8516 44.6177 50.8516C43.8413 50.8516 43.2773 51.0762 42.9258 51.5254C42.5742 51.9746 42.3984 52.6362 42.3984 53.5103V58H41.1899V52.7998C41.1899 52.3652 41.1265 52.0039 40.9995 51.7158C40.8774 51.4277 40.6919 51.2129 40.4429 51.0713C40.1987 50.9248 39.8887 50.8516 39.5127 50.8516C38.9805 50.8516 38.5532 50.9614 38.231 51.1812C37.9087 51.4009 37.6743 51.728 37.5278 52.1626C37.3862 52.5923 37.3154 53.1221 37.3154 53.752V58H36.0996V49.9727H37.0811L37.2642 51.1079H37.3301C37.4912 50.8296 37.6938 50.5952 37.938 50.4048C38.1821 50.2144 38.4556 50.0703 38.7583 49.9727C39.061 49.875 39.3833 49.8262 39.7251 49.8262C40.3354 49.8262 40.8457 49.9409 41.2559 50.1704C41.6709 50.395 41.9712 50.7393 42.1567 51.2031H42.2227C42.4863 50.7393 42.8477 50.395 43.3066 50.1704C43.7656 49.9409 44.2686 49.8262 44.8154 49.8262ZM52.9893 49.8408C53.9463 49.8408 54.6567 50.0557 55.1206 50.4854C55.5845 50.915 55.8164 51.6011 55.8164 52.5435V58H54.9302L54.6958 56.8135H54.6372C54.4126 57.1064 54.1782 57.353 53.9341 57.5532C53.6899 57.7485 53.4067 57.8975 53.0845 58C52.7671 58.0977 52.3765 58.1465 51.9126 58.1465C51.4243 58.1465 50.9897 58.061 50.6089 57.8901C50.2329 57.7192 49.9351 57.4604 49.7153 57.1138C49.5005 56.7671 49.3931 56.3276 49.3931 55.7954C49.3931 54.9946 49.7104 54.3794 50.3452 53.9497C50.98 53.52 51.9468 53.2856 53.2456 53.2466L54.6299 53.188V52.6973C54.6299 52.0039 54.481 51.5181 54.1831 51.2397C53.8853 50.9614 53.4653 50.8223 52.9233 50.8223C52.5034 50.8223 52.103 50.8833 51.7222 51.0054C51.3413 51.1274 50.98 51.2715 50.6382 51.4375L50.2646 50.5146C50.626 50.3291 51.041 50.1704 51.5098 50.0386C51.9785 49.9067 52.4717 49.8408 52.9893 49.8408ZM54.6152 54.0449L53.3921 54.0962C52.3911 54.1353 51.6855 54.2988 51.2754 54.5869C50.8652 54.875 50.6602 55.2827 50.6602 55.8101C50.6602 56.269 50.7993 56.6084 51.0776 56.8281C51.356 57.0479 51.7246 57.1577 52.1836 57.1577C52.8965 57.1577 53.48 56.96 53.9341 56.5645C54.3882 56.1689 54.6152 55.5757 54.6152 54.7847V54.0449ZM61.9688 49.8262C62.1299 49.8262 62.2983 49.8359 62.4741 49.8555C62.6499 49.8701 62.8062 49.8921 62.9429 49.9214L62.7891 51.0493C62.6572 51.0151 62.5107 50.9883 62.3496 50.9688C62.1885 50.9492 62.0371 50.9395 61.8955 50.9395C61.5732 50.9395 61.2681 51.0054 60.98 51.1372C60.6968 51.2642 60.4478 51.4497 60.2329 51.6938C60.0181 51.9331 59.8496 52.2236 59.7275 52.5654C59.6055 52.9023 59.5444 53.2783 59.5444 53.6934V58H58.3213V49.9727H59.332L59.4639 51.4521H59.5151C59.6812 51.1543 59.8813 50.8833 60.1157 50.6392C60.3501 50.3901 60.6211 50.1924 60.9287 50.0459C61.2412 49.8994 61.5879 49.8262 61.9688 49.8262ZM63.1919 49.9727H64.4956L66.2681 54.6309C66.3706 54.9043 66.4658 55.168 66.5537 55.4219C66.6416 55.6709 66.7197 55.9102 66.7881 56.1396C66.8564 56.3691 66.9102 56.5913 66.9492 56.8062H67.0005C67.0688 56.562 67.1665 56.2422 67.2935 55.8467C67.4204 55.4463 67.5571 55.0386 67.7036 54.6235L69.3809 49.9727H70.6919L67.1982 59.1792C67.0127 59.6724 66.7954 60.1021 66.5464 60.4683C66.3022 60.8345 66.0044 61.1152 65.6528 61.3105C65.3013 61.5107 64.8765 61.6108 64.3784 61.6108C64.1489 61.6108 63.9463 61.5962 63.7705 61.5669C63.5947 61.5425 63.4434 61.5132 63.3164 61.479V60.5049C63.4238 60.5293 63.5532 60.5513 63.7046 60.5708C63.8608 60.5903 64.022 60.6001 64.188 60.6001C64.4907 60.6001 64.752 60.5415 64.9717 60.4243C65.1963 60.312 65.3892 60.146 65.5503 59.9263C65.7114 59.7065 65.8506 59.4453 65.9678 59.1426L66.4072 58.0146L63.1919 49.9727Z" fill="#42526E"/>
</svg>
