<svg width="75" height="76" viewBox="0 0 75 76" fill="none" xmlns="http://www.w3.org/2000/svg">
<path d="M46.5 16H28.5C27.3954 16 26.5 16.8965 26.5 18.001C26.5 18.0294 26.5 18.0493 26.5 18.0592V36.0592C26.5 37.1311 27.37 38 28.4419 38C28.4701 38 28.49 38 28.5 38H46.5C46.51 38 46.5299 38 46.5581 38C47.63 38 48.5 37.1311 48.5 36.0592V18.0591C48.5 18.0493 48.5 18.0294 48.5 18.001C48.5 16.8965 47.6046 16 46.5 16ZM39.5 36.0592H28.5V28.0591H39.5V36.0592ZM39.5 26.0591H28.5V18.0592L39.5 18.0591V26.0591ZM46.5 36.0592H41.5V18.0592H46.5V36.0592Z" fill="#4589FF"/>
<path d="M11.0073 55.1509C11.0073 55.7856 10.8486 56.3276 10.5312 56.7769C10.2188 57.2212 9.7793 57.5605 9.21289 57.7949C8.64648 58.0293 7.97998 58.1465 7.21338 58.1465C6.80811 58.1465 6.4248 58.127 6.06348 58.0879C5.70215 58.0488 5.37012 57.9927 5.06738 57.9194C4.76465 57.8462 4.49854 57.7559 4.26904 57.6484V56.4546C4.63525 56.606 5.08203 56.7476 5.60938 56.8794C6.13672 57.0063 6.68848 57.0698 7.26465 57.0698C7.80176 57.0698 8.25586 56.999 8.62695 56.8574C8.99805 56.7109 9.27881 56.5034 9.46924 56.2349C9.66455 55.9614 9.76221 55.6343 9.76221 55.2534C9.76221 54.8872 9.68164 54.582 9.52051 54.3379C9.35938 54.0889 9.09082 53.8643 8.71484 53.6641C8.34375 53.459 7.83594 53.2417 7.19141 53.0122C6.7373 52.8511 6.33691 52.6753 5.99023 52.4849C5.64355 52.2896 5.35303 52.0698 5.11865 51.8257C4.88428 51.5815 4.70605 51.2983 4.58398 50.9761C4.4668 50.6538 4.4082 50.2852 4.4082 49.8701C4.4082 49.2988 4.55225 48.8105 4.84033 48.4053C5.1333 47.9951 5.53613 47.6826 6.04883 47.4678C6.56641 47.248 7.15967 47.1382 7.82861 47.1382C8.3999 47.1382 8.92725 47.1919 9.41064 47.2993C9.89893 47.4067 10.3457 47.5508 10.751 47.7314L10.3628 48.8008C9.97705 48.6396 9.56689 48.5054 9.13232 48.3979C8.70264 48.2905 8.2583 48.2368 7.79932 48.2368C7.34033 48.2368 6.95215 48.3052 6.63477 48.4419C6.32227 48.5737 6.08301 48.7617 5.91699 49.0059C5.75098 49.25 5.66797 49.5405 5.66797 49.8774C5.66797 50.2534 5.74609 50.5659 5.90234 50.8149C6.06348 51.064 6.31738 51.2861 6.66406 51.4814C7.01562 51.6719 7.47949 51.8721 8.05566 52.082C8.68555 52.3115 9.22021 52.5557 9.65967 52.8145C10.0991 53.0684 10.4336 53.3809 10.6631 53.752C10.8926 54.1182 11.0073 54.5845 11.0073 55.1509ZM19.6426 49.9727V58H18.6465L18.4707 56.8721H18.4048C18.2388 57.1504 18.0239 57.3848 17.7603 57.5752C17.4966 57.7656 17.1987 57.9072 16.8667 58C16.5396 58.0977 16.1904 58.1465 15.8193 58.1465C15.1846 58.1465 14.6523 58.0439 14.2227 57.8389C13.793 57.6338 13.4683 57.3164 13.2485 56.8867C13.0337 56.457 12.9263 55.9053 12.9263 55.2314V49.9727H14.1567V55.1436C14.1567 55.8125 14.3081 56.313 14.6108 56.645C14.9136 56.9722 15.375 57.1357 15.9951 57.1357C16.5908 57.1357 17.0645 57.0234 17.416 56.7988C17.7725 56.5742 18.0288 56.2446 18.1851 55.8101C18.3413 55.3706 18.4194 54.8335 18.4194 54.1987V49.9727H19.6426ZM30.9292 49.8262C31.813 49.8262 32.4795 50.0581 32.9287 50.522C33.3779 50.981 33.6025 51.7207 33.6025 52.7412V58H32.4014V52.7998C32.4014 52.1504 32.2598 51.6646 31.9766 51.3423C31.6982 51.0151 31.2832 50.8516 30.7314 50.8516C29.9551 50.8516 29.3911 51.0762 29.0396 51.5254C28.688 51.9746 28.5122 52.6362 28.5122 53.5103V58H27.3037V52.7998C27.3037 52.3652 27.2402 52.0039 27.1133 51.7158C26.9912 51.4277 26.8057 51.2129 26.5566 51.0713C26.3125 50.9248 26.0024 50.8516 25.6265 50.8516C25.0942 50.8516 24.667 50.9614 24.3447 51.1812C24.0225 51.4009 23.7881 51.728 23.6416 52.1626C23.5 52.5923 23.4292 53.1221 23.4292 53.752V58H22.2134V49.9727H23.1948L23.3779 51.1079H23.4438C23.605 50.8296 23.8076 50.5952 24.0518 50.4048C24.2959 50.2144 24.5693 50.0703 24.8721 49.9727C25.1748 49.875 25.4971 49.8262 25.8389 49.8262C26.4492 49.8262 26.9595 49.9409 27.3696 50.1704C27.7847 50.395 28.085 50.7393 28.2705 51.2031H28.3364C28.6001 50.7393 28.9614 50.395 29.4204 50.1704C29.8794 49.9409 30.3823 49.8262 30.9292 49.8262ZM44.8159 49.8262C45.6997 49.8262 46.3662 50.0581 46.8154 50.522C47.2646 50.981 47.4893 51.7207 47.4893 52.7412V58H46.2881V52.7998C46.2881 52.1504 46.1465 51.6646 45.8633 51.3423C45.585 51.0151 45.1699 50.8516 44.6182 50.8516C43.8418 50.8516 43.2778 51.0762 42.9263 51.5254C42.5747 51.9746 42.3989 52.6362 42.3989 53.5103V58H41.1904V52.7998C41.1904 52.3652 41.127 52.0039 41 51.7158C40.8779 51.4277 40.6924 51.2129 40.4434 51.0713C40.1992 50.9248 39.8892 50.8516 39.5132 50.8516C38.981 50.8516 38.5537 50.9614 38.2314 51.1812C37.9092 51.4009 37.6748 51.728 37.5283 52.1626C37.3867 52.5923 37.3159 53.1221 37.3159 53.752V58H36.1001V49.9727H37.0815L37.2646 51.1079H37.3306C37.4917 50.8296 37.6943 50.5952 37.9385 50.4048C38.1826 50.2144 38.4561 50.0703 38.7588 49.9727C39.0615 49.875 39.3838 49.8262 39.7256 49.8262C40.3359 49.8262 40.8462 49.9409 41.2563 50.1704C41.6714 50.395 41.9717 50.7393 42.1572 51.2031H42.2231C42.4868 50.7393 42.8481 50.395 43.3071 50.1704C43.7661 49.9409 44.269 49.8262 44.8159 49.8262ZM52.9897 49.8408C53.9468 49.8408 54.6572 50.0557 55.1211 50.4854C55.585 50.915 55.8169 51.6011 55.8169 52.5435V58H54.9307L54.6963 56.8135H54.6377C54.4131 57.1064 54.1787 57.353 53.9346 57.5532C53.6904 57.7485 53.4072 57.8975 53.085 58C52.7676 58.0977 52.377 58.1465 51.9131 58.1465C51.4248 58.1465 50.9902 58.061 50.6094 57.8901C50.2334 57.7192 49.9355 57.4604 49.7158 57.1138C49.501 56.7671 49.3936 56.3276 49.3936 55.7954C49.3936 54.9946 49.7109 54.3794 50.3457 53.9497C50.9805 53.52 51.9473 53.2856 53.2461 53.2466L54.6304 53.188V52.6973C54.6304 52.0039 54.4814 51.5181 54.1836 51.2397C53.8857 50.9614 53.4658 50.8223 52.9238 50.8223C52.5039 50.8223 52.1035 50.8833 51.7227 51.0054C51.3418 51.1274 50.9805 51.2715 50.6387 51.4375L50.2651 50.5146C50.6265 50.3291 51.0415 50.1704 51.5103 50.0386C51.979 49.9067 52.4722 49.8408 52.9897 49.8408ZM54.6157 54.0449L53.3926 54.0962C52.3916 54.1353 51.686 54.2988 51.2759 54.5869C50.8657 54.875 50.6606 55.2827 50.6606 55.8101C50.6606 56.269 50.7998 56.6084 51.0781 56.8281C51.3564 57.0479 51.7251 57.1577 52.1841 57.1577C52.897 57.1577 53.4805 56.96 53.9346 56.5645C54.3887 56.1689 54.6157 55.5757 54.6157 54.7847V54.0449ZM61.9692 49.8262C62.1304 49.8262 62.2988 49.8359 62.4746 49.8555C62.6504 49.8701 62.8066 49.8921 62.9434 49.9214L62.7896 51.0493C62.6577 51.0151 62.5112 50.9883 62.3501 50.9688C62.189 50.9492 62.0376 50.9395 61.896 50.9395C61.5737 50.9395 61.2686 51.0054 60.9805 51.1372C60.6973 51.2642 60.4482 51.4497 60.2334 51.6938C60.0186 51.9331 59.8501 52.2236 59.728 52.5654C59.606 52.9023 59.5449 53.2783 59.5449 53.6934V58H58.3218V49.9727H59.3325L59.4644 51.4521H59.5156C59.6816 51.1543 59.8818 50.8833 60.1162 50.6392C60.3506 50.3901 60.6216 50.1924 60.9292 50.0459C61.2417 49.8994 61.5884 49.8262 61.9692 49.8262ZM63.1924 49.9727H64.4961L66.2686 54.6309C66.3711 54.9043 66.4663 55.168 66.5542 55.4219C66.6421 55.6709 66.7202 55.9102 66.7886 56.1396C66.8569 56.3691 66.9106 56.5913 66.9497 56.8062H67.001C67.0693 56.562 67.167 56.2422 67.2939 55.8467C67.4209 55.4463 67.5576 55.0386 67.7041 54.6235L69.3813 49.9727H70.6924L67.1987 59.1792C67.0132 59.6724 66.7959 60.1021 66.5469 60.4683C66.3027 60.8345 66.0049 61.1152 65.6533 61.3105C65.3018 61.5107 64.877 61.6108 64.3789 61.6108C64.1494 61.6108 63.9468 61.5962 63.771 61.5669C63.5952 61.5425 63.4438 61.5132 63.3169 61.479V60.5049C63.4243 60.5293 63.5537 60.5513 63.7051 60.5708C63.8613 60.5903 64.0225 60.6001 64.1885 60.6001C64.4912 60.6001 64.7524 60.5415 64.9722 60.4243C65.1968 60.312 65.3896 60.146 65.5508 59.9263C65.7119 59.7065 65.8511 59.4453 65.9683 59.1426L66.4077 58.0146L63.1924 49.9727Z" fill="#4589FF"/>
</svg>
