<svg width="24" height="24" viewBox="0 0 24 24" fill="none" xmlns="http://www.w3.org/2000/svg">
<mask id="mask0_19494_6865" style="mask-type:alpha" maskUnits="userSpaceOnUse" x="-1" y="0" width="25" height="24">
<rect x="-0.000488281" width="24" height="24" fill="#D9D9D9"/>
</mask>
<g mask="url(#mask0_19494_6865)">
<path d="M10.9995 13H5.99951C5.71618 13 5.47868 12.9042 5.28701 12.7125C5.09535 12.5208 4.99951 12.2833 4.99951 12C4.99951 11.7167 5.09535 11.4792 5.28701 11.2875C5.47868 11.0958 5.71618 11 5.99951 11H10.9995V6C10.9995 5.71667 11.0953 5.47917 11.287 5.2875C11.4787 5.09583 11.7162 5 11.9995 5C12.2828 5 12.5203 5.09583 12.712 5.2875C12.9037 5.47917 12.9995 5.71667 12.9995 6V11H17.9995C18.2828 11 18.5203 11.0958 18.712 11.2875C18.9037 11.4792 18.9995 11.7167 18.9995 12C18.9995 12.2833 18.9037 12.5208 18.712 12.7125C18.5203 12.9042 18.2828 13 17.9995 13H12.9995V18C12.9995 18.2833 12.9037 18.5208 12.712 18.7125C12.5203 18.9042 12.2828 19 11.9995 19C11.7162 19 11.4787 18.9042 11.287 18.7125C11.0953 18.5208 10.9995 18.2833 10.9995 18V13Z" fill="#4589FF"/>
</g>
</svg>
