<svg width="24" height="24" viewBox="0 0 24 24" fill="none" xmlns="http://www.w3.org/2000/svg">
<rect x="-0.000488281" width="24" height="24" rx="12" fill="#D2E3FF"/>
<mask id="mask0_19449_11175" style="mask-type:alpha" maskUnits="userSpaceOnUse" x="-1" y="0" width="25" height="24">
<rect x="-0.000488281" width="24" height="24" fill="#D9D9D9"/>
</mask>
<g mask="url(#mask0_19449_11175)">
<path d="M4.99951 19H6.39951L15.0245 10.375L13.6245 8.975L4.99951 17.6V19ZM19.2995 8.925L15.0495 4.725L16.4495 3.325C16.8328 2.94167 17.3037 2.75 17.862 2.75C18.4203 2.75 18.8912 2.94167 19.2745 3.325L20.6745 4.725C21.0578 5.10833 21.2578 5.57083 21.2745 6.1125C21.2912 6.65417 21.1078 7.11667 20.7245 7.5L19.2995 8.925ZM17.8495 10.4L7.24951 21H2.99951V16.75L13.5995 6.15L17.8495 10.4Z" fill="#005DFF"/>
</g>
</svg>
