<svg width="24" height="24" viewBox="0 0 24 24" fill="none" xmlns="http://www.w3.org/2000/svg">
<rect x="-0.000488281" width="24" height="24" rx="12" fill="#D2E3FF"/>
<mask id="mask0_19412_10957" style="mask-type:alpha" maskUnits="userSpaceOnUse" x="-1" y="0" width="25" height="24">
<rect x="-0.000488281" width="24" height="24" fill="#D9D9D9"/>
</mask>
<g mask="url(#mask0_19412_10957)">
<path d="M6.99951 21C6.44951 21 5.97868 20.8042 5.58701 20.4125C5.19535 20.0208 4.99951 19.55 4.99951 19V6C4.71618 6 4.47868 5.90417 4.28701 5.7125C4.09535 5.52083 3.99951 5.28333 3.99951 5C3.99951 4.71667 4.09535 4.47917 4.28701 4.2875C4.47868 4.09583 4.71618 4 4.99951 4H8.99951C8.99951 3.71667 9.09535 3.47917 9.28701 3.2875C9.47868 3.09583 9.71618 3 9.99951 3H13.9995C14.2828 3 14.5203 3.09583 14.712 3.2875C14.9037 3.47917 14.9995 3.71667 14.9995 4H18.9995C19.2828 4 19.5203 4.09583 19.712 4.2875C19.9037 4.47917 19.9995 4.71667 19.9995 5C19.9995 5.28333 19.9037 5.52083 19.712 5.7125C19.5203 5.90417 19.2828 6 18.9995 6V19C18.9995 19.55 18.8037 20.0208 18.412 20.4125C18.0203 20.8042 17.5495 21 16.9995 21H6.99951ZM6.99951 6V19H16.9995V6H6.99951ZM8.99951 16C8.99951 16.2833 9.09535 16.5208 9.28701 16.7125C9.47868 16.9042 9.71618 17 9.99951 17C10.2828 17 10.5203 16.9042 10.712 16.7125C10.9037 16.5208 10.9995 16.2833 10.9995 16V9C10.9995 8.71667 10.9037 8.47917 10.712 8.2875C10.5203 8.09583 10.2828 8 9.99951 8C9.71618 8 9.47868 8.09583 9.28701 8.2875C9.09535 8.47917 8.99951 8.71667 8.99951 9V16ZM12.9995 16C12.9995 16.2833 13.0953 16.5208 13.287 16.7125C13.4787 16.9042 13.7162 17 13.9995 17C14.2828 17 14.5203 16.9042 14.712 16.7125C14.9037 16.5208 14.9995 16.2833 14.9995 16V9C14.9995 8.71667 14.9037 8.47917 14.712 8.2875C14.5203 8.09583 14.2828 8 13.9995 8C13.7162 8 13.4787 8.09583 13.287 8.2875C13.0953 8.47917 12.9995 8.71667 12.9995 9V16Z" fill="#005DFF"/>
</g>
</svg>
