<svg width="24" height="24" viewBox="0 0 24 24" fill="none" xmlns="http://www.w3.org/2000/svg">
<mask id="mask0_19398_10368" style="mask-type:alpha" maskUnits="userSpaceOnUse" x="-1" y="0" width="25" height="24">
<rect x="-0.000488281" width="24" height="24" fill="#D9D9D9"/>
</mask>
<g mask="url(#mask0_19398_10368)">
<path d="M14.4995 18C13.7995 18 13.2078 17.7583 12.7245 17.275C12.2412 16.7917 11.9995 16.2 11.9995 15.5C11.9995 14.8 12.2412 14.2083 12.7245 13.725C13.2078 13.2417 13.7995 13 14.4995 13C15.1995 13 15.7912 13.2417 16.2745 13.725C16.7578 14.2083 16.9995 14.8 16.9995 15.5C16.9995 16.2 16.7578 16.7917 16.2745 17.275C15.7912 17.7583 15.1995 18 14.4995 18ZM4.99951 22C4.44951 22 3.97868 21.8042 3.58701 21.4125C3.19535 21.0208 2.99951 20.55 2.99951 20V6C2.99951 5.45 3.19535 4.97917 3.58701 4.5875C3.97868 4.19583 4.44951 4 4.99951 4H5.99951V3C5.99951 2.71667 6.09535 2.47917 6.28701 2.2875C6.47868 2.09583 6.71618 2 6.99951 2C7.28285 2 7.52035 2.09583 7.71201 2.2875C7.90368 2.47917 7.99951 2.71667 7.99951 3V4H15.9995V3C15.9995 2.71667 16.0953 2.47917 16.287 2.2875C16.4787 2.09583 16.7162 2 16.9995 2C17.2828 2 17.5203 2.09583 17.712 2.2875C17.9037 2.47917 17.9995 2.71667 17.9995 3V4H18.9995C19.5495 4 20.0203 4.19583 20.412 4.5875C20.8037 4.97917 20.9995 5.45 20.9995 6V20C20.9995 20.55 20.8037 21.0208 20.412 21.4125C20.0203 21.8042 19.5495 22 18.9995 22H4.99951ZM4.99951 20H18.9995V10H4.99951V20ZM4.99951 8H18.9995V6H4.99951V8Z" fill="#4589FF"/>
</g>
</svg>
