<?xml version="1.0" encoding="UTF-8"?><svg id="uuid-6e731b0d-1625-4634-b4b6-7472b5fdb127" xmlns="http://www.w3.org/2000/svg" viewBox="0 0 38 89"><path d="M17.6,23.9l-6.9,6.3c-.4.3-1,.3-1.3,0l-.5-.5c-.4-.4-.4-1.1,0-1.5l9.5-8.7c.4-.3,1-.3,1.3,0l9.5,8.7c.4.4.4,1.1,0,1.5l-.5.5c-.4.3-1,.3-1.3,0l-6.9-6.3v44.1c0,.6-.4,1-1,1h-.8c-.6,0-1-.4-1-1V23.9Z" style="fill:#89bcd9; stroke-width:0px;"/><path d="M19,88.5h0c-10.2,0-18.5-8.3-18.5-18.5V19C.5,8.8,8.8.5,19,.5h0c10.2,0,18.5,8.3,18.5,18.5v51c0,10.2-8.3,18.5-18.5,18.5Z" style="fill:none; stroke:#89bcd9;"/></svg>